G04 #@! TF.GenerationSoftware,KiCad,Pcbnew,(5.1.5)-3*
G04 #@! TF.CreationDate,2020-03-20T23:13:36-05:00*
G04 #@! TF.ProjectId,PMT_PCB,504d545f-5043-4422-9e6b-696361645f70,rev?*
G04 #@! TF.SameCoordinates,Original*
G04 #@! TF.FileFunction,Legend,Top*
G04 #@! TF.FilePolarity,Positive*
%FSLAX46Y46*%
G04 Gerber Fmt 4.6, Leading zero omitted, Abs format (unit mm)*
G04 Created by KiCad (PCBNEW (5.1.5)-3) date 2020-03-20 23:13:36*
%MOMM*%
%LPD*%
G04 APERTURE LIST*
%ADD10C,0.150000*%
%ADD11C,0.120000*%
G04 APERTURE END LIST*
D10*
X148209047Y-114371428D02*
X148970952Y-114371428D01*
X145669047Y-114371428D02*
X146430952Y-114371428D01*
X146050000Y-114752380D02*
X146050000Y-113990476D01*
X133143809Y-65492380D02*
X133762857Y-65492380D01*
X133429523Y-65873333D01*
X133572380Y-65873333D01*
X133667619Y-65920952D01*
X133715238Y-65968571D01*
X133762857Y-66063809D01*
X133762857Y-66301904D01*
X133715238Y-66397142D01*
X133667619Y-66444761D01*
X133572380Y-66492380D01*
X133286666Y-66492380D01*
X133191428Y-66444761D01*
X133143809Y-66397142D01*
X134191428Y-66397142D02*
X134239047Y-66444761D01*
X134191428Y-66492380D01*
X134143809Y-66444761D01*
X134191428Y-66397142D01*
X134191428Y-66492380D01*
X134572380Y-65492380D02*
X135191428Y-65492380D01*
X134858095Y-65873333D01*
X135000952Y-65873333D01*
X135096190Y-65920952D01*
X135143809Y-65968571D01*
X135191428Y-66063809D01*
X135191428Y-66301904D01*
X135143809Y-66397142D01*
X135096190Y-66444761D01*
X135000952Y-66492380D01*
X134715238Y-66492380D01*
X134620000Y-66444761D01*
X134572380Y-66397142D01*
X135477142Y-65492380D02*
X135810476Y-66492380D01*
X136143809Y-65492380D01*
X122983809Y-60412380D02*
X123602857Y-60412380D01*
X123269523Y-60793333D01*
X123412380Y-60793333D01*
X123507619Y-60840952D01*
X123555238Y-60888571D01*
X123602857Y-60983809D01*
X123602857Y-61221904D01*
X123555238Y-61317142D01*
X123507619Y-61364761D01*
X123412380Y-61412380D01*
X123126666Y-61412380D01*
X123031428Y-61364761D01*
X122983809Y-61317142D01*
X124031428Y-61317142D02*
X124079047Y-61364761D01*
X124031428Y-61412380D01*
X123983809Y-61364761D01*
X124031428Y-61317142D01*
X124031428Y-61412380D01*
X124412380Y-60412380D02*
X125031428Y-60412380D01*
X124698095Y-60793333D01*
X124840952Y-60793333D01*
X124936190Y-60840952D01*
X124983809Y-60888571D01*
X125031428Y-60983809D01*
X125031428Y-61221904D01*
X124983809Y-61317142D01*
X124936190Y-61364761D01*
X124840952Y-61412380D01*
X124555238Y-61412380D01*
X124460000Y-61364761D01*
X124412380Y-61317142D01*
X125317142Y-60412380D02*
X125650476Y-61412380D01*
X125983809Y-60412380D01*
X156765809Y-70826380D02*
X157384857Y-70826380D01*
X157051523Y-71207333D01*
X157194380Y-71207333D01*
X157289619Y-71254952D01*
X157337238Y-71302571D01*
X157384857Y-71397809D01*
X157384857Y-71635904D01*
X157337238Y-71731142D01*
X157289619Y-71778761D01*
X157194380Y-71826380D01*
X156908666Y-71826380D01*
X156813428Y-71778761D01*
X156765809Y-71731142D01*
X157813428Y-71731142D02*
X157861047Y-71778761D01*
X157813428Y-71826380D01*
X157765809Y-71778761D01*
X157813428Y-71731142D01*
X157813428Y-71826380D01*
X158194380Y-70826380D02*
X158813428Y-70826380D01*
X158480095Y-71207333D01*
X158622952Y-71207333D01*
X158718190Y-71254952D01*
X158765809Y-71302571D01*
X158813428Y-71397809D01*
X158813428Y-71635904D01*
X158765809Y-71731142D01*
X158718190Y-71778761D01*
X158622952Y-71826380D01*
X158337238Y-71826380D01*
X158242000Y-71778761D01*
X158194380Y-71731142D01*
X159099142Y-70826380D02*
X159432476Y-71826380D01*
X159765809Y-70826380D01*
X156257809Y-99528380D02*
X156876857Y-99528380D01*
X156543523Y-99909333D01*
X156686380Y-99909333D01*
X156781619Y-99956952D01*
X156829238Y-100004571D01*
X156876857Y-100099809D01*
X156876857Y-100337904D01*
X156829238Y-100433142D01*
X156781619Y-100480761D01*
X156686380Y-100528380D01*
X156400666Y-100528380D01*
X156305428Y-100480761D01*
X156257809Y-100433142D01*
X157305428Y-100433142D02*
X157353047Y-100480761D01*
X157305428Y-100528380D01*
X157257809Y-100480761D01*
X157305428Y-100433142D01*
X157305428Y-100528380D01*
X157686380Y-99528380D02*
X158305428Y-99528380D01*
X157972095Y-99909333D01*
X158114952Y-99909333D01*
X158210190Y-99956952D01*
X158257809Y-100004571D01*
X158305428Y-100099809D01*
X158305428Y-100337904D01*
X158257809Y-100433142D01*
X158210190Y-100480761D01*
X158114952Y-100528380D01*
X157829238Y-100528380D01*
X157734000Y-100480761D01*
X157686380Y-100433142D01*
X158591142Y-99528380D02*
X158924476Y-100528380D01*
X159257809Y-99528380D01*
X153289047Y-114371428D02*
X154050952Y-114371428D01*
X153670000Y-114752380D02*
X153670000Y-113990476D01*
X158369047Y-114371428D02*
X159130952Y-114371428D01*
X123349523Y-57872380D02*
X123349523Y-58681904D01*
X123397142Y-58777142D01*
X123444761Y-58824761D01*
X123540000Y-58872380D01*
X123730476Y-58872380D01*
X123825714Y-58824761D01*
X123873333Y-58777142D01*
X123920952Y-58681904D01*
X123920952Y-57872380D01*
X124349523Y-58824761D02*
X124492380Y-58872380D01*
X124730476Y-58872380D01*
X124825714Y-58824761D01*
X124873333Y-58777142D01*
X124920952Y-58681904D01*
X124920952Y-58586666D01*
X124873333Y-58491428D01*
X124825714Y-58443809D01*
X124730476Y-58396190D01*
X124540000Y-58348571D01*
X124444761Y-58300952D01*
X124397142Y-58253333D01*
X124349523Y-58158095D01*
X124349523Y-58062857D01*
X124397142Y-57967619D01*
X124444761Y-57920000D01*
X124540000Y-57872380D01*
X124778095Y-57872380D01*
X124920952Y-57920000D01*
X125682857Y-58348571D02*
X125825714Y-58396190D01*
X125873333Y-58443809D01*
X125920952Y-58539047D01*
X125920952Y-58681904D01*
X125873333Y-58777142D01*
X125825714Y-58824761D01*
X125730476Y-58872380D01*
X125349523Y-58872380D01*
X125349523Y-57872380D01*
X125682857Y-57872380D01*
X125778095Y-57920000D01*
X125825714Y-57967619D01*
X125873333Y-58062857D01*
X125873333Y-58158095D01*
X125825714Y-58253333D01*
X125778095Y-58300952D01*
X125682857Y-58348571D01*
X125349523Y-58348571D01*
X127111428Y-58872380D02*
X127111428Y-57872380D01*
X127492380Y-57872380D01*
X127587619Y-57920000D01*
X127635238Y-57967619D01*
X127682857Y-58062857D01*
X127682857Y-58205714D01*
X127635238Y-58300952D01*
X127587619Y-58348571D01*
X127492380Y-58396190D01*
X127111428Y-58396190D01*
X128111428Y-58872380D02*
X128111428Y-58205714D01*
X128111428Y-58396190D02*
X128159047Y-58300952D01*
X128206666Y-58253333D01*
X128301904Y-58205714D01*
X128397142Y-58205714D01*
X128873333Y-58872380D02*
X128778095Y-58824761D01*
X128730476Y-58777142D01*
X128682857Y-58681904D01*
X128682857Y-58396190D01*
X128730476Y-58300952D01*
X128778095Y-58253333D01*
X128873333Y-58205714D01*
X129016190Y-58205714D01*
X129111428Y-58253333D01*
X129159047Y-58300952D01*
X129206666Y-58396190D01*
X129206666Y-58681904D01*
X129159047Y-58777142D01*
X129111428Y-58824761D01*
X129016190Y-58872380D01*
X128873333Y-58872380D01*
X130063809Y-58205714D02*
X130063809Y-59015238D01*
X130016190Y-59110476D01*
X129968571Y-59158095D01*
X129873333Y-59205714D01*
X129730476Y-59205714D01*
X129635238Y-59158095D01*
X130063809Y-58824761D02*
X129968571Y-58872380D01*
X129778095Y-58872380D01*
X129682857Y-58824761D01*
X129635238Y-58777142D01*
X129587619Y-58681904D01*
X129587619Y-58396190D01*
X129635238Y-58300952D01*
X129682857Y-58253333D01*
X129778095Y-58205714D01*
X129968571Y-58205714D01*
X130063809Y-58253333D01*
X130540000Y-58872380D02*
X130540000Y-58205714D01*
X130540000Y-58396190D02*
X130587619Y-58300952D01*
X130635238Y-58253333D01*
X130730476Y-58205714D01*
X130825714Y-58205714D01*
X131587619Y-58872380D02*
X131587619Y-58348571D01*
X131540000Y-58253333D01*
X131444761Y-58205714D01*
X131254285Y-58205714D01*
X131159047Y-58253333D01*
X131587619Y-58824761D02*
X131492380Y-58872380D01*
X131254285Y-58872380D01*
X131159047Y-58824761D01*
X131111428Y-58729523D01*
X131111428Y-58634285D01*
X131159047Y-58539047D01*
X131254285Y-58491428D01*
X131492380Y-58491428D01*
X131587619Y-58443809D01*
X132063809Y-58872380D02*
X132063809Y-58205714D01*
X132063809Y-58300952D02*
X132111428Y-58253333D01*
X132206666Y-58205714D01*
X132349523Y-58205714D01*
X132444761Y-58253333D01*
X132492380Y-58348571D01*
X132492380Y-58872380D01*
X132492380Y-58348571D02*
X132540000Y-58253333D01*
X132635238Y-58205714D01*
X132778095Y-58205714D01*
X132873333Y-58253333D01*
X132920952Y-58348571D01*
X132920952Y-58872380D01*
X133397142Y-58872380D02*
X133397142Y-58205714D01*
X133397142Y-58300952D02*
X133444761Y-58253333D01*
X133540000Y-58205714D01*
X133682857Y-58205714D01*
X133778095Y-58253333D01*
X133825714Y-58348571D01*
X133825714Y-58872380D01*
X133825714Y-58348571D02*
X133873333Y-58253333D01*
X133968571Y-58205714D01*
X134111428Y-58205714D01*
X134206666Y-58253333D01*
X134254285Y-58348571D01*
X134254285Y-58872380D01*
X135111428Y-58824761D02*
X135016190Y-58872380D01*
X134825714Y-58872380D01*
X134730476Y-58824761D01*
X134682857Y-58729523D01*
X134682857Y-58348571D01*
X134730476Y-58253333D01*
X134825714Y-58205714D01*
X135016190Y-58205714D01*
X135111428Y-58253333D01*
X135159047Y-58348571D01*
X135159047Y-58443809D01*
X134682857Y-58539047D01*
X135587619Y-58872380D02*
X135587619Y-58205714D01*
X135587619Y-58396190D02*
X135635238Y-58300952D01*
X135682857Y-58253333D01*
X135778095Y-58205714D01*
X135873333Y-58205714D01*
D11*
X144720000Y-111252000D02*
X144720000Y-109922000D01*
X144720000Y-109922000D02*
X146050000Y-109922000D01*
X147320000Y-109922000D02*
X149920000Y-109922000D01*
X149920000Y-112582000D02*
X149920000Y-109922000D01*
X147320000Y-112582000D02*
X149920000Y-112582000D01*
X147320000Y-112582000D02*
X147320000Y-109922000D01*
X152340000Y-110550000D02*
X152340000Y-109220000D01*
X153670000Y-110550000D02*
X152340000Y-110550000D01*
X157480000Y-110550000D02*
X157480000Y-107890000D01*
X157480000Y-107890000D02*
X160080000Y-107890000D01*
X157480000Y-110550000D02*
X160080000Y-110550000D01*
X160080000Y-110550000D02*
X160080000Y-107890000D01*
X163068000Y-101727000D02*
X163068000Y-80264000D01*
X142748000Y-101727000D02*
X163068000Y-101727000D01*
X142748000Y-101600000D02*
X142748000Y-101727000D01*
X142748000Y-101473000D02*
X142748000Y-101600000D01*
X142748000Y-100584000D02*
X142748000Y-101473000D01*
X142748000Y-80264000D02*
X142748000Y-100584000D01*
X163068000Y-80264000D02*
X142748000Y-80264000D01*
X161290000Y-101152000D02*
X159960000Y-101152000D01*
X159960000Y-101152000D02*
X159960000Y-99822000D01*
X159960000Y-98552000D02*
X159960000Y-80712000D01*
X162620000Y-80712000D02*
X159960000Y-80712000D01*
X162620000Y-98552000D02*
X162620000Y-80712000D01*
X162620000Y-98552000D02*
X159960000Y-98552000D01*
X162620000Y-59630000D02*
X159960000Y-59630000D01*
X162620000Y-74930000D02*
X162620000Y-59630000D01*
X159960000Y-74930000D02*
X159960000Y-59630000D01*
X162620000Y-74930000D02*
X159960000Y-74930000D01*
X162620000Y-76200000D02*
X162620000Y-77530000D01*
X162620000Y-77530000D02*
X161290000Y-77530000D01*
X163068000Y-58674000D02*
X141986000Y-58674000D01*
X141986000Y-58674000D02*
X141986000Y-78740000D01*
X163068000Y-78740000D02*
X163068000Y-58674000D01*
X141986000Y-78740000D02*
X163068000Y-78740000D01*
X122047000Y-59630000D02*
X139700000Y-59630000D01*
X121920000Y-59630000D02*
X122047000Y-59630000D01*
X119320000Y-59630000D02*
X121920000Y-59630000D01*
X119320000Y-59630000D02*
X119320000Y-110550000D01*
X139760000Y-110550000D02*
X139700000Y-59563000D01*
X119320000Y-110550000D02*
X139760000Y-110550000D01*
X137100000Y-62230000D02*
X139760000Y-62230000D01*
X137100000Y-60960000D02*
X137100000Y-59630000D01*
X137100000Y-59630000D02*
X138430000Y-59630000D01*
X137100000Y-62230000D02*
X137100000Y-110550000D01*
X137100000Y-110550000D02*
X139760000Y-110550000D01*
X139760000Y-62230000D02*
X139760000Y-110550000D01*
X119320000Y-62230000D02*
X121980000Y-62230000D01*
X119320000Y-60960000D02*
X119320000Y-59630000D01*
X119320000Y-59630000D02*
X120650000Y-59630000D01*
X119320000Y-62230000D02*
X119320000Y-110550000D01*
X119320000Y-110550000D02*
X121980000Y-110550000D01*
X121980000Y-62230000D02*
X121980000Y-110550000D01*
D10*
X144248571Y-108132571D02*
X144391428Y-108180190D01*
X144439047Y-108227809D01*
X144486666Y-108323047D01*
X144486666Y-108465904D01*
X144439047Y-108561142D01*
X144391428Y-108608761D01*
X144296190Y-108656380D01*
X143915238Y-108656380D01*
X143915238Y-107656380D01*
X144248571Y-107656380D01*
X144343809Y-107704000D01*
X144391428Y-107751619D01*
X144439047Y-107846857D01*
X144439047Y-107942095D01*
X144391428Y-108037333D01*
X144343809Y-108084952D01*
X144248571Y-108132571D01*
X143915238Y-108132571D01*
X144867619Y-108370666D02*
X145343809Y-108370666D01*
X144772380Y-108656380D02*
X145105714Y-107656380D01*
X145439047Y-108656380D01*
X145629523Y-107656380D02*
X146200952Y-107656380D01*
X145915238Y-108656380D02*
X145915238Y-107656380D01*
X146391428Y-107656380D02*
X146962857Y-107656380D01*
X146677142Y-108656380D02*
X146677142Y-107656380D01*
X148058095Y-108656380D02*
X148058095Y-107656380D01*
X148439047Y-107656380D01*
X148534285Y-107704000D01*
X148581904Y-107751619D01*
X148629523Y-107846857D01*
X148629523Y-107989714D01*
X148581904Y-108084952D01*
X148534285Y-108132571D01*
X148439047Y-108180190D01*
X148058095Y-108180190D01*
X148962857Y-107656380D02*
X149200952Y-108656380D01*
X149391428Y-107942095D01*
X149581904Y-108656380D01*
X149820000Y-107656380D01*
X150772380Y-108656380D02*
X150439047Y-108180190D01*
X150200952Y-108656380D02*
X150200952Y-107656380D01*
X150581904Y-107656380D01*
X150677142Y-107704000D01*
X150724761Y-107751619D01*
X150772380Y-107846857D01*
X150772380Y-107989714D01*
X150724761Y-108084952D01*
X150677142Y-108132571D01*
X150581904Y-108180190D01*
X150200952Y-108180190D01*
X151210000Y-103592380D02*
X151829047Y-103592380D01*
X151495714Y-103973333D01*
X151638571Y-103973333D01*
X151733809Y-104020952D01*
X151781428Y-104068571D01*
X151829047Y-104163809D01*
X151829047Y-104401904D01*
X151781428Y-104497142D01*
X151733809Y-104544761D01*
X151638571Y-104592380D01*
X151352857Y-104592380D01*
X151257619Y-104544761D01*
X151210000Y-104497142D01*
X152257619Y-104497142D02*
X152305238Y-104544761D01*
X152257619Y-104592380D01*
X152210000Y-104544761D01*
X152257619Y-104497142D01*
X152257619Y-104592380D01*
X152638571Y-103592380D02*
X153305238Y-103592380D01*
X152876666Y-104592380D01*
X153686190Y-104211428D02*
X154448095Y-104211428D01*
X155448095Y-104592380D02*
X154876666Y-104592380D01*
X155162380Y-104592380D02*
X155162380Y-103592380D01*
X155067142Y-103735238D01*
X154971904Y-103830476D01*
X154876666Y-103878095D01*
X155829047Y-103687619D02*
X155876666Y-103640000D01*
X155971904Y-103592380D01*
X156210000Y-103592380D01*
X156305238Y-103640000D01*
X156352857Y-103687619D01*
X156400476Y-103782857D01*
X156400476Y-103878095D01*
X156352857Y-104020952D01*
X155781428Y-104592380D01*
X156400476Y-104592380D01*
X156686190Y-103592380D02*
X157019523Y-104592380D01*
X157352857Y-103592380D01*
X158448095Y-104592380D02*
X158448095Y-103592380D01*
X158829047Y-103592380D01*
X158924285Y-103640000D01*
X158971904Y-103687619D01*
X159019523Y-103782857D01*
X159019523Y-103925714D01*
X158971904Y-104020952D01*
X158924285Y-104068571D01*
X158829047Y-104116190D01*
X158448095Y-104116190D01*
X159352857Y-103592380D02*
X159590952Y-104592380D01*
X159781428Y-103878095D01*
X159971904Y-104592380D01*
X160210000Y-103592380D01*
X161162380Y-104592380D02*
X160829047Y-104116190D01*
X160590952Y-104592380D02*
X160590952Y-103592380D01*
X160971904Y-103592380D01*
X161067142Y-103640000D01*
X161114761Y-103687619D01*
X161162380Y-103782857D01*
X161162380Y-103925714D01*
X161114761Y-104020952D01*
X161067142Y-104068571D01*
X160971904Y-104116190D01*
X160590952Y-104116190D01*
X144288571Y-97448666D02*
X144764761Y-97448666D01*
X144193333Y-97734380D02*
X144526666Y-96734380D01*
X144860000Y-97734380D01*
X145621904Y-97686761D02*
X145526666Y-97734380D01*
X145336190Y-97734380D01*
X145240952Y-97686761D01*
X145193333Y-97639142D01*
X145145714Y-97543904D01*
X145145714Y-97258190D01*
X145193333Y-97162952D01*
X145240952Y-97115333D01*
X145336190Y-97067714D01*
X145526666Y-97067714D01*
X145621904Y-97115333D01*
X146479047Y-97686761D02*
X146383809Y-97734380D01*
X146193333Y-97734380D01*
X146098095Y-97686761D01*
X146050476Y-97639142D01*
X146002857Y-97543904D01*
X146002857Y-97258190D01*
X146050476Y-97162952D01*
X146098095Y-97115333D01*
X146193333Y-97067714D01*
X146383809Y-97067714D01*
X146479047Y-97115333D01*
X147288571Y-97686761D02*
X147193333Y-97734380D01*
X147002857Y-97734380D01*
X146907619Y-97686761D01*
X146860000Y-97591523D01*
X146860000Y-97210571D01*
X146907619Y-97115333D01*
X147002857Y-97067714D01*
X147193333Y-97067714D01*
X147288571Y-97115333D01*
X147336190Y-97210571D01*
X147336190Y-97305809D01*
X146860000Y-97401047D01*
X147907619Y-97734380D02*
X147812380Y-97686761D01*
X147764761Y-97591523D01*
X147764761Y-96734380D01*
X148669523Y-97686761D02*
X148574285Y-97734380D01*
X148383809Y-97734380D01*
X148288571Y-97686761D01*
X148240952Y-97591523D01*
X148240952Y-97210571D01*
X148288571Y-97115333D01*
X148383809Y-97067714D01*
X148574285Y-97067714D01*
X148669523Y-97115333D01*
X148717142Y-97210571D01*
X148717142Y-97305809D01*
X148240952Y-97401047D01*
X149145714Y-97734380D02*
X149145714Y-97067714D01*
X149145714Y-97258190D02*
X149193333Y-97162952D01*
X149240952Y-97115333D01*
X149336190Y-97067714D01*
X149431428Y-97067714D01*
X149907619Y-97734380D02*
X149812380Y-97686761D01*
X149764761Y-97639142D01*
X149717142Y-97543904D01*
X149717142Y-97258190D01*
X149764761Y-97162952D01*
X149812380Y-97115333D01*
X149907619Y-97067714D01*
X150050476Y-97067714D01*
X150145714Y-97115333D01*
X150193333Y-97162952D01*
X150240952Y-97258190D01*
X150240952Y-97543904D01*
X150193333Y-97639142D01*
X150145714Y-97686761D01*
X150050476Y-97734380D01*
X149907619Y-97734380D01*
X150669523Y-97734380D02*
X150669523Y-97067714D01*
X150669523Y-97162952D02*
X150717142Y-97115333D01*
X150812380Y-97067714D01*
X150955238Y-97067714D01*
X151050476Y-97115333D01*
X151098095Y-97210571D01*
X151098095Y-97734380D01*
X151098095Y-97210571D02*
X151145714Y-97115333D01*
X151240952Y-97067714D01*
X151383809Y-97067714D01*
X151479047Y-97115333D01*
X151526666Y-97210571D01*
X151526666Y-97734380D01*
X152383809Y-97686761D02*
X152288571Y-97734380D01*
X152098095Y-97734380D01*
X152002857Y-97686761D01*
X151955238Y-97591523D01*
X151955238Y-97210571D01*
X152002857Y-97115333D01*
X152098095Y-97067714D01*
X152288571Y-97067714D01*
X152383809Y-97115333D01*
X152431428Y-97210571D01*
X152431428Y-97305809D01*
X151955238Y-97401047D01*
X152717142Y-97067714D02*
X153098095Y-97067714D01*
X152860000Y-96734380D02*
X152860000Y-97591523D01*
X152907619Y-97686761D01*
X153002857Y-97734380D01*
X153098095Y-97734380D01*
X153812380Y-97686761D02*
X153717142Y-97734380D01*
X153526666Y-97734380D01*
X153431428Y-97686761D01*
X153383809Y-97591523D01*
X153383809Y-97210571D01*
X153431428Y-97115333D01*
X153526666Y-97067714D01*
X153717142Y-97067714D01*
X153812380Y-97115333D01*
X153859999Y-97210571D01*
X153859999Y-97305809D01*
X153383809Y-97401047D01*
X154288571Y-97734380D02*
X154288571Y-97067714D01*
X154288571Y-97258190D02*
X154336190Y-97162952D01*
X154383809Y-97115333D01*
X154479047Y-97067714D01*
X154574285Y-97067714D01*
X155431428Y-97734380D02*
X154859999Y-97734380D01*
X155145714Y-97734380D02*
X155145714Y-96734380D01*
X155050476Y-96877238D01*
X154955238Y-96972476D01*
X154859999Y-97020095D01*
X148737858Y-77493761D02*
X148880715Y-77541380D01*
X149118810Y-77541380D01*
X149214048Y-77493761D01*
X149261667Y-77446142D01*
X149309286Y-77350904D01*
X149309286Y-77255666D01*
X149261667Y-77160428D01*
X149214048Y-77112809D01*
X149118810Y-77065190D01*
X148928334Y-77017571D01*
X148833096Y-76969952D01*
X148785477Y-76922333D01*
X148737858Y-76827095D01*
X148737858Y-76731857D01*
X148785477Y-76636619D01*
X148833096Y-76589000D01*
X148928334Y-76541380D01*
X149166429Y-76541380D01*
X149309286Y-76589000D01*
X149737858Y-77541380D02*
X149737858Y-76541380D01*
X149975953Y-76541380D01*
X150118810Y-76589000D01*
X150214048Y-76684238D01*
X150261667Y-76779476D01*
X150309286Y-76969952D01*
X150309286Y-77112809D01*
X150261667Y-77303285D01*
X150214048Y-77398523D01*
X150118810Y-77493761D01*
X149975953Y-77541380D01*
X149737858Y-77541380D01*
X150499762Y-77636619D02*
X151261667Y-77636619D01*
X152071191Y-77446142D02*
X152023572Y-77493761D01*
X151880715Y-77541380D01*
X151785477Y-77541380D01*
X151642620Y-77493761D01*
X151547381Y-77398523D01*
X151499762Y-77303285D01*
X151452143Y-77112809D01*
X151452143Y-76969952D01*
X151499762Y-76779476D01*
X151547381Y-76684238D01*
X151642620Y-76589000D01*
X151785477Y-76541380D01*
X151880715Y-76541380D01*
X152023572Y-76589000D01*
X152071191Y-76636619D01*
X152928334Y-77541380D02*
X152928334Y-77017571D01*
X152880715Y-76922333D01*
X152785477Y-76874714D01*
X152595001Y-76874714D01*
X152499762Y-76922333D01*
X152928334Y-77493761D02*
X152833096Y-77541380D01*
X152595001Y-77541380D01*
X152499762Y-77493761D01*
X152452143Y-77398523D01*
X152452143Y-77303285D01*
X152499762Y-77208047D01*
X152595001Y-77160428D01*
X152833096Y-77160428D01*
X152928334Y-77112809D01*
X153404524Y-77541380D02*
X153404524Y-76874714D01*
X153404524Y-77065190D02*
X153452143Y-76969952D01*
X153499762Y-76922333D01*
X153595001Y-76874714D01*
X153690239Y-76874714D01*
X154452143Y-77541380D02*
X154452143Y-76541380D01*
X154452143Y-77493761D02*
X154356905Y-77541380D01*
X154166429Y-77541380D01*
X154071191Y-77493761D01*
X154023572Y-77446142D01*
X153975953Y-77350904D01*
X153975953Y-77065190D01*
X154023572Y-76969952D01*
X154071191Y-76922333D01*
X154166429Y-76874714D01*
X154356905Y-76874714D01*
X154452143Y-76922333D01*
X155452143Y-77541380D02*
X154880715Y-77541380D01*
X155166429Y-77541380D02*
X155166429Y-76541380D01*
X155071191Y-76684238D01*
X154975953Y-76779476D01*
X154880715Y-76827095D01*
X124040000Y-73588571D02*
X124373333Y-73588571D01*
X124516190Y-74112380D02*
X124040000Y-74112380D01*
X124040000Y-73112380D01*
X124516190Y-73112380D01*
X124897142Y-74064761D02*
X125040000Y-74112380D01*
X125278095Y-74112380D01*
X125373333Y-74064761D01*
X125420952Y-74017142D01*
X125468571Y-73921904D01*
X125468571Y-73826666D01*
X125420952Y-73731428D01*
X125373333Y-73683809D01*
X125278095Y-73636190D01*
X125087619Y-73588571D01*
X124992380Y-73540952D01*
X124944761Y-73493333D01*
X124897142Y-73398095D01*
X124897142Y-73302857D01*
X124944761Y-73207619D01*
X124992380Y-73160000D01*
X125087619Y-73112380D01*
X125325714Y-73112380D01*
X125468571Y-73160000D01*
X125897142Y-74112380D02*
X125897142Y-73112380D01*
X126278095Y-73112380D01*
X126373333Y-73160000D01*
X126420952Y-73207619D01*
X126468571Y-73302857D01*
X126468571Y-73445714D01*
X126420952Y-73540952D01*
X126373333Y-73588571D01*
X126278095Y-73636190D01*
X125897142Y-73636190D01*
X126801904Y-73112380D02*
X127420952Y-73112380D01*
X127087619Y-73493333D01*
X127230476Y-73493333D01*
X127325714Y-73540952D01*
X127373333Y-73588571D01*
X127420952Y-73683809D01*
X127420952Y-73921904D01*
X127373333Y-74017142D01*
X127325714Y-74064761D01*
X127230476Y-74112380D01*
X126944761Y-74112380D01*
X126849523Y-74064761D01*
X126801904Y-74017142D01*
X127801904Y-73207619D02*
X127849523Y-73160000D01*
X127944761Y-73112380D01*
X128182857Y-73112380D01*
X128278095Y-73160000D01*
X128325714Y-73207619D01*
X128373333Y-73302857D01*
X128373333Y-73398095D01*
X128325714Y-73540952D01*
X127754285Y-74112380D01*
X128373333Y-74112380D01*
X128563809Y-74207619D02*
X129325714Y-74207619D01*
X129563809Y-74112380D02*
X129563809Y-73112380D01*
X129944761Y-73112380D01*
X130040000Y-73160000D01*
X130087619Y-73207619D01*
X130135238Y-73302857D01*
X130135238Y-73445714D01*
X130087619Y-73540952D01*
X130040000Y-73588571D01*
X129944761Y-73636190D01*
X129563809Y-73636190D01*
X130563809Y-74112380D02*
X130563809Y-73445714D01*
X130563809Y-73112380D02*
X130516190Y-73160000D01*
X130563809Y-73207619D01*
X130611428Y-73160000D01*
X130563809Y-73112380D01*
X130563809Y-73207619D01*
X131468571Y-74064761D02*
X131373333Y-74112380D01*
X131182857Y-74112380D01*
X131087619Y-74064761D01*
X131040000Y-74017142D01*
X130992380Y-73921904D01*
X130992380Y-73636190D01*
X131040000Y-73540952D01*
X131087619Y-73493333D01*
X131182857Y-73445714D01*
X131373333Y-73445714D01*
X131468571Y-73493333D01*
X132040000Y-74112380D02*
X131944761Y-74064761D01*
X131897142Y-74017142D01*
X131849523Y-73921904D01*
X131849523Y-73636190D01*
X131897142Y-73540952D01*
X131944761Y-73493333D01*
X132040000Y-73445714D01*
X132182857Y-73445714D01*
X132278095Y-73493333D01*
X132325714Y-73540952D01*
X132373333Y-73636190D01*
X132373333Y-73921904D01*
X132325714Y-74017142D01*
X132278095Y-74064761D01*
X132182857Y-74112380D01*
X132040000Y-74112380D01*
X132563809Y-74207619D02*
X133325714Y-74207619D01*
X133563809Y-74112380D02*
X133563809Y-73112380D01*
X133801904Y-73112380D01*
X133944761Y-73160000D01*
X134040000Y-73255238D01*
X134087619Y-73350476D01*
X134135238Y-73540952D01*
X134135238Y-73683809D01*
X134087619Y-73874285D01*
X134040000Y-73969523D01*
X133944761Y-74064761D01*
X133801904Y-74112380D01*
X133563809Y-74112380D01*
X134992380Y-73445714D02*
X134992380Y-74112380D01*
X134754285Y-73064761D02*
X134516190Y-73779047D01*
X135135238Y-73779047D01*
M02*
