G04 #@! TF.GenerationSoftware,KiCad,Pcbnew,(5.1.5)-3*
G04 #@! TF.CreationDate,2020-03-21T13:19:14-05:00*
G04 #@! TF.ProjectId,PMT_PCB,504d545f-5043-4422-9e6b-696361645f70,rev?*
G04 #@! TF.SameCoordinates,Original*
G04 #@! TF.FileFunction,Soldermask,Top*
G04 #@! TF.FilePolarity,Negative*
%FSLAX46Y46*%
G04 Gerber Fmt 4.6, Leading zero omitted, Abs format (unit mm)*
G04 Created by KiCad (PCBNEW (5.1.5)-3) date 2020-03-21 13:19:14*
%MOMM*%
%LPD*%
G04 APERTURE LIST*
%ADD10C,0.300000*%
%ADD11C,0.100000*%
G04 APERTURE END LIST*
D10*
X116248571Y-84371428D02*
X114748571Y-84371428D01*
X114748571Y-83800000D01*
X114820000Y-83657142D01*
X114891428Y-83585714D01*
X115034285Y-83514285D01*
X115248571Y-83514285D01*
X115391428Y-83585714D01*
X115462857Y-83657142D01*
X115534285Y-83800000D01*
X115534285Y-84371428D01*
X116248571Y-82871428D02*
X114748571Y-82871428D01*
X115820000Y-82371428D01*
X114748571Y-81871428D01*
X116248571Y-81871428D01*
X114748571Y-81371428D02*
X114748571Y-80514285D01*
X116248571Y-80942857D02*
X114748571Y-80942857D01*
X142791428Y-113621428D02*
X142791428Y-115121428D01*
X142220000Y-115121428D01*
X142077142Y-115050000D01*
X142005714Y-114978571D01*
X141934285Y-114835714D01*
X141934285Y-114621428D01*
X142005714Y-114478571D01*
X142077142Y-114407142D01*
X142220000Y-114335714D01*
X142791428Y-114335714D01*
X141291428Y-113621428D02*
X141291428Y-115121428D01*
X140791428Y-114050000D01*
X140291428Y-115121428D01*
X140291428Y-113621428D01*
X139791428Y-115121428D02*
X138934285Y-115121428D01*
X139362857Y-113621428D02*
X139362857Y-115121428D01*
X165691428Y-81998571D02*
X167191428Y-81998571D01*
X167191428Y-82570000D01*
X167120000Y-82712857D01*
X167048571Y-82784285D01*
X166905714Y-82855714D01*
X166691428Y-82855714D01*
X166548571Y-82784285D01*
X166477142Y-82712857D01*
X166405714Y-82570000D01*
X166405714Y-81998571D01*
X165691428Y-83498571D02*
X167191428Y-83498571D01*
X166120000Y-83998571D01*
X167191428Y-84498571D01*
X165691428Y-84498571D01*
X167191428Y-84998571D02*
X167191428Y-85855714D01*
X165691428Y-85427142D02*
X167191428Y-85427142D01*
X139148571Y-56558571D02*
X139148571Y-55058571D01*
X139720000Y-55058571D01*
X139862857Y-55130000D01*
X139934285Y-55201428D01*
X140005714Y-55344285D01*
X140005714Y-55558571D01*
X139934285Y-55701428D01*
X139862857Y-55772857D01*
X139720000Y-55844285D01*
X139148571Y-55844285D01*
X140648571Y-56558571D02*
X140648571Y-55058571D01*
X141148571Y-56130000D01*
X141648571Y-55058571D01*
X141648571Y-56558571D01*
X142148571Y-55058571D02*
X143005714Y-55058571D01*
X142577142Y-56558571D02*
X142577142Y-55058571D01*
D11*
G36*
X165324549Y-111901116D02*
G01*
X165435734Y-111923232D01*
X165645203Y-112009997D01*
X165833720Y-112135960D01*
X165994040Y-112296280D01*
X166120003Y-112484797D01*
X166206768Y-112694266D01*
X166251000Y-112916636D01*
X166251000Y-113143364D01*
X166206768Y-113365734D01*
X166120003Y-113575203D01*
X165994040Y-113763720D01*
X165833720Y-113924040D01*
X165645203Y-114050003D01*
X165435734Y-114136768D01*
X165324549Y-114158884D01*
X165213365Y-114181000D01*
X164986635Y-114181000D01*
X164875451Y-114158884D01*
X164764266Y-114136768D01*
X164554797Y-114050003D01*
X164366280Y-113924040D01*
X164205960Y-113763720D01*
X164079997Y-113575203D01*
X163993232Y-113365734D01*
X163949000Y-113143364D01*
X163949000Y-112916636D01*
X163993232Y-112694266D01*
X164079997Y-112484797D01*
X164205960Y-112296280D01*
X164366280Y-112135960D01*
X164554797Y-112009997D01*
X164764266Y-111923232D01*
X164875451Y-111901116D01*
X164986635Y-111879000D01*
X165213365Y-111879000D01*
X165324549Y-111901116D01*
G37*
G36*
X117064549Y-111901116D02*
G01*
X117175734Y-111923232D01*
X117385203Y-112009997D01*
X117573720Y-112135960D01*
X117734040Y-112296280D01*
X117860003Y-112484797D01*
X117946768Y-112694266D01*
X117991000Y-112916636D01*
X117991000Y-113143364D01*
X117946768Y-113365734D01*
X117860003Y-113575203D01*
X117734040Y-113763720D01*
X117573720Y-113924040D01*
X117385203Y-114050003D01*
X117175734Y-114136768D01*
X117064549Y-114158884D01*
X116953365Y-114181000D01*
X116726635Y-114181000D01*
X116615451Y-114158884D01*
X116504266Y-114136768D01*
X116294797Y-114050003D01*
X116106280Y-113924040D01*
X115945960Y-113763720D01*
X115819997Y-113575203D01*
X115733232Y-113365734D01*
X115689000Y-113143364D01*
X115689000Y-112916636D01*
X115733232Y-112694266D01*
X115819997Y-112484797D01*
X115945960Y-112296280D01*
X116106280Y-112135960D01*
X116294797Y-112009997D01*
X116504266Y-111923232D01*
X116615451Y-111901116D01*
X116726635Y-111879000D01*
X116953365Y-111879000D01*
X117064549Y-111901116D01*
G37*
G36*
X148703512Y-110355927D02*
G01*
X148852812Y-110385624D01*
X149016784Y-110453544D01*
X149164354Y-110552147D01*
X149289853Y-110677646D01*
X149388456Y-110825216D01*
X149456376Y-110989188D01*
X149491000Y-111163259D01*
X149491000Y-111340741D01*
X149456376Y-111514812D01*
X149388456Y-111678784D01*
X149289853Y-111826354D01*
X149164354Y-111951853D01*
X149016784Y-112050456D01*
X148852812Y-112118376D01*
X148703512Y-112148073D01*
X148678742Y-112153000D01*
X148501258Y-112153000D01*
X148476488Y-112148073D01*
X148327188Y-112118376D01*
X148163216Y-112050456D01*
X148015646Y-111951853D01*
X147890147Y-111826354D01*
X147791544Y-111678784D01*
X147723624Y-111514812D01*
X147689000Y-111340741D01*
X147689000Y-111163259D01*
X147723624Y-110989188D01*
X147791544Y-110825216D01*
X147890147Y-110677646D01*
X148015646Y-110552147D01*
X148163216Y-110453544D01*
X148327188Y-110385624D01*
X148476488Y-110355927D01*
X148501258Y-110351000D01*
X148678742Y-110351000D01*
X148703512Y-110355927D01*
G37*
G36*
X146951000Y-112153000D02*
G01*
X145149000Y-112153000D01*
X145149000Y-110351000D01*
X146951000Y-110351000D01*
X146951000Y-112153000D01*
G37*
G36*
X154971000Y-110521000D02*
G01*
X152369000Y-110521000D01*
X152369000Y-107919000D01*
X154971000Y-107919000D01*
X154971000Y-110521000D01*
G37*
G36*
X159129487Y-107968996D02*
G01*
X159366253Y-108067068D01*
X159366255Y-108067069D01*
X159579339Y-108209447D01*
X159760553Y-108390661D01*
X159847073Y-108520147D01*
X159902932Y-108603747D01*
X160001004Y-108840513D01*
X160051000Y-109091861D01*
X160051000Y-109348139D01*
X160001004Y-109599487D01*
X159920287Y-109794354D01*
X159902931Y-109836255D01*
X159760553Y-110049339D01*
X159579339Y-110230553D01*
X159366255Y-110372931D01*
X159366254Y-110372932D01*
X159366253Y-110372932D01*
X159129487Y-110471004D01*
X158878139Y-110521000D01*
X158621861Y-110521000D01*
X158370513Y-110471004D01*
X158133747Y-110372932D01*
X158133746Y-110372932D01*
X158133745Y-110372931D01*
X157920661Y-110230553D01*
X157739447Y-110049339D01*
X157597069Y-109836255D01*
X157579713Y-109794354D01*
X157498996Y-109599487D01*
X157449000Y-109348139D01*
X157449000Y-109091861D01*
X157498996Y-108840513D01*
X157597068Y-108603747D01*
X157652928Y-108520147D01*
X157739447Y-108390661D01*
X157920661Y-108209447D01*
X158133745Y-108067069D01*
X158133747Y-108067068D01*
X158370513Y-107968996D01*
X158621861Y-107919000D01*
X158878139Y-107919000D01*
X159129487Y-107968996D01*
G37*
G36*
X120763512Y-108323927D02*
G01*
X120912812Y-108353624D01*
X121076784Y-108421544D01*
X121224354Y-108520147D01*
X121349853Y-108645646D01*
X121448456Y-108793216D01*
X121516376Y-108957188D01*
X121551000Y-109131259D01*
X121551000Y-109308741D01*
X121516376Y-109482812D01*
X121448456Y-109646784D01*
X121349853Y-109794354D01*
X121224354Y-109919853D01*
X121076784Y-110018456D01*
X120912812Y-110086376D01*
X120763512Y-110116073D01*
X120738742Y-110121000D01*
X120561258Y-110121000D01*
X120536488Y-110116073D01*
X120387188Y-110086376D01*
X120223216Y-110018456D01*
X120075646Y-109919853D01*
X119950147Y-109794354D01*
X119851544Y-109646784D01*
X119783624Y-109482812D01*
X119749000Y-109308741D01*
X119749000Y-109131259D01*
X119783624Y-108957188D01*
X119851544Y-108793216D01*
X119950147Y-108645646D01*
X120075646Y-108520147D01*
X120223216Y-108421544D01*
X120387188Y-108353624D01*
X120536488Y-108323927D01*
X120561258Y-108319000D01*
X120738742Y-108319000D01*
X120763512Y-108323927D01*
G37*
G36*
X138543512Y-108323927D02*
G01*
X138692812Y-108353624D01*
X138856784Y-108421544D01*
X139004354Y-108520147D01*
X139129853Y-108645646D01*
X139228456Y-108793216D01*
X139296376Y-108957188D01*
X139331000Y-109131259D01*
X139331000Y-109308741D01*
X139296376Y-109482812D01*
X139228456Y-109646784D01*
X139129853Y-109794354D01*
X139004354Y-109919853D01*
X138856784Y-110018456D01*
X138692812Y-110086376D01*
X138543512Y-110116073D01*
X138518742Y-110121000D01*
X138341258Y-110121000D01*
X138316488Y-110116073D01*
X138167188Y-110086376D01*
X138003216Y-110018456D01*
X137855646Y-109919853D01*
X137730147Y-109794354D01*
X137631544Y-109646784D01*
X137563624Y-109482812D01*
X137529000Y-109308741D01*
X137529000Y-109131259D01*
X137563624Y-108957188D01*
X137631544Y-108793216D01*
X137730147Y-108645646D01*
X137855646Y-108520147D01*
X138003216Y-108421544D01*
X138167188Y-108353624D01*
X138316488Y-108323927D01*
X138341258Y-108319000D01*
X138518742Y-108319000D01*
X138543512Y-108323927D01*
G37*
G36*
X120763512Y-105783927D02*
G01*
X120912812Y-105813624D01*
X121076784Y-105881544D01*
X121224354Y-105980147D01*
X121349853Y-106105646D01*
X121448456Y-106253216D01*
X121516376Y-106417188D01*
X121551000Y-106591259D01*
X121551000Y-106768741D01*
X121516376Y-106942812D01*
X121448456Y-107106784D01*
X121349853Y-107254354D01*
X121224354Y-107379853D01*
X121076784Y-107478456D01*
X120912812Y-107546376D01*
X120763512Y-107576073D01*
X120738742Y-107581000D01*
X120561258Y-107581000D01*
X120536488Y-107576073D01*
X120387188Y-107546376D01*
X120223216Y-107478456D01*
X120075646Y-107379853D01*
X119950147Y-107254354D01*
X119851544Y-107106784D01*
X119783624Y-106942812D01*
X119749000Y-106768741D01*
X119749000Y-106591259D01*
X119783624Y-106417188D01*
X119851544Y-106253216D01*
X119950147Y-106105646D01*
X120075646Y-105980147D01*
X120223216Y-105881544D01*
X120387188Y-105813624D01*
X120536488Y-105783927D01*
X120561258Y-105779000D01*
X120738742Y-105779000D01*
X120763512Y-105783927D01*
G37*
G36*
X138543512Y-105783927D02*
G01*
X138692812Y-105813624D01*
X138856784Y-105881544D01*
X139004354Y-105980147D01*
X139129853Y-106105646D01*
X139228456Y-106253216D01*
X139296376Y-106417188D01*
X139331000Y-106591259D01*
X139331000Y-106768741D01*
X139296376Y-106942812D01*
X139228456Y-107106784D01*
X139129853Y-107254354D01*
X139004354Y-107379853D01*
X138856784Y-107478456D01*
X138692812Y-107546376D01*
X138543512Y-107576073D01*
X138518742Y-107581000D01*
X138341258Y-107581000D01*
X138316488Y-107576073D01*
X138167188Y-107546376D01*
X138003216Y-107478456D01*
X137855646Y-107379853D01*
X137730147Y-107254354D01*
X137631544Y-107106784D01*
X137563624Y-106942812D01*
X137529000Y-106768741D01*
X137529000Y-106591259D01*
X137563624Y-106417188D01*
X137631544Y-106253216D01*
X137730147Y-106105646D01*
X137855646Y-105980147D01*
X138003216Y-105881544D01*
X138167188Y-105813624D01*
X138316488Y-105783927D01*
X138341258Y-105779000D01*
X138518742Y-105779000D01*
X138543512Y-105783927D01*
G37*
G36*
X120763512Y-103243927D02*
G01*
X120912812Y-103273624D01*
X121076784Y-103341544D01*
X121224354Y-103440147D01*
X121349853Y-103565646D01*
X121448456Y-103713216D01*
X121516376Y-103877188D01*
X121551000Y-104051259D01*
X121551000Y-104228741D01*
X121516376Y-104402812D01*
X121448456Y-104566784D01*
X121349853Y-104714354D01*
X121224354Y-104839853D01*
X121076784Y-104938456D01*
X120912812Y-105006376D01*
X120763512Y-105036073D01*
X120738742Y-105041000D01*
X120561258Y-105041000D01*
X120536488Y-105036073D01*
X120387188Y-105006376D01*
X120223216Y-104938456D01*
X120075646Y-104839853D01*
X119950147Y-104714354D01*
X119851544Y-104566784D01*
X119783624Y-104402812D01*
X119749000Y-104228741D01*
X119749000Y-104051259D01*
X119783624Y-103877188D01*
X119851544Y-103713216D01*
X119950147Y-103565646D01*
X120075646Y-103440147D01*
X120223216Y-103341544D01*
X120387188Y-103273624D01*
X120536488Y-103243927D01*
X120561258Y-103239000D01*
X120738742Y-103239000D01*
X120763512Y-103243927D01*
G37*
G36*
X138543512Y-103243927D02*
G01*
X138692812Y-103273624D01*
X138856784Y-103341544D01*
X139004354Y-103440147D01*
X139129853Y-103565646D01*
X139228456Y-103713216D01*
X139296376Y-103877188D01*
X139331000Y-104051259D01*
X139331000Y-104228741D01*
X139296376Y-104402812D01*
X139228456Y-104566784D01*
X139129853Y-104714354D01*
X139004354Y-104839853D01*
X138856784Y-104938456D01*
X138692812Y-105006376D01*
X138543512Y-105036073D01*
X138518742Y-105041000D01*
X138341258Y-105041000D01*
X138316488Y-105036073D01*
X138167188Y-105006376D01*
X138003216Y-104938456D01*
X137855646Y-104839853D01*
X137730147Y-104714354D01*
X137631544Y-104566784D01*
X137563624Y-104402812D01*
X137529000Y-104228741D01*
X137529000Y-104051259D01*
X137563624Y-103877188D01*
X137631544Y-103713216D01*
X137730147Y-103565646D01*
X137855646Y-103440147D01*
X138003216Y-103341544D01*
X138167188Y-103273624D01*
X138316488Y-103243927D01*
X138341258Y-103239000D01*
X138518742Y-103239000D01*
X138543512Y-103243927D01*
G37*
G36*
X138543512Y-100703927D02*
G01*
X138692812Y-100733624D01*
X138856784Y-100801544D01*
X139004354Y-100900147D01*
X139129853Y-101025646D01*
X139228456Y-101173216D01*
X139296376Y-101337188D01*
X139331000Y-101511259D01*
X139331000Y-101688741D01*
X139296376Y-101862812D01*
X139228456Y-102026784D01*
X139129853Y-102174354D01*
X139004354Y-102299853D01*
X138856784Y-102398456D01*
X138692812Y-102466376D01*
X138543512Y-102496073D01*
X138518742Y-102501000D01*
X138341258Y-102501000D01*
X138316488Y-102496073D01*
X138167188Y-102466376D01*
X138003216Y-102398456D01*
X137855646Y-102299853D01*
X137730147Y-102174354D01*
X137631544Y-102026784D01*
X137563624Y-101862812D01*
X137529000Y-101688741D01*
X137529000Y-101511259D01*
X137563624Y-101337188D01*
X137631544Y-101173216D01*
X137730147Y-101025646D01*
X137855646Y-100900147D01*
X138003216Y-100801544D01*
X138167188Y-100733624D01*
X138316488Y-100703927D01*
X138341258Y-100699000D01*
X138518742Y-100699000D01*
X138543512Y-100703927D01*
G37*
G36*
X120763512Y-100703927D02*
G01*
X120912812Y-100733624D01*
X121076784Y-100801544D01*
X121224354Y-100900147D01*
X121349853Y-101025646D01*
X121448456Y-101173216D01*
X121516376Y-101337188D01*
X121551000Y-101511259D01*
X121551000Y-101688741D01*
X121516376Y-101862812D01*
X121448456Y-102026784D01*
X121349853Y-102174354D01*
X121224354Y-102299853D01*
X121076784Y-102398456D01*
X120912812Y-102466376D01*
X120763512Y-102496073D01*
X120738742Y-102501000D01*
X120561258Y-102501000D01*
X120536488Y-102496073D01*
X120387188Y-102466376D01*
X120223216Y-102398456D01*
X120075646Y-102299853D01*
X119950147Y-102174354D01*
X119851544Y-102026784D01*
X119783624Y-101862812D01*
X119749000Y-101688741D01*
X119749000Y-101511259D01*
X119783624Y-101337188D01*
X119851544Y-101173216D01*
X119950147Y-101025646D01*
X120075646Y-100900147D01*
X120223216Y-100801544D01*
X120387188Y-100733624D01*
X120536488Y-100703927D01*
X120561258Y-100699000D01*
X120738742Y-100699000D01*
X120763512Y-100703927D01*
G37*
G36*
X162191000Y-100723000D02*
G01*
X160389000Y-100723000D01*
X160389000Y-98921000D01*
X162191000Y-98921000D01*
X162191000Y-100723000D01*
G37*
G36*
X120763512Y-98163927D02*
G01*
X120912812Y-98193624D01*
X121076784Y-98261544D01*
X121224354Y-98360147D01*
X121349853Y-98485646D01*
X121448456Y-98633216D01*
X121516376Y-98797188D01*
X121551000Y-98971259D01*
X121551000Y-99148741D01*
X121516376Y-99322812D01*
X121448456Y-99486784D01*
X121349853Y-99634354D01*
X121224354Y-99759853D01*
X121076784Y-99858456D01*
X120912812Y-99926376D01*
X120763512Y-99956073D01*
X120738742Y-99961000D01*
X120561258Y-99961000D01*
X120536488Y-99956073D01*
X120387188Y-99926376D01*
X120223216Y-99858456D01*
X120075646Y-99759853D01*
X119950147Y-99634354D01*
X119851544Y-99486784D01*
X119783624Y-99322812D01*
X119749000Y-99148741D01*
X119749000Y-98971259D01*
X119783624Y-98797188D01*
X119851544Y-98633216D01*
X119950147Y-98485646D01*
X120075646Y-98360147D01*
X120223216Y-98261544D01*
X120387188Y-98193624D01*
X120536488Y-98163927D01*
X120561258Y-98159000D01*
X120738742Y-98159000D01*
X120763512Y-98163927D01*
G37*
G36*
X138543512Y-98163927D02*
G01*
X138692812Y-98193624D01*
X138856784Y-98261544D01*
X139004354Y-98360147D01*
X139129853Y-98485646D01*
X139228456Y-98633216D01*
X139296376Y-98797188D01*
X139331000Y-98971259D01*
X139331000Y-99148741D01*
X139296376Y-99322812D01*
X139228456Y-99486784D01*
X139129853Y-99634354D01*
X139004354Y-99759853D01*
X138856784Y-99858456D01*
X138692812Y-99926376D01*
X138543512Y-99956073D01*
X138518742Y-99961000D01*
X138341258Y-99961000D01*
X138316488Y-99956073D01*
X138167188Y-99926376D01*
X138003216Y-99858456D01*
X137855646Y-99759853D01*
X137730147Y-99634354D01*
X137631544Y-99486784D01*
X137563624Y-99322812D01*
X137529000Y-99148741D01*
X137529000Y-98971259D01*
X137563624Y-98797188D01*
X137631544Y-98633216D01*
X137730147Y-98485646D01*
X137855646Y-98360147D01*
X138003216Y-98261544D01*
X138167188Y-98193624D01*
X138316488Y-98163927D01*
X138341258Y-98159000D01*
X138518742Y-98159000D01*
X138543512Y-98163927D01*
G37*
G36*
X161403512Y-96385927D02*
G01*
X161552812Y-96415624D01*
X161716784Y-96483544D01*
X161864354Y-96582147D01*
X161989853Y-96707646D01*
X162088456Y-96855216D01*
X162156376Y-97019188D01*
X162191000Y-97193259D01*
X162191000Y-97370741D01*
X162156376Y-97544812D01*
X162088456Y-97708784D01*
X161989853Y-97856354D01*
X161864354Y-97981853D01*
X161716784Y-98080456D01*
X161552812Y-98148376D01*
X161403512Y-98178073D01*
X161378742Y-98183000D01*
X161201258Y-98183000D01*
X161176488Y-98178073D01*
X161027188Y-98148376D01*
X160863216Y-98080456D01*
X160715646Y-97981853D01*
X160590147Y-97856354D01*
X160491544Y-97708784D01*
X160423624Y-97544812D01*
X160389000Y-97370741D01*
X160389000Y-97193259D01*
X160423624Y-97019188D01*
X160491544Y-96855216D01*
X160590147Y-96707646D01*
X160715646Y-96582147D01*
X160863216Y-96483544D01*
X161027188Y-96415624D01*
X161176488Y-96385927D01*
X161201258Y-96381000D01*
X161378742Y-96381000D01*
X161403512Y-96385927D01*
G37*
G36*
X120763512Y-95623927D02*
G01*
X120912812Y-95653624D01*
X121076784Y-95721544D01*
X121224354Y-95820147D01*
X121349853Y-95945646D01*
X121448456Y-96093216D01*
X121516376Y-96257188D01*
X121551000Y-96431259D01*
X121551000Y-96608741D01*
X121516376Y-96782812D01*
X121448456Y-96946784D01*
X121349853Y-97094354D01*
X121224354Y-97219853D01*
X121076784Y-97318456D01*
X120912812Y-97386376D01*
X120763512Y-97416073D01*
X120738742Y-97421000D01*
X120561258Y-97421000D01*
X120536488Y-97416073D01*
X120387188Y-97386376D01*
X120223216Y-97318456D01*
X120075646Y-97219853D01*
X119950147Y-97094354D01*
X119851544Y-96946784D01*
X119783624Y-96782812D01*
X119749000Y-96608741D01*
X119749000Y-96431259D01*
X119783624Y-96257188D01*
X119851544Y-96093216D01*
X119950147Y-95945646D01*
X120075646Y-95820147D01*
X120223216Y-95721544D01*
X120387188Y-95653624D01*
X120536488Y-95623927D01*
X120561258Y-95619000D01*
X120738742Y-95619000D01*
X120763512Y-95623927D01*
G37*
G36*
X138543512Y-95623927D02*
G01*
X138692812Y-95653624D01*
X138856784Y-95721544D01*
X139004354Y-95820147D01*
X139129853Y-95945646D01*
X139228456Y-96093216D01*
X139296376Y-96257188D01*
X139331000Y-96431259D01*
X139331000Y-96608741D01*
X139296376Y-96782812D01*
X139228456Y-96946784D01*
X139129853Y-97094354D01*
X139004354Y-97219853D01*
X138856784Y-97318456D01*
X138692812Y-97386376D01*
X138543512Y-97416073D01*
X138518742Y-97421000D01*
X138341258Y-97421000D01*
X138316488Y-97416073D01*
X138167188Y-97386376D01*
X138003216Y-97318456D01*
X137855646Y-97219853D01*
X137730147Y-97094354D01*
X137631544Y-96946784D01*
X137563624Y-96782812D01*
X137529000Y-96608741D01*
X137529000Y-96431259D01*
X137563624Y-96257188D01*
X137631544Y-96093216D01*
X137730147Y-95945646D01*
X137855646Y-95820147D01*
X138003216Y-95721544D01*
X138167188Y-95653624D01*
X138316488Y-95623927D01*
X138341258Y-95619000D01*
X138518742Y-95619000D01*
X138543512Y-95623927D01*
G37*
G36*
X161403512Y-93845927D02*
G01*
X161552812Y-93875624D01*
X161716784Y-93943544D01*
X161864354Y-94042147D01*
X161989853Y-94167646D01*
X162088456Y-94315216D01*
X162156376Y-94479188D01*
X162191000Y-94653259D01*
X162191000Y-94830741D01*
X162156376Y-95004812D01*
X162088456Y-95168784D01*
X161989853Y-95316354D01*
X161864354Y-95441853D01*
X161716784Y-95540456D01*
X161552812Y-95608376D01*
X161403512Y-95638073D01*
X161378742Y-95643000D01*
X161201258Y-95643000D01*
X161176488Y-95638073D01*
X161027188Y-95608376D01*
X160863216Y-95540456D01*
X160715646Y-95441853D01*
X160590147Y-95316354D01*
X160491544Y-95168784D01*
X160423624Y-95004812D01*
X160389000Y-94830741D01*
X160389000Y-94653259D01*
X160423624Y-94479188D01*
X160491544Y-94315216D01*
X160590147Y-94167646D01*
X160715646Y-94042147D01*
X160863216Y-93943544D01*
X161027188Y-93875624D01*
X161176488Y-93845927D01*
X161201258Y-93841000D01*
X161378742Y-93841000D01*
X161403512Y-93845927D01*
G37*
G36*
X138543512Y-93083927D02*
G01*
X138692812Y-93113624D01*
X138856784Y-93181544D01*
X139004354Y-93280147D01*
X139129853Y-93405646D01*
X139228456Y-93553216D01*
X139296376Y-93717188D01*
X139331000Y-93891259D01*
X139331000Y-94068741D01*
X139296376Y-94242812D01*
X139228456Y-94406784D01*
X139129853Y-94554354D01*
X139004354Y-94679853D01*
X138856784Y-94778456D01*
X138692812Y-94846376D01*
X138543512Y-94876073D01*
X138518742Y-94881000D01*
X138341258Y-94881000D01*
X138316488Y-94876073D01*
X138167188Y-94846376D01*
X138003216Y-94778456D01*
X137855646Y-94679853D01*
X137730147Y-94554354D01*
X137631544Y-94406784D01*
X137563624Y-94242812D01*
X137529000Y-94068741D01*
X137529000Y-93891259D01*
X137563624Y-93717188D01*
X137631544Y-93553216D01*
X137730147Y-93405646D01*
X137855646Y-93280147D01*
X138003216Y-93181544D01*
X138167188Y-93113624D01*
X138316488Y-93083927D01*
X138341258Y-93079000D01*
X138518742Y-93079000D01*
X138543512Y-93083927D01*
G37*
G36*
X120763512Y-93083927D02*
G01*
X120912812Y-93113624D01*
X121076784Y-93181544D01*
X121224354Y-93280147D01*
X121349853Y-93405646D01*
X121448456Y-93553216D01*
X121516376Y-93717188D01*
X121551000Y-93891259D01*
X121551000Y-94068741D01*
X121516376Y-94242812D01*
X121448456Y-94406784D01*
X121349853Y-94554354D01*
X121224354Y-94679853D01*
X121076784Y-94778456D01*
X120912812Y-94846376D01*
X120763512Y-94876073D01*
X120738742Y-94881000D01*
X120561258Y-94881000D01*
X120536488Y-94876073D01*
X120387188Y-94846376D01*
X120223216Y-94778456D01*
X120075646Y-94679853D01*
X119950147Y-94554354D01*
X119851544Y-94406784D01*
X119783624Y-94242812D01*
X119749000Y-94068741D01*
X119749000Y-93891259D01*
X119783624Y-93717188D01*
X119851544Y-93553216D01*
X119950147Y-93405646D01*
X120075646Y-93280147D01*
X120223216Y-93181544D01*
X120387188Y-93113624D01*
X120536488Y-93083927D01*
X120561258Y-93079000D01*
X120738742Y-93079000D01*
X120763512Y-93083927D01*
G37*
G36*
X161403512Y-91305927D02*
G01*
X161552812Y-91335624D01*
X161716784Y-91403544D01*
X161864354Y-91502147D01*
X161989853Y-91627646D01*
X162088456Y-91775216D01*
X162156376Y-91939188D01*
X162191000Y-92113259D01*
X162191000Y-92290741D01*
X162156376Y-92464812D01*
X162088456Y-92628784D01*
X161989853Y-92776354D01*
X161864354Y-92901853D01*
X161716784Y-93000456D01*
X161552812Y-93068376D01*
X161403512Y-93098073D01*
X161378742Y-93103000D01*
X161201258Y-93103000D01*
X161176488Y-93098073D01*
X161027188Y-93068376D01*
X160863216Y-93000456D01*
X160715646Y-92901853D01*
X160590147Y-92776354D01*
X160491544Y-92628784D01*
X160423624Y-92464812D01*
X160389000Y-92290741D01*
X160389000Y-92113259D01*
X160423624Y-91939188D01*
X160491544Y-91775216D01*
X160590147Y-91627646D01*
X160715646Y-91502147D01*
X160863216Y-91403544D01*
X161027188Y-91335624D01*
X161176488Y-91305927D01*
X161201258Y-91301000D01*
X161378742Y-91301000D01*
X161403512Y-91305927D01*
G37*
G36*
X120763512Y-90543927D02*
G01*
X120912812Y-90573624D01*
X121076784Y-90641544D01*
X121224354Y-90740147D01*
X121349853Y-90865646D01*
X121448456Y-91013216D01*
X121516376Y-91177188D01*
X121551000Y-91351259D01*
X121551000Y-91528741D01*
X121516376Y-91702812D01*
X121448456Y-91866784D01*
X121349853Y-92014354D01*
X121224354Y-92139853D01*
X121076784Y-92238456D01*
X120912812Y-92306376D01*
X120763512Y-92336073D01*
X120738742Y-92341000D01*
X120561258Y-92341000D01*
X120536488Y-92336073D01*
X120387188Y-92306376D01*
X120223216Y-92238456D01*
X120075646Y-92139853D01*
X119950147Y-92014354D01*
X119851544Y-91866784D01*
X119783624Y-91702812D01*
X119749000Y-91528741D01*
X119749000Y-91351259D01*
X119783624Y-91177188D01*
X119851544Y-91013216D01*
X119950147Y-90865646D01*
X120075646Y-90740147D01*
X120223216Y-90641544D01*
X120387188Y-90573624D01*
X120536488Y-90543927D01*
X120561258Y-90539000D01*
X120738742Y-90539000D01*
X120763512Y-90543927D01*
G37*
G36*
X138543512Y-90543927D02*
G01*
X138692812Y-90573624D01*
X138856784Y-90641544D01*
X139004354Y-90740147D01*
X139129853Y-90865646D01*
X139228456Y-91013216D01*
X139296376Y-91177188D01*
X139331000Y-91351259D01*
X139331000Y-91528741D01*
X139296376Y-91702812D01*
X139228456Y-91866784D01*
X139129853Y-92014354D01*
X139004354Y-92139853D01*
X138856784Y-92238456D01*
X138692812Y-92306376D01*
X138543512Y-92336073D01*
X138518742Y-92341000D01*
X138341258Y-92341000D01*
X138316488Y-92336073D01*
X138167188Y-92306376D01*
X138003216Y-92238456D01*
X137855646Y-92139853D01*
X137730147Y-92014354D01*
X137631544Y-91866784D01*
X137563624Y-91702812D01*
X137529000Y-91528741D01*
X137529000Y-91351259D01*
X137563624Y-91177188D01*
X137631544Y-91013216D01*
X137730147Y-90865646D01*
X137855646Y-90740147D01*
X138003216Y-90641544D01*
X138167188Y-90573624D01*
X138316488Y-90543927D01*
X138341258Y-90539000D01*
X138518742Y-90539000D01*
X138543512Y-90543927D01*
G37*
G36*
X161403512Y-88765927D02*
G01*
X161552812Y-88795624D01*
X161716784Y-88863544D01*
X161864354Y-88962147D01*
X161989853Y-89087646D01*
X162088456Y-89235216D01*
X162156376Y-89399188D01*
X162191000Y-89573259D01*
X162191000Y-89750741D01*
X162156376Y-89924812D01*
X162088456Y-90088784D01*
X161989853Y-90236354D01*
X161864354Y-90361853D01*
X161716784Y-90460456D01*
X161552812Y-90528376D01*
X161403512Y-90558073D01*
X161378742Y-90563000D01*
X161201258Y-90563000D01*
X161176488Y-90558073D01*
X161027188Y-90528376D01*
X160863216Y-90460456D01*
X160715646Y-90361853D01*
X160590147Y-90236354D01*
X160491544Y-90088784D01*
X160423624Y-89924812D01*
X160389000Y-89750741D01*
X160389000Y-89573259D01*
X160423624Y-89399188D01*
X160491544Y-89235216D01*
X160590147Y-89087646D01*
X160715646Y-88962147D01*
X160863216Y-88863544D01*
X161027188Y-88795624D01*
X161176488Y-88765927D01*
X161201258Y-88761000D01*
X161378742Y-88761000D01*
X161403512Y-88765927D01*
G37*
G36*
X120763512Y-88003927D02*
G01*
X120912812Y-88033624D01*
X121076784Y-88101544D01*
X121224354Y-88200147D01*
X121349853Y-88325646D01*
X121448456Y-88473216D01*
X121516376Y-88637188D01*
X121551000Y-88811259D01*
X121551000Y-88988741D01*
X121516376Y-89162812D01*
X121448456Y-89326784D01*
X121349853Y-89474354D01*
X121224354Y-89599853D01*
X121076784Y-89698456D01*
X120912812Y-89766376D01*
X120763512Y-89796073D01*
X120738742Y-89801000D01*
X120561258Y-89801000D01*
X120536488Y-89796073D01*
X120387188Y-89766376D01*
X120223216Y-89698456D01*
X120075646Y-89599853D01*
X119950147Y-89474354D01*
X119851544Y-89326784D01*
X119783624Y-89162812D01*
X119749000Y-88988741D01*
X119749000Y-88811259D01*
X119783624Y-88637188D01*
X119851544Y-88473216D01*
X119950147Y-88325646D01*
X120075646Y-88200147D01*
X120223216Y-88101544D01*
X120387188Y-88033624D01*
X120536488Y-88003927D01*
X120561258Y-87999000D01*
X120738742Y-87999000D01*
X120763512Y-88003927D01*
G37*
G36*
X138543512Y-88003927D02*
G01*
X138692812Y-88033624D01*
X138856784Y-88101544D01*
X139004354Y-88200147D01*
X139129853Y-88325646D01*
X139228456Y-88473216D01*
X139296376Y-88637188D01*
X139331000Y-88811259D01*
X139331000Y-88988741D01*
X139296376Y-89162812D01*
X139228456Y-89326784D01*
X139129853Y-89474354D01*
X139004354Y-89599853D01*
X138856784Y-89698456D01*
X138692812Y-89766376D01*
X138543512Y-89796073D01*
X138518742Y-89801000D01*
X138341258Y-89801000D01*
X138316488Y-89796073D01*
X138167188Y-89766376D01*
X138003216Y-89698456D01*
X137855646Y-89599853D01*
X137730147Y-89474354D01*
X137631544Y-89326784D01*
X137563624Y-89162812D01*
X137529000Y-88988741D01*
X137529000Y-88811259D01*
X137563624Y-88637188D01*
X137631544Y-88473216D01*
X137730147Y-88325646D01*
X137855646Y-88200147D01*
X138003216Y-88101544D01*
X138167188Y-88033624D01*
X138316488Y-88003927D01*
X138341258Y-87999000D01*
X138518742Y-87999000D01*
X138543512Y-88003927D01*
G37*
G36*
X161403512Y-86225927D02*
G01*
X161552812Y-86255624D01*
X161716784Y-86323544D01*
X161864354Y-86422147D01*
X161989853Y-86547646D01*
X162088456Y-86695216D01*
X162156376Y-86859188D01*
X162191000Y-87033259D01*
X162191000Y-87210741D01*
X162156376Y-87384812D01*
X162088456Y-87548784D01*
X161989853Y-87696354D01*
X161864354Y-87821853D01*
X161716784Y-87920456D01*
X161552812Y-87988376D01*
X161403512Y-88018073D01*
X161378742Y-88023000D01*
X161201258Y-88023000D01*
X161176488Y-88018073D01*
X161027188Y-87988376D01*
X160863216Y-87920456D01*
X160715646Y-87821853D01*
X160590147Y-87696354D01*
X160491544Y-87548784D01*
X160423624Y-87384812D01*
X160389000Y-87210741D01*
X160389000Y-87033259D01*
X160423624Y-86859188D01*
X160491544Y-86695216D01*
X160590147Y-86547646D01*
X160715646Y-86422147D01*
X160863216Y-86323544D01*
X161027188Y-86255624D01*
X161176488Y-86225927D01*
X161201258Y-86221000D01*
X161378742Y-86221000D01*
X161403512Y-86225927D01*
G37*
G36*
X120763512Y-85463927D02*
G01*
X120912812Y-85493624D01*
X121076784Y-85561544D01*
X121224354Y-85660147D01*
X121349853Y-85785646D01*
X121448456Y-85933216D01*
X121516376Y-86097188D01*
X121551000Y-86271259D01*
X121551000Y-86448741D01*
X121516376Y-86622812D01*
X121448456Y-86786784D01*
X121349853Y-86934354D01*
X121224354Y-87059853D01*
X121076784Y-87158456D01*
X120912812Y-87226376D01*
X120763512Y-87256073D01*
X120738742Y-87261000D01*
X120561258Y-87261000D01*
X120536488Y-87256073D01*
X120387188Y-87226376D01*
X120223216Y-87158456D01*
X120075646Y-87059853D01*
X119950147Y-86934354D01*
X119851544Y-86786784D01*
X119783624Y-86622812D01*
X119749000Y-86448741D01*
X119749000Y-86271259D01*
X119783624Y-86097188D01*
X119851544Y-85933216D01*
X119950147Y-85785646D01*
X120075646Y-85660147D01*
X120223216Y-85561544D01*
X120387188Y-85493624D01*
X120536488Y-85463927D01*
X120561258Y-85459000D01*
X120738742Y-85459000D01*
X120763512Y-85463927D01*
G37*
G36*
X138543512Y-85463927D02*
G01*
X138692812Y-85493624D01*
X138856784Y-85561544D01*
X139004354Y-85660147D01*
X139129853Y-85785646D01*
X139228456Y-85933216D01*
X139296376Y-86097188D01*
X139331000Y-86271259D01*
X139331000Y-86448741D01*
X139296376Y-86622812D01*
X139228456Y-86786784D01*
X139129853Y-86934354D01*
X139004354Y-87059853D01*
X138856784Y-87158456D01*
X138692812Y-87226376D01*
X138543512Y-87256073D01*
X138518742Y-87261000D01*
X138341258Y-87261000D01*
X138316488Y-87256073D01*
X138167188Y-87226376D01*
X138003216Y-87158456D01*
X137855646Y-87059853D01*
X137730147Y-86934354D01*
X137631544Y-86786784D01*
X137563624Y-86622812D01*
X137529000Y-86448741D01*
X137529000Y-86271259D01*
X137563624Y-86097188D01*
X137631544Y-85933216D01*
X137730147Y-85785646D01*
X137855646Y-85660147D01*
X138003216Y-85561544D01*
X138167188Y-85493624D01*
X138316488Y-85463927D01*
X138341258Y-85459000D01*
X138518742Y-85459000D01*
X138543512Y-85463927D01*
G37*
G36*
X161403512Y-83685927D02*
G01*
X161552812Y-83715624D01*
X161716784Y-83783544D01*
X161864354Y-83882147D01*
X161989853Y-84007646D01*
X162088456Y-84155216D01*
X162156376Y-84319188D01*
X162191000Y-84493259D01*
X162191000Y-84670741D01*
X162156376Y-84844812D01*
X162088456Y-85008784D01*
X161989853Y-85156354D01*
X161864354Y-85281853D01*
X161716784Y-85380456D01*
X161552812Y-85448376D01*
X161403512Y-85478073D01*
X161378742Y-85483000D01*
X161201258Y-85483000D01*
X161176488Y-85478073D01*
X161027188Y-85448376D01*
X160863216Y-85380456D01*
X160715646Y-85281853D01*
X160590147Y-85156354D01*
X160491544Y-85008784D01*
X160423624Y-84844812D01*
X160389000Y-84670741D01*
X160389000Y-84493259D01*
X160423624Y-84319188D01*
X160491544Y-84155216D01*
X160590147Y-84007646D01*
X160715646Y-83882147D01*
X160863216Y-83783544D01*
X161027188Y-83715624D01*
X161176488Y-83685927D01*
X161201258Y-83681000D01*
X161378742Y-83681000D01*
X161403512Y-83685927D01*
G37*
G36*
X120763512Y-82923927D02*
G01*
X120912812Y-82953624D01*
X121076784Y-83021544D01*
X121224354Y-83120147D01*
X121349853Y-83245646D01*
X121448456Y-83393216D01*
X121516376Y-83557188D01*
X121551000Y-83731259D01*
X121551000Y-83908741D01*
X121516376Y-84082812D01*
X121448456Y-84246784D01*
X121349853Y-84394354D01*
X121224354Y-84519853D01*
X121076784Y-84618456D01*
X120912812Y-84686376D01*
X120763512Y-84716073D01*
X120738742Y-84721000D01*
X120561258Y-84721000D01*
X120536488Y-84716073D01*
X120387188Y-84686376D01*
X120223216Y-84618456D01*
X120075646Y-84519853D01*
X119950147Y-84394354D01*
X119851544Y-84246784D01*
X119783624Y-84082812D01*
X119749000Y-83908741D01*
X119749000Y-83731259D01*
X119783624Y-83557188D01*
X119851544Y-83393216D01*
X119950147Y-83245646D01*
X120075646Y-83120147D01*
X120223216Y-83021544D01*
X120387188Y-82953624D01*
X120536488Y-82923927D01*
X120561258Y-82919000D01*
X120738742Y-82919000D01*
X120763512Y-82923927D01*
G37*
G36*
X138543512Y-82923927D02*
G01*
X138692812Y-82953624D01*
X138856784Y-83021544D01*
X139004354Y-83120147D01*
X139129853Y-83245646D01*
X139228456Y-83393216D01*
X139296376Y-83557188D01*
X139331000Y-83731259D01*
X139331000Y-83908741D01*
X139296376Y-84082812D01*
X139228456Y-84246784D01*
X139129853Y-84394354D01*
X139004354Y-84519853D01*
X138856784Y-84618456D01*
X138692812Y-84686376D01*
X138543512Y-84716073D01*
X138518742Y-84721000D01*
X138341258Y-84721000D01*
X138316488Y-84716073D01*
X138167188Y-84686376D01*
X138003216Y-84618456D01*
X137855646Y-84519853D01*
X137730147Y-84394354D01*
X137631544Y-84246784D01*
X137563624Y-84082812D01*
X137529000Y-83908741D01*
X137529000Y-83731259D01*
X137563624Y-83557188D01*
X137631544Y-83393216D01*
X137730147Y-83245646D01*
X137855646Y-83120147D01*
X138003216Y-83021544D01*
X138167188Y-82953624D01*
X138316488Y-82923927D01*
X138341258Y-82919000D01*
X138518742Y-82919000D01*
X138543512Y-82923927D01*
G37*
G36*
X161403512Y-81145927D02*
G01*
X161552812Y-81175624D01*
X161716784Y-81243544D01*
X161864354Y-81342147D01*
X161989853Y-81467646D01*
X162088456Y-81615216D01*
X162156376Y-81779188D01*
X162191000Y-81953259D01*
X162191000Y-82130741D01*
X162156376Y-82304812D01*
X162088456Y-82468784D01*
X161989853Y-82616354D01*
X161864354Y-82741853D01*
X161716784Y-82840456D01*
X161552812Y-82908376D01*
X161403512Y-82938073D01*
X161378742Y-82943000D01*
X161201258Y-82943000D01*
X161176488Y-82938073D01*
X161027188Y-82908376D01*
X160863216Y-82840456D01*
X160715646Y-82741853D01*
X160590147Y-82616354D01*
X160491544Y-82468784D01*
X160423624Y-82304812D01*
X160389000Y-82130741D01*
X160389000Y-81953259D01*
X160423624Y-81779188D01*
X160491544Y-81615216D01*
X160590147Y-81467646D01*
X160715646Y-81342147D01*
X160863216Y-81243544D01*
X161027188Y-81175624D01*
X161176488Y-81145927D01*
X161201258Y-81141000D01*
X161378742Y-81141000D01*
X161403512Y-81145927D01*
G37*
G36*
X131031890Y-81416017D02*
G01*
X131150364Y-81465091D01*
X131256988Y-81536335D01*
X131347665Y-81627012D01*
X131400966Y-81706782D01*
X131418910Y-81733638D01*
X131467983Y-81852110D01*
X131493000Y-81977881D01*
X131493000Y-82106119D01*
X131467983Y-82231890D01*
X131437778Y-82304812D01*
X131418909Y-82350364D01*
X131347665Y-82456988D01*
X131256988Y-82547665D01*
X131150364Y-82618909D01*
X131150363Y-82618910D01*
X131150362Y-82618910D01*
X131031890Y-82667983D01*
X130906119Y-82693000D01*
X130777881Y-82693000D01*
X130652110Y-82667983D01*
X130533638Y-82618910D01*
X130533637Y-82618910D01*
X130533636Y-82618909D01*
X130427012Y-82547665D01*
X130336335Y-82456988D01*
X130265091Y-82350364D01*
X130246223Y-82304812D01*
X130216017Y-82231890D01*
X130191000Y-82106119D01*
X130191000Y-81977881D01*
X130216017Y-81852110D01*
X130265090Y-81733638D01*
X130283035Y-81706782D01*
X130336335Y-81627012D01*
X130427012Y-81536335D01*
X130533636Y-81465091D01*
X130652110Y-81416017D01*
X130777881Y-81391000D01*
X130906119Y-81391000D01*
X131031890Y-81416017D01*
G37*
G36*
X126381000Y-82693000D02*
G01*
X125079000Y-82693000D01*
X125079000Y-81391000D01*
X126381000Y-81391000D01*
X126381000Y-82693000D01*
G37*
G36*
X133493000Y-82693000D02*
G01*
X132191000Y-82693000D01*
X132191000Y-81391000D01*
X133493000Y-81391000D01*
X133493000Y-82693000D01*
G37*
G36*
X127919890Y-81416017D02*
G01*
X128038364Y-81465091D01*
X128144988Y-81536335D01*
X128235665Y-81627012D01*
X128288966Y-81706782D01*
X128306910Y-81733638D01*
X128355983Y-81852110D01*
X128381000Y-81977881D01*
X128381000Y-82106119D01*
X128355983Y-82231890D01*
X128325778Y-82304812D01*
X128306909Y-82350364D01*
X128235665Y-82456988D01*
X128144988Y-82547665D01*
X128038364Y-82618909D01*
X128038363Y-82618910D01*
X128038362Y-82618910D01*
X127919890Y-82667983D01*
X127794119Y-82693000D01*
X127665881Y-82693000D01*
X127540110Y-82667983D01*
X127421638Y-82618910D01*
X127421637Y-82618910D01*
X127421636Y-82618909D01*
X127315012Y-82547665D01*
X127224335Y-82456988D01*
X127153091Y-82350364D01*
X127134223Y-82304812D01*
X127104017Y-82231890D01*
X127079000Y-82106119D01*
X127079000Y-81977881D01*
X127104017Y-81852110D01*
X127153090Y-81733638D01*
X127171035Y-81706782D01*
X127224335Y-81627012D01*
X127315012Y-81536335D01*
X127421636Y-81465091D01*
X127540110Y-81416017D01*
X127665881Y-81391000D01*
X127794119Y-81391000D01*
X127919890Y-81416017D01*
G37*
G36*
X120763512Y-80383927D02*
G01*
X120912812Y-80413624D01*
X121076784Y-80481544D01*
X121224354Y-80580147D01*
X121349853Y-80705646D01*
X121448456Y-80853216D01*
X121516376Y-81017188D01*
X121551000Y-81191259D01*
X121551000Y-81368741D01*
X121516376Y-81542812D01*
X121448456Y-81706784D01*
X121349853Y-81854354D01*
X121224354Y-81979853D01*
X121076784Y-82078456D01*
X120912812Y-82146376D01*
X120763512Y-82176073D01*
X120738742Y-82181000D01*
X120561258Y-82181000D01*
X120536488Y-82176073D01*
X120387188Y-82146376D01*
X120223216Y-82078456D01*
X120075646Y-81979853D01*
X119950147Y-81854354D01*
X119851544Y-81706784D01*
X119783624Y-81542812D01*
X119749000Y-81368741D01*
X119749000Y-81191259D01*
X119783624Y-81017188D01*
X119851544Y-80853216D01*
X119950147Y-80705646D01*
X120075646Y-80580147D01*
X120223216Y-80481544D01*
X120387188Y-80413624D01*
X120536488Y-80383927D01*
X120561258Y-80379000D01*
X120738742Y-80379000D01*
X120763512Y-80383927D01*
G37*
G36*
X138543512Y-80383927D02*
G01*
X138692812Y-80413624D01*
X138856784Y-80481544D01*
X139004354Y-80580147D01*
X139129853Y-80705646D01*
X139228456Y-80853216D01*
X139296376Y-81017188D01*
X139331000Y-81191259D01*
X139331000Y-81368741D01*
X139296376Y-81542812D01*
X139228456Y-81706784D01*
X139129853Y-81854354D01*
X139004354Y-81979853D01*
X138856784Y-82078456D01*
X138692812Y-82146376D01*
X138543512Y-82176073D01*
X138518742Y-82181000D01*
X138341258Y-82181000D01*
X138316488Y-82176073D01*
X138167188Y-82146376D01*
X138003216Y-82078456D01*
X137855646Y-81979853D01*
X137730147Y-81854354D01*
X137631544Y-81706784D01*
X137563624Y-81542812D01*
X137529000Y-81368741D01*
X137529000Y-81191259D01*
X137563624Y-81017188D01*
X137631544Y-80853216D01*
X137730147Y-80705646D01*
X137855646Y-80580147D01*
X138003216Y-80481544D01*
X138167188Y-80413624D01*
X138316488Y-80383927D01*
X138341258Y-80379000D01*
X138518742Y-80379000D01*
X138543512Y-80383927D01*
G37*
G36*
X153656512Y-79113927D02*
G01*
X153805812Y-79143624D01*
X153969784Y-79211544D01*
X154117354Y-79310147D01*
X154242853Y-79435646D01*
X154341456Y-79583216D01*
X154409376Y-79747188D01*
X154444000Y-79921259D01*
X154444000Y-80098741D01*
X154409376Y-80272812D01*
X154341456Y-80436784D01*
X154242853Y-80584354D01*
X154117354Y-80709853D01*
X153969784Y-80808456D01*
X153805812Y-80876376D01*
X153656512Y-80906073D01*
X153631742Y-80911000D01*
X153454258Y-80911000D01*
X153429488Y-80906073D01*
X153280188Y-80876376D01*
X153116216Y-80808456D01*
X152968646Y-80709853D01*
X152843147Y-80584354D01*
X152744544Y-80436784D01*
X152676624Y-80272812D01*
X152642000Y-80098741D01*
X152642000Y-79921259D01*
X152676624Y-79747188D01*
X152744544Y-79583216D01*
X152843147Y-79435646D01*
X152968646Y-79310147D01*
X153116216Y-79211544D01*
X153280188Y-79143624D01*
X153429488Y-79113927D01*
X153454258Y-79109000D01*
X153631742Y-79109000D01*
X153656512Y-79113927D01*
G37*
G36*
X138543512Y-77843927D02*
G01*
X138692812Y-77873624D01*
X138856784Y-77941544D01*
X139004354Y-78040147D01*
X139129853Y-78165646D01*
X139228456Y-78313216D01*
X139296376Y-78477188D01*
X139331000Y-78651259D01*
X139331000Y-78828741D01*
X139296376Y-79002812D01*
X139228456Y-79166784D01*
X139129853Y-79314354D01*
X139004354Y-79439853D01*
X138856784Y-79538456D01*
X138692812Y-79606376D01*
X138543512Y-79636073D01*
X138518742Y-79641000D01*
X138341258Y-79641000D01*
X138316488Y-79636073D01*
X138167188Y-79606376D01*
X138003216Y-79538456D01*
X137855646Y-79439853D01*
X137730147Y-79314354D01*
X137631544Y-79166784D01*
X137563624Y-79002812D01*
X137529000Y-78828741D01*
X137529000Y-78651259D01*
X137563624Y-78477188D01*
X137631544Y-78313216D01*
X137730147Y-78165646D01*
X137855646Y-78040147D01*
X138003216Y-77941544D01*
X138167188Y-77873624D01*
X138316488Y-77843927D01*
X138341258Y-77839000D01*
X138518742Y-77839000D01*
X138543512Y-77843927D01*
G37*
G36*
X120763512Y-77843927D02*
G01*
X120912812Y-77873624D01*
X121076784Y-77941544D01*
X121224354Y-78040147D01*
X121349853Y-78165646D01*
X121448456Y-78313216D01*
X121516376Y-78477188D01*
X121551000Y-78651259D01*
X121551000Y-78828741D01*
X121516376Y-79002812D01*
X121448456Y-79166784D01*
X121349853Y-79314354D01*
X121224354Y-79439853D01*
X121076784Y-79538456D01*
X120912812Y-79606376D01*
X120763512Y-79636073D01*
X120738742Y-79641000D01*
X120561258Y-79641000D01*
X120536488Y-79636073D01*
X120387188Y-79606376D01*
X120223216Y-79538456D01*
X120075646Y-79439853D01*
X119950147Y-79314354D01*
X119851544Y-79166784D01*
X119783624Y-79002812D01*
X119749000Y-78828741D01*
X119749000Y-78651259D01*
X119783624Y-78477188D01*
X119851544Y-78313216D01*
X119950147Y-78165646D01*
X120075646Y-78040147D01*
X120223216Y-77941544D01*
X120387188Y-77873624D01*
X120536488Y-77843927D01*
X120561258Y-77839000D01*
X120738742Y-77839000D01*
X120763512Y-77843927D01*
G37*
G36*
X153656512Y-76573927D02*
G01*
X153805812Y-76603624D01*
X153969784Y-76671544D01*
X154117354Y-76770147D01*
X154242853Y-76895646D01*
X154341456Y-77043216D01*
X154409376Y-77207188D01*
X154444000Y-77381259D01*
X154444000Y-77558741D01*
X154409376Y-77732812D01*
X154341456Y-77896784D01*
X154242853Y-78044354D01*
X154117354Y-78169853D01*
X153969784Y-78268456D01*
X153805812Y-78336376D01*
X153656512Y-78366073D01*
X153631742Y-78371000D01*
X153454258Y-78371000D01*
X153429488Y-78366073D01*
X153280188Y-78336376D01*
X153116216Y-78268456D01*
X152968646Y-78169853D01*
X152843147Y-78044354D01*
X152744544Y-77896784D01*
X152676624Y-77732812D01*
X152642000Y-77558741D01*
X152642000Y-77381259D01*
X152676624Y-77207188D01*
X152744544Y-77043216D01*
X152843147Y-76895646D01*
X152968646Y-76770147D01*
X153116216Y-76671544D01*
X153280188Y-76603624D01*
X153429488Y-76573927D01*
X153454258Y-76569000D01*
X153631742Y-76569000D01*
X153656512Y-76573927D01*
G37*
G36*
X129736720Y-75925520D02*
G01*
X129925881Y-75982901D01*
X130100212Y-76076083D01*
X130253015Y-76201485D01*
X130378417Y-76354288D01*
X130422182Y-76436167D01*
X130471598Y-76528617D01*
X130471599Y-76528620D01*
X130528980Y-76717781D01*
X130543500Y-76865207D01*
X130543500Y-77058794D01*
X130528980Y-77206220D01*
X130471599Y-77395381D01*
X130378417Y-77569712D01*
X130253015Y-77722515D01*
X130100212Y-77847917D01*
X130018333Y-77891682D01*
X129925883Y-77941098D01*
X129925880Y-77941099D01*
X129736719Y-77998480D01*
X129540000Y-78017855D01*
X129343280Y-77998480D01*
X129154119Y-77941099D01*
X128979788Y-77847917D01*
X128826985Y-77722515D01*
X128701583Y-77569712D01*
X128657818Y-77487833D01*
X128608402Y-77395383D01*
X128608401Y-77395380D01*
X128551020Y-77206219D01*
X128536500Y-77058793D01*
X128536500Y-76865206D01*
X128551020Y-76717780D01*
X128608401Y-76528619D01*
X128701583Y-76354288D01*
X128826985Y-76201485D01*
X128979788Y-76076083D01*
X129154120Y-75982901D01*
X129343281Y-75925520D01*
X129540000Y-75906145D01*
X129736720Y-75925520D01*
G37*
G36*
X127196720Y-75925520D02*
G01*
X127385881Y-75982901D01*
X127560212Y-76076083D01*
X127713015Y-76201485D01*
X127838417Y-76354288D01*
X127882182Y-76436167D01*
X127931598Y-76528617D01*
X127931599Y-76528620D01*
X127988980Y-76717781D01*
X128003500Y-76865207D01*
X128003500Y-77058794D01*
X127988980Y-77206220D01*
X127931599Y-77395381D01*
X127838417Y-77569712D01*
X127713015Y-77722515D01*
X127560212Y-77847917D01*
X127478333Y-77891682D01*
X127385883Y-77941098D01*
X127385880Y-77941099D01*
X127196719Y-77998480D01*
X127000000Y-78017855D01*
X126803280Y-77998480D01*
X126614119Y-77941099D01*
X126439788Y-77847917D01*
X126286985Y-77722515D01*
X126161583Y-77569712D01*
X126117818Y-77487833D01*
X126068402Y-77395383D01*
X126068401Y-77395380D01*
X126011020Y-77206219D01*
X125996500Y-77058793D01*
X125996500Y-76865206D01*
X126011020Y-76717780D01*
X126068401Y-76528619D01*
X126161583Y-76354288D01*
X126286985Y-76201485D01*
X126439788Y-76076083D01*
X126614120Y-75982901D01*
X126803281Y-75925520D01*
X127000000Y-75906145D01*
X127196720Y-75925520D01*
G37*
G36*
X133083500Y-78013000D02*
G01*
X131076500Y-78013000D01*
X131076500Y-75911000D01*
X133083500Y-75911000D01*
X133083500Y-78013000D01*
G37*
G36*
X120763512Y-75303927D02*
G01*
X120912812Y-75333624D01*
X121076784Y-75401544D01*
X121224354Y-75500147D01*
X121349853Y-75625646D01*
X121448456Y-75773216D01*
X121516376Y-75937188D01*
X121551000Y-76111259D01*
X121551000Y-76288741D01*
X121516376Y-76462812D01*
X121448456Y-76626784D01*
X121349853Y-76774354D01*
X121224354Y-76899853D01*
X121076784Y-76998456D01*
X120912812Y-77066376D01*
X120763512Y-77096073D01*
X120738742Y-77101000D01*
X120561258Y-77101000D01*
X120536488Y-77096073D01*
X120387188Y-77066376D01*
X120223216Y-76998456D01*
X120075646Y-76899853D01*
X119950147Y-76774354D01*
X119851544Y-76626784D01*
X119783624Y-76462812D01*
X119749000Y-76288741D01*
X119749000Y-76111259D01*
X119783624Y-75937188D01*
X119851544Y-75773216D01*
X119950147Y-75625646D01*
X120075646Y-75500147D01*
X120223216Y-75401544D01*
X120387188Y-75333624D01*
X120536488Y-75303927D01*
X120561258Y-75299000D01*
X120738742Y-75299000D01*
X120763512Y-75303927D01*
G37*
G36*
X138543512Y-75303927D02*
G01*
X138692812Y-75333624D01*
X138856784Y-75401544D01*
X139004354Y-75500147D01*
X139129853Y-75625646D01*
X139228456Y-75773216D01*
X139296376Y-75937188D01*
X139331000Y-76111259D01*
X139331000Y-76288741D01*
X139296376Y-76462812D01*
X139228456Y-76626784D01*
X139129853Y-76774354D01*
X139004354Y-76899853D01*
X138856784Y-76998456D01*
X138692812Y-77066376D01*
X138543512Y-77096073D01*
X138518742Y-77101000D01*
X138341258Y-77101000D01*
X138316488Y-77096073D01*
X138167188Y-77066376D01*
X138003216Y-76998456D01*
X137855646Y-76899853D01*
X137730147Y-76774354D01*
X137631544Y-76626784D01*
X137563624Y-76462812D01*
X137529000Y-76288741D01*
X137529000Y-76111259D01*
X137563624Y-75937188D01*
X137631544Y-75773216D01*
X137730147Y-75625646D01*
X137855646Y-75500147D01*
X138003216Y-75401544D01*
X138167188Y-75333624D01*
X138316488Y-75303927D01*
X138341258Y-75299000D01*
X138518742Y-75299000D01*
X138543512Y-75303927D01*
G37*
G36*
X162191000Y-77101000D02*
G01*
X160389000Y-77101000D01*
X160389000Y-75299000D01*
X162191000Y-75299000D01*
X162191000Y-77101000D01*
G37*
G36*
X153656512Y-74033927D02*
G01*
X153805812Y-74063624D01*
X153969784Y-74131544D01*
X154117354Y-74230147D01*
X154242853Y-74355646D01*
X154341456Y-74503216D01*
X154409376Y-74667188D01*
X154444000Y-74841259D01*
X154444000Y-75018741D01*
X154409376Y-75192812D01*
X154341456Y-75356784D01*
X154242853Y-75504354D01*
X154117354Y-75629853D01*
X153969784Y-75728456D01*
X153805812Y-75796376D01*
X153656512Y-75826073D01*
X153631742Y-75831000D01*
X153454258Y-75831000D01*
X153429488Y-75826073D01*
X153280188Y-75796376D01*
X153116216Y-75728456D01*
X152968646Y-75629853D01*
X152843147Y-75504354D01*
X152744544Y-75356784D01*
X152676624Y-75192812D01*
X152642000Y-75018741D01*
X152642000Y-74841259D01*
X152676624Y-74667188D01*
X152744544Y-74503216D01*
X152843147Y-74355646D01*
X152968646Y-74230147D01*
X153116216Y-74131544D01*
X153280188Y-74063624D01*
X153429488Y-74033927D01*
X153454258Y-74029000D01*
X153631742Y-74029000D01*
X153656512Y-74033927D01*
G37*
G36*
X161403512Y-72763927D02*
G01*
X161552812Y-72793624D01*
X161716784Y-72861544D01*
X161864354Y-72960147D01*
X161989853Y-73085646D01*
X162088456Y-73233216D01*
X162156376Y-73397188D01*
X162191000Y-73571259D01*
X162191000Y-73748741D01*
X162156376Y-73922812D01*
X162088456Y-74086784D01*
X161989853Y-74234354D01*
X161864354Y-74359853D01*
X161716784Y-74458456D01*
X161552812Y-74526376D01*
X161403512Y-74556073D01*
X161378742Y-74561000D01*
X161201258Y-74561000D01*
X161176488Y-74556073D01*
X161027188Y-74526376D01*
X160863216Y-74458456D01*
X160715646Y-74359853D01*
X160590147Y-74234354D01*
X160491544Y-74086784D01*
X160423624Y-73922812D01*
X160389000Y-73748741D01*
X160389000Y-73571259D01*
X160423624Y-73397188D01*
X160491544Y-73233216D01*
X160590147Y-73085646D01*
X160715646Y-72960147D01*
X160863216Y-72861544D01*
X161027188Y-72793624D01*
X161176488Y-72763927D01*
X161201258Y-72759000D01*
X161378742Y-72759000D01*
X161403512Y-72763927D01*
G37*
G36*
X120763512Y-72763927D02*
G01*
X120912812Y-72793624D01*
X121076784Y-72861544D01*
X121224354Y-72960147D01*
X121349853Y-73085646D01*
X121448456Y-73233216D01*
X121516376Y-73397188D01*
X121551000Y-73571259D01*
X121551000Y-73748741D01*
X121516376Y-73922812D01*
X121448456Y-74086784D01*
X121349853Y-74234354D01*
X121224354Y-74359853D01*
X121076784Y-74458456D01*
X120912812Y-74526376D01*
X120763512Y-74556073D01*
X120738742Y-74561000D01*
X120561258Y-74561000D01*
X120536488Y-74556073D01*
X120387188Y-74526376D01*
X120223216Y-74458456D01*
X120075646Y-74359853D01*
X119950147Y-74234354D01*
X119851544Y-74086784D01*
X119783624Y-73922812D01*
X119749000Y-73748741D01*
X119749000Y-73571259D01*
X119783624Y-73397188D01*
X119851544Y-73233216D01*
X119950147Y-73085646D01*
X120075646Y-72960147D01*
X120223216Y-72861544D01*
X120387188Y-72793624D01*
X120536488Y-72763927D01*
X120561258Y-72759000D01*
X120738742Y-72759000D01*
X120763512Y-72763927D01*
G37*
G36*
X138543512Y-72763927D02*
G01*
X138692812Y-72793624D01*
X138856784Y-72861544D01*
X139004354Y-72960147D01*
X139129853Y-73085646D01*
X139228456Y-73233216D01*
X139296376Y-73397188D01*
X139331000Y-73571259D01*
X139331000Y-73748741D01*
X139296376Y-73922812D01*
X139228456Y-74086784D01*
X139129853Y-74234354D01*
X139004354Y-74359853D01*
X138856784Y-74458456D01*
X138692812Y-74526376D01*
X138543512Y-74556073D01*
X138518742Y-74561000D01*
X138341258Y-74561000D01*
X138316488Y-74556073D01*
X138167188Y-74526376D01*
X138003216Y-74458456D01*
X137855646Y-74359853D01*
X137730147Y-74234354D01*
X137631544Y-74086784D01*
X137563624Y-73922812D01*
X137529000Y-73748741D01*
X137529000Y-73571259D01*
X137563624Y-73397188D01*
X137631544Y-73233216D01*
X137730147Y-73085646D01*
X137855646Y-72960147D01*
X138003216Y-72861544D01*
X138167188Y-72793624D01*
X138316488Y-72763927D01*
X138341258Y-72759000D01*
X138518742Y-72759000D01*
X138543512Y-72763927D01*
G37*
G36*
X154444000Y-73291000D02*
G01*
X152642000Y-73291000D01*
X152642000Y-71489000D01*
X154444000Y-71489000D01*
X154444000Y-73291000D01*
G37*
G36*
X138543512Y-70223927D02*
G01*
X138692812Y-70253624D01*
X138856784Y-70321544D01*
X139004354Y-70420147D01*
X139129853Y-70545646D01*
X139228456Y-70693216D01*
X139296376Y-70857188D01*
X139331000Y-71031259D01*
X139331000Y-71208741D01*
X139296376Y-71382812D01*
X139228456Y-71546784D01*
X139129853Y-71694354D01*
X139004354Y-71819853D01*
X138856784Y-71918456D01*
X138692812Y-71986376D01*
X138543512Y-72016073D01*
X138518742Y-72021000D01*
X138341258Y-72021000D01*
X138316488Y-72016073D01*
X138167188Y-71986376D01*
X138003216Y-71918456D01*
X137855646Y-71819853D01*
X137730147Y-71694354D01*
X137631544Y-71546784D01*
X137563624Y-71382812D01*
X137529000Y-71208741D01*
X137529000Y-71031259D01*
X137563624Y-70857188D01*
X137631544Y-70693216D01*
X137730147Y-70545646D01*
X137855646Y-70420147D01*
X138003216Y-70321544D01*
X138167188Y-70253624D01*
X138316488Y-70223927D01*
X138341258Y-70219000D01*
X138518742Y-70219000D01*
X138543512Y-70223927D01*
G37*
G36*
X161403512Y-70223927D02*
G01*
X161552812Y-70253624D01*
X161716784Y-70321544D01*
X161864354Y-70420147D01*
X161989853Y-70545646D01*
X162088456Y-70693216D01*
X162156376Y-70857188D01*
X162191000Y-71031259D01*
X162191000Y-71208741D01*
X162156376Y-71382812D01*
X162088456Y-71546784D01*
X161989853Y-71694354D01*
X161864354Y-71819853D01*
X161716784Y-71918456D01*
X161552812Y-71986376D01*
X161403512Y-72016073D01*
X161378742Y-72021000D01*
X161201258Y-72021000D01*
X161176488Y-72016073D01*
X161027188Y-71986376D01*
X160863216Y-71918456D01*
X160715646Y-71819853D01*
X160590147Y-71694354D01*
X160491544Y-71546784D01*
X160423624Y-71382812D01*
X160389000Y-71208741D01*
X160389000Y-71031259D01*
X160423624Y-70857188D01*
X160491544Y-70693216D01*
X160590147Y-70545646D01*
X160715646Y-70420147D01*
X160863216Y-70321544D01*
X161027188Y-70253624D01*
X161176488Y-70223927D01*
X161201258Y-70219000D01*
X161378742Y-70219000D01*
X161403512Y-70223927D01*
G37*
G36*
X120763512Y-70223927D02*
G01*
X120912812Y-70253624D01*
X121076784Y-70321544D01*
X121224354Y-70420147D01*
X121349853Y-70545646D01*
X121448456Y-70693216D01*
X121516376Y-70857188D01*
X121551000Y-71031259D01*
X121551000Y-71208741D01*
X121516376Y-71382812D01*
X121448456Y-71546784D01*
X121349853Y-71694354D01*
X121224354Y-71819853D01*
X121076784Y-71918456D01*
X120912812Y-71986376D01*
X120763512Y-72016073D01*
X120738742Y-72021000D01*
X120561258Y-72021000D01*
X120536488Y-72016073D01*
X120387188Y-71986376D01*
X120223216Y-71918456D01*
X120075646Y-71819853D01*
X119950147Y-71694354D01*
X119851544Y-71546784D01*
X119783624Y-71382812D01*
X119749000Y-71208741D01*
X119749000Y-71031259D01*
X119783624Y-70857188D01*
X119851544Y-70693216D01*
X119950147Y-70545646D01*
X120075646Y-70420147D01*
X120223216Y-70321544D01*
X120387188Y-70253624D01*
X120536488Y-70223927D01*
X120561258Y-70219000D01*
X120738742Y-70219000D01*
X120763512Y-70223927D01*
G37*
G36*
X138543512Y-67683927D02*
G01*
X138692812Y-67713624D01*
X138856784Y-67781544D01*
X139004354Y-67880147D01*
X139129853Y-68005646D01*
X139228456Y-68153216D01*
X139296376Y-68317188D01*
X139331000Y-68491259D01*
X139331000Y-68668741D01*
X139296376Y-68842812D01*
X139228456Y-69006784D01*
X139129853Y-69154354D01*
X139004354Y-69279853D01*
X138856784Y-69378456D01*
X138692812Y-69446376D01*
X138543512Y-69476073D01*
X138518742Y-69481000D01*
X138341258Y-69481000D01*
X138316488Y-69476073D01*
X138167188Y-69446376D01*
X138003216Y-69378456D01*
X137855646Y-69279853D01*
X137730147Y-69154354D01*
X137631544Y-69006784D01*
X137563624Y-68842812D01*
X137529000Y-68668741D01*
X137529000Y-68491259D01*
X137563624Y-68317188D01*
X137631544Y-68153216D01*
X137730147Y-68005646D01*
X137855646Y-67880147D01*
X138003216Y-67781544D01*
X138167188Y-67713624D01*
X138316488Y-67683927D01*
X138341258Y-67679000D01*
X138518742Y-67679000D01*
X138543512Y-67683927D01*
G37*
G36*
X120763512Y-67683927D02*
G01*
X120912812Y-67713624D01*
X121076784Y-67781544D01*
X121224354Y-67880147D01*
X121349853Y-68005646D01*
X121448456Y-68153216D01*
X121516376Y-68317188D01*
X121551000Y-68491259D01*
X121551000Y-68668741D01*
X121516376Y-68842812D01*
X121448456Y-69006784D01*
X121349853Y-69154354D01*
X121224354Y-69279853D01*
X121076784Y-69378456D01*
X120912812Y-69446376D01*
X120763512Y-69476073D01*
X120738742Y-69481000D01*
X120561258Y-69481000D01*
X120536488Y-69476073D01*
X120387188Y-69446376D01*
X120223216Y-69378456D01*
X120075646Y-69279853D01*
X119950147Y-69154354D01*
X119851544Y-69006784D01*
X119783624Y-68842812D01*
X119749000Y-68668741D01*
X119749000Y-68491259D01*
X119783624Y-68317188D01*
X119851544Y-68153216D01*
X119950147Y-68005646D01*
X120075646Y-67880147D01*
X120223216Y-67781544D01*
X120387188Y-67713624D01*
X120536488Y-67683927D01*
X120561258Y-67679000D01*
X120738742Y-67679000D01*
X120763512Y-67683927D01*
G37*
G36*
X161403512Y-67683927D02*
G01*
X161552812Y-67713624D01*
X161716784Y-67781544D01*
X161864354Y-67880147D01*
X161989853Y-68005646D01*
X162088456Y-68153216D01*
X162156376Y-68317188D01*
X162191000Y-68491259D01*
X162191000Y-68668741D01*
X162156376Y-68842812D01*
X162088456Y-69006784D01*
X161989853Y-69154354D01*
X161864354Y-69279853D01*
X161716784Y-69378456D01*
X161552812Y-69446376D01*
X161403512Y-69476073D01*
X161378742Y-69481000D01*
X161201258Y-69481000D01*
X161176488Y-69476073D01*
X161027188Y-69446376D01*
X160863216Y-69378456D01*
X160715646Y-69279853D01*
X160590147Y-69154354D01*
X160491544Y-69006784D01*
X160423624Y-68842812D01*
X160389000Y-68668741D01*
X160389000Y-68491259D01*
X160423624Y-68317188D01*
X160491544Y-68153216D01*
X160590147Y-68005646D01*
X160715646Y-67880147D01*
X160863216Y-67781544D01*
X161027188Y-67713624D01*
X161176488Y-67683927D01*
X161201258Y-67679000D01*
X161378742Y-67679000D01*
X161403512Y-67683927D01*
G37*
G36*
X120763512Y-65143927D02*
G01*
X120912812Y-65173624D01*
X121076784Y-65241544D01*
X121224354Y-65340147D01*
X121349853Y-65465646D01*
X121448456Y-65613216D01*
X121516376Y-65777188D01*
X121551000Y-65951259D01*
X121551000Y-66128741D01*
X121516376Y-66302812D01*
X121448456Y-66466784D01*
X121349853Y-66614354D01*
X121224354Y-66739853D01*
X121076784Y-66838456D01*
X120912812Y-66906376D01*
X120763512Y-66936073D01*
X120738742Y-66941000D01*
X120561258Y-66941000D01*
X120536488Y-66936073D01*
X120387188Y-66906376D01*
X120223216Y-66838456D01*
X120075646Y-66739853D01*
X119950147Y-66614354D01*
X119851544Y-66466784D01*
X119783624Y-66302812D01*
X119749000Y-66128741D01*
X119749000Y-65951259D01*
X119783624Y-65777188D01*
X119851544Y-65613216D01*
X119950147Y-65465646D01*
X120075646Y-65340147D01*
X120223216Y-65241544D01*
X120387188Y-65173624D01*
X120536488Y-65143927D01*
X120561258Y-65139000D01*
X120738742Y-65139000D01*
X120763512Y-65143927D01*
G37*
G36*
X138543512Y-65143927D02*
G01*
X138692812Y-65173624D01*
X138856784Y-65241544D01*
X139004354Y-65340147D01*
X139129853Y-65465646D01*
X139228456Y-65613216D01*
X139296376Y-65777188D01*
X139331000Y-65951259D01*
X139331000Y-66128741D01*
X139296376Y-66302812D01*
X139228456Y-66466784D01*
X139129853Y-66614354D01*
X139004354Y-66739853D01*
X138856784Y-66838456D01*
X138692812Y-66906376D01*
X138543512Y-66936073D01*
X138518742Y-66941000D01*
X138341258Y-66941000D01*
X138316488Y-66936073D01*
X138167188Y-66906376D01*
X138003216Y-66838456D01*
X137855646Y-66739853D01*
X137730147Y-66614354D01*
X137631544Y-66466784D01*
X137563624Y-66302812D01*
X137529000Y-66128741D01*
X137529000Y-65951259D01*
X137563624Y-65777188D01*
X137631544Y-65613216D01*
X137730147Y-65465646D01*
X137855646Y-65340147D01*
X138003216Y-65241544D01*
X138167188Y-65173624D01*
X138316488Y-65143927D01*
X138341258Y-65139000D01*
X138518742Y-65139000D01*
X138543512Y-65143927D01*
G37*
G36*
X161403512Y-65143927D02*
G01*
X161552812Y-65173624D01*
X161716784Y-65241544D01*
X161864354Y-65340147D01*
X161989853Y-65465646D01*
X162088456Y-65613216D01*
X162156376Y-65777188D01*
X162191000Y-65951259D01*
X162191000Y-66128741D01*
X162156376Y-66302812D01*
X162088456Y-66466784D01*
X161989853Y-66614354D01*
X161864354Y-66739853D01*
X161716784Y-66838456D01*
X161552812Y-66906376D01*
X161403512Y-66936073D01*
X161378742Y-66941000D01*
X161201258Y-66941000D01*
X161176488Y-66936073D01*
X161027188Y-66906376D01*
X160863216Y-66838456D01*
X160715646Y-66739853D01*
X160590147Y-66614354D01*
X160491544Y-66466784D01*
X160423624Y-66302812D01*
X160389000Y-66128741D01*
X160389000Y-65951259D01*
X160423624Y-65777188D01*
X160491544Y-65613216D01*
X160590147Y-65465646D01*
X160715646Y-65340147D01*
X160863216Y-65241544D01*
X161027188Y-65173624D01*
X161176488Y-65143927D01*
X161201258Y-65139000D01*
X161378742Y-65139000D01*
X161403512Y-65143927D01*
G37*
G36*
X120763512Y-62603927D02*
G01*
X120912812Y-62633624D01*
X121076784Y-62701544D01*
X121224354Y-62800147D01*
X121349853Y-62925646D01*
X121448456Y-63073216D01*
X121516376Y-63237188D01*
X121551000Y-63411259D01*
X121551000Y-63588741D01*
X121516376Y-63762812D01*
X121448456Y-63926784D01*
X121349853Y-64074354D01*
X121224354Y-64199853D01*
X121076784Y-64298456D01*
X120912812Y-64366376D01*
X120763512Y-64396073D01*
X120738742Y-64401000D01*
X120561258Y-64401000D01*
X120536488Y-64396073D01*
X120387188Y-64366376D01*
X120223216Y-64298456D01*
X120075646Y-64199853D01*
X119950147Y-64074354D01*
X119851544Y-63926784D01*
X119783624Y-63762812D01*
X119749000Y-63588741D01*
X119749000Y-63411259D01*
X119783624Y-63237188D01*
X119851544Y-63073216D01*
X119950147Y-62925646D01*
X120075646Y-62800147D01*
X120223216Y-62701544D01*
X120387188Y-62633624D01*
X120536488Y-62603927D01*
X120561258Y-62599000D01*
X120738742Y-62599000D01*
X120763512Y-62603927D01*
G37*
G36*
X138543512Y-62603927D02*
G01*
X138692812Y-62633624D01*
X138856784Y-62701544D01*
X139004354Y-62800147D01*
X139129853Y-62925646D01*
X139228456Y-63073216D01*
X139296376Y-63237188D01*
X139331000Y-63411259D01*
X139331000Y-63588741D01*
X139296376Y-63762812D01*
X139228456Y-63926784D01*
X139129853Y-64074354D01*
X139004354Y-64199853D01*
X138856784Y-64298456D01*
X138692812Y-64366376D01*
X138543512Y-64396073D01*
X138518742Y-64401000D01*
X138341258Y-64401000D01*
X138316488Y-64396073D01*
X138167188Y-64366376D01*
X138003216Y-64298456D01*
X137855646Y-64199853D01*
X137730147Y-64074354D01*
X137631544Y-63926784D01*
X137563624Y-63762812D01*
X137529000Y-63588741D01*
X137529000Y-63411259D01*
X137563624Y-63237188D01*
X137631544Y-63073216D01*
X137730147Y-62925646D01*
X137855646Y-62800147D01*
X138003216Y-62701544D01*
X138167188Y-62633624D01*
X138316488Y-62603927D01*
X138341258Y-62599000D01*
X138518742Y-62599000D01*
X138543512Y-62603927D01*
G37*
G36*
X161403512Y-62603927D02*
G01*
X161552812Y-62633624D01*
X161716784Y-62701544D01*
X161864354Y-62800147D01*
X161989853Y-62925646D01*
X162088456Y-63073216D01*
X162156376Y-63237188D01*
X162191000Y-63411259D01*
X162191000Y-63588741D01*
X162156376Y-63762812D01*
X162088456Y-63926784D01*
X161989853Y-64074354D01*
X161864354Y-64199853D01*
X161716784Y-64298456D01*
X161552812Y-64366376D01*
X161403512Y-64396073D01*
X161378742Y-64401000D01*
X161201258Y-64401000D01*
X161176488Y-64396073D01*
X161027188Y-64366376D01*
X160863216Y-64298456D01*
X160715646Y-64199853D01*
X160590147Y-64074354D01*
X160491544Y-63926784D01*
X160423624Y-63762812D01*
X160389000Y-63588741D01*
X160389000Y-63411259D01*
X160423624Y-63237188D01*
X160491544Y-63073216D01*
X160590147Y-62925646D01*
X160715646Y-62800147D01*
X160863216Y-62701544D01*
X161027188Y-62633624D01*
X161176488Y-62603927D01*
X161201258Y-62599000D01*
X161378742Y-62599000D01*
X161403512Y-62603927D01*
G37*
G36*
X161403512Y-60063927D02*
G01*
X161552812Y-60093624D01*
X161716784Y-60161544D01*
X161864354Y-60260147D01*
X161989853Y-60385646D01*
X162088456Y-60533216D01*
X162156376Y-60697188D01*
X162191000Y-60871259D01*
X162191000Y-61048741D01*
X162156376Y-61222812D01*
X162088456Y-61386784D01*
X161989853Y-61534354D01*
X161864354Y-61659853D01*
X161716784Y-61758456D01*
X161552812Y-61826376D01*
X161403512Y-61856073D01*
X161378742Y-61861000D01*
X161201258Y-61861000D01*
X161176488Y-61856073D01*
X161027188Y-61826376D01*
X160863216Y-61758456D01*
X160715646Y-61659853D01*
X160590147Y-61534354D01*
X160491544Y-61386784D01*
X160423624Y-61222812D01*
X160389000Y-61048741D01*
X160389000Y-60871259D01*
X160423624Y-60697188D01*
X160491544Y-60533216D01*
X160590147Y-60385646D01*
X160715646Y-60260147D01*
X160863216Y-60161544D01*
X161027188Y-60093624D01*
X161176488Y-60063927D01*
X161201258Y-60059000D01*
X161378742Y-60059000D01*
X161403512Y-60063927D01*
G37*
G36*
X138543512Y-60063927D02*
G01*
X138692812Y-60093624D01*
X138856784Y-60161544D01*
X139004354Y-60260147D01*
X139129853Y-60385646D01*
X139228456Y-60533216D01*
X139296376Y-60697188D01*
X139331000Y-60871259D01*
X139331000Y-61048741D01*
X139296376Y-61222812D01*
X139228456Y-61386784D01*
X139129853Y-61534354D01*
X139004354Y-61659853D01*
X138856784Y-61758456D01*
X138692812Y-61826376D01*
X138543512Y-61856073D01*
X138518742Y-61861000D01*
X138341258Y-61861000D01*
X138316488Y-61856073D01*
X138167188Y-61826376D01*
X138003216Y-61758456D01*
X137855646Y-61659853D01*
X137730147Y-61534354D01*
X137631544Y-61386784D01*
X137563624Y-61222812D01*
X137529000Y-61048741D01*
X137529000Y-60871259D01*
X137563624Y-60697188D01*
X137631544Y-60533216D01*
X137730147Y-60385646D01*
X137855646Y-60260147D01*
X138003216Y-60161544D01*
X138167188Y-60093624D01*
X138316488Y-60063927D01*
X138341258Y-60059000D01*
X138518742Y-60059000D01*
X138543512Y-60063927D01*
G37*
G36*
X121551000Y-61861000D02*
G01*
X119749000Y-61861000D01*
X119749000Y-60059000D01*
X121551000Y-60059000D01*
X121551000Y-61861000D01*
G37*
G36*
X165324549Y-56021116D02*
G01*
X165435734Y-56043232D01*
X165645203Y-56129997D01*
X165833720Y-56255960D01*
X165994040Y-56416280D01*
X166120003Y-56604797D01*
X166206768Y-56814266D01*
X166251000Y-57036636D01*
X166251000Y-57263364D01*
X166206768Y-57485734D01*
X166120003Y-57695203D01*
X165994040Y-57883720D01*
X165833720Y-58044040D01*
X165645203Y-58170003D01*
X165435734Y-58256768D01*
X165324549Y-58278884D01*
X165213365Y-58301000D01*
X164986635Y-58301000D01*
X164875451Y-58278884D01*
X164764266Y-58256768D01*
X164554797Y-58170003D01*
X164366280Y-58044040D01*
X164205960Y-57883720D01*
X164079997Y-57695203D01*
X163993232Y-57485734D01*
X163949000Y-57263364D01*
X163949000Y-57036636D01*
X163993232Y-56814266D01*
X164079997Y-56604797D01*
X164205960Y-56416280D01*
X164366280Y-56255960D01*
X164554797Y-56129997D01*
X164764266Y-56043232D01*
X164875451Y-56021116D01*
X164986635Y-55999000D01*
X165213365Y-55999000D01*
X165324549Y-56021116D01*
G37*
G36*
X117064549Y-56021116D02*
G01*
X117175734Y-56043232D01*
X117385203Y-56129997D01*
X117573720Y-56255960D01*
X117734040Y-56416280D01*
X117860003Y-56604797D01*
X117946768Y-56814266D01*
X117991000Y-57036636D01*
X117991000Y-57263364D01*
X117946768Y-57485734D01*
X117860003Y-57695203D01*
X117734040Y-57883720D01*
X117573720Y-58044040D01*
X117385203Y-58170003D01*
X117175734Y-58256768D01*
X117064549Y-58278884D01*
X116953365Y-58301000D01*
X116726635Y-58301000D01*
X116615451Y-58278884D01*
X116504266Y-58256768D01*
X116294797Y-58170003D01*
X116106280Y-58044040D01*
X115945960Y-57883720D01*
X115819997Y-57695203D01*
X115733232Y-57485734D01*
X115689000Y-57263364D01*
X115689000Y-57036636D01*
X115733232Y-56814266D01*
X115819997Y-56604797D01*
X115945960Y-56416280D01*
X116106280Y-56255960D01*
X116294797Y-56129997D01*
X116504266Y-56043232D01*
X116615451Y-56021116D01*
X116726635Y-55999000D01*
X116953365Y-55999000D01*
X117064549Y-56021116D01*
G37*
M02*
