G04 #@! TF.GenerationSoftware,KiCad,Pcbnew,(5.1.5)-3*
G04 #@! TF.CreationDate,2020-03-21T13:19:14-05:00*
G04 #@! TF.ProjectId,PMT_PCB,504d545f-5043-4422-9e6b-696361645f70,rev?*
G04 #@! TF.SameCoordinates,Original*
G04 #@! TF.FileFunction,Legend,Bot*
G04 #@! TF.FilePolarity,Positive*
%FSLAX46Y46*%
G04 Gerber Fmt 4.6, Leading zero omitted, Abs format (unit mm)*
G04 Created by KiCad (PCBNEW (5.1.5)-3) date 2020-03-21 13:19:14*
%MOMM*%
%LPD*%
G04 APERTURE LIST*
%ADD10C,0.150000*%
%ADD11C,0.120000*%
G04 APERTURE END LIST*
D10*
X151844190Y-79716380D02*
X151225142Y-79716380D01*
X151558476Y-80097333D01*
X151415619Y-80097333D01*
X151320380Y-80144952D01*
X151272761Y-80192571D01*
X151225142Y-80287809D01*
X151225142Y-80525904D01*
X151272761Y-80621142D01*
X151320380Y-80668761D01*
X151415619Y-80716380D01*
X151701333Y-80716380D01*
X151796571Y-80668761D01*
X151844190Y-80621142D01*
X150796571Y-80621142D02*
X150748952Y-80668761D01*
X150796571Y-80716380D01*
X150844190Y-80668761D01*
X150796571Y-80621142D01*
X150796571Y-80716380D01*
X150415619Y-79716380D02*
X149796571Y-79716380D01*
X150129904Y-80097333D01*
X149987047Y-80097333D01*
X149891809Y-80144952D01*
X149844190Y-80192571D01*
X149796571Y-80287809D01*
X149796571Y-80525904D01*
X149844190Y-80621142D01*
X149891809Y-80668761D01*
X149987047Y-80716380D01*
X150272761Y-80716380D01*
X150368000Y-80668761D01*
X150415619Y-80621142D01*
X149510857Y-79716380D02*
X149177523Y-80716380D01*
X148844190Y-79716380D01*
X151383904Y-71890000D02*
X151479142Y-71842380D01*
X151622000Y-71842380D01*
X151764857Y-71890000D01*
X151860095Y-71985238D01*
X151907714Y-72080476D01*
X151955333Y-72270952D01*
X151955333Y-72413809D01*
X151907714Y-72604285D01*
X151860095Y-72699523D01*
X151764857Y-72794761D01*
X151622000Y-72842380D01*
X151526761Y-72842380D01*
X151383904Y-72794761D01*
X151336285Y-72747142D01*
X151336285Y-72413809D01*
X151526761Y-72413809D01*
X150907714Y-72842380D02*
X150907714Y-71842380D01*
X150336285Y-72842380D01*
X150336285Y-71842380D01*
X149860095Y-72842380D02*
X149860095Y-71842380D01*
X149622000Y-71842380D01*
X149479142Y-71890000D01*
X149383904Y-71985238D01*
X149336285Y-72080476D01*
X149288666Y-72270952D01*
X149288666Y-72413809D01*
X149336285Y-72604285D01*
X149383904Y-72699523D01*
X149479142Y-72794761D01*
X149622000Y-72842380D01*
X149860095Y-72842380D01*
X151042666Y-77922380D02*
X151376000Y-77446190D01*
X151614095Y-77922380D02*
X151614095Y-76922380D01*
X151233142Y-76922380D01*
X151137904Y-76970000D01*
X151090285Y-77017619D01*
X151042666Y-77112857D01*
X151042666Y-77255714D01*
X151090285Y-77350952D01*
X151137904Y-77398571D01*
X151233142Y-77446190D01*
X151614095Y-77446190D01*
X150709333Y-76922380D02*
X150042666Y-77922380D01*
X150042666Y-76922380D02*
X150709333Y-77922380D01*
X151891904Y-74382380D02*
X151320476Y-74382380D01*
X151606190Y-75382380D02*
X151606190Y-74382380D01*
X151082380Y-74382380D02*
X150415714Y-75382380D01*
X150415714Y-74382380D02*
X151082380Y-75382380D01*
D11*
X122809000Y-92710000D02*
X122809000Y-59690000D01*
X155829000Y-92710000D02*
X122809000Y-92710000D01*
X153543000Y-71060000D02*
X152213000Y-71060000D01*
X152213000Y-71060000D02*
X152213000Y-72390000D01*
X152213000Y-73660000D02*
X152213000Y-81340000D01*
X154873000Y-81340000D02*
X152213000Y-81340000D01*
X154873000Y-73660000D02*
X154873000Y-81340000D01*
X154873000Y-73660000D02*
X152213000Y-73660000D01*
X155829000Y-59690000D02*
X155829000Y-92710000D01*
X122809000Y-59690000D02*
X155829000Y-59690000D01*
X127689000Y-73692000D02*
X127689000Y-75202000D01*
X131390000Y-73692000D02*
X131390000Y-75202000D01*
X134660000Y-75202000D02*
X124420000Y-75202000D01*
X124420000Y-73692000D02*
X124420000Y-78333000D01*
X134660000Y-73692000D02*
X134660000Y-78333000D01*
X134660000Y-78333000D02*
X124420000Y-78333000D01*
X134660000Y-73692000D02*
X124420000Y-73692000D01*
X124660199Y-83437000D02*
X124660199Y-83037000D01*
X124460199Y-83237000D02*
X124860199Y-83237000D01*
X128811000Y-82412000D02*
X128811000Y-81672000D01*
X128771000Y-82579000D02*
X128771000Y-81505000D01*
X128731000Y-82706000D02*
X128731000Y-81378000D01*
X128691000Y-82810000D02*
X128691000Y-81274000D01*
X128651000Y-82901000D02*
X128651000Y-81183000D01*
X128611000Y-82982000D02*
X128611000Y-81102000D01*
X128571000Y-83055000D02*
X128571000Y-81029000D01*
X128531000Y-81202000D02*
X128531000Y-80962000D01*
X128531000Y-83122000D02*
X128531000Y-82882000D01*
X128491000Y-81202000D02*
X128491000Y-80900000D01*
X128491000Y-83184000D02*
X128491000Y-82882000D01*
X128451000Y-81202000D02*
X128451000Y-80842000D01*
X128451000Y-83242000D02*
X128451000Y-82882000D01*
X128411000Y-81202000D02*
X128411000Y-80788000D01*
X128411000Y-83296000D02*
X128411000Y-82882000D01*
X128371000Y-81202000D02*
X128371000Y-80738000D01*
X128371000Y-83346000D02*
X128371000Y-82882000D01*
X128331000Y-81202000D02*
X128331000Y-80691000D01*
X128331000Y-83393000D02*
X128331000Y-82882000D01*
X128291000Y-81202000D02*
X128291000Y-80646000D01*
X128291000Y-83438000D02*
X128291000Y-82882000D01*
X128251000Y-81202000D02*
X128251000Y-80604000D01*
X128251000Y-83480000D02*
X128251000Y-82882000D01*
X128211000Y-81202000D02*
X128211000Y-80564000D01*
X128211000Y-83520000D02*
X128211000Y-82882000D01*
X128171000Y-81202000D02*
X128171000Y-80526000D01*
X128171000Y-83558000D02*
X128171000Y-82882000D01*
X128131000Y-81202000D02*
X128131000Y-80490000D01*
X128131000Y-83594000D02*
X128131000Y-82882000D01*
X128091000Y-81202000D02*
X128091000Y-80455000D01*
X128091000Y-83629000D02*
X128091000Y-82882000D01*
X128051000Y-81202000D02*
X128051000Y-80423000D01*
X128051000Y-83661000D02*
X128051000Y-82882000D01*
X128011000Y-81202000D02*
X128011000Y-80392000D01*
X128011000Y-83692000D02*
X128011000Y-82882000D01*
X127971000Y-81202000D02*
X127971000Y-80362000D01*
X127971000Y-83722000D02*
X127971000Y-82882000D01*
X127931000Y-81202000D02*
X127931000Y-80334000D01*
X127931000Y-83750000D02*
X127931000Y-82882000D01*
X127891000Y-81202000D02*
X127891000Y-80307000D01*
X127891000Y-83777000D02*
X127891000Y-82882000D01*
X127851000Y-81202000D02*
X127851000Y-80282000D01*
X127851000Y-83802000D02*
X127851000Y-82882000D01*
X127811000Y-81202000D02*
X127811000Y-80257000D01*
X127811000Y-83827000D02*
X127811000Y-82882000D01*
X127771000Y-81202000D02*
X127771000Y-80234000D01*
X127771000Y-83850000D02*
X127771000Y-82882000D01*
X127731000Y-81202000D02*
X127731000Y-80212000D01*
X127731000Y-83872000D02*
X127731000Y-82882000D01*
X127691000Y-81202000D02*
X127691000Y-80191000D01*
X127691000Y-83893000D02*
X127691000Y-82882000D01*
X127651000Y-81202000D02*
X127651000Y-80172000D01*
X127651000Y-83912000D02*
X127651000Y-82882000D01*
X127611000Y-81202000D02*
X127611000Y-80153000D01*
X127611000Y-83931000D02*
X127611000Y-82882000D01*
X127571000Y-81202000D02*
X127571000Y-80135000D01*
X127571000Y-83949000D02*
X127571000Y-82882000D01*
X127531000Y-81202000D02*
X127531000Y-80118000D01*
X127531000Y-83966000D02*
X127531000Y-82882000D01*
X127491000Y-81202000D02*
X127491000Y-80102000D01*
X127491000Y-83982000D02*
X127491000Y-82882000D01*
X127451000Y-81202000D02*
X127451000Y-80088000D01*
X127451000Y-83996000D02*
X127451000Y-82882000D01*
X127410000Y-81202000D02*
X127410000Y-80074000D01*
X127410000Y-84010000D02*
X127410000Y-82882000D01*
X127370000Y-81202000D02*
X127370000Y-80060000D01*
X127370000Y-84024000D02*
X127370000Y-82882000D01*
X127330000Y-81202000D02*
X127330000Y-80048000D01*
X127330000Y-84036000D02*
X127330000Y-82882000D01*
X127290000Y-81202000D02*
X127290000Y-80037000D01*
X127290000Y-84047000D02*
X127290000Y-82882000D01*
X127250000Y-81202000D02*
X127250000Y-80026000D01*
X127250000Y-84058000D02*
X127250000Y-82882000D01*
X127210000Y-81202000D02*
X127210000Y-80017000D01*
X127210000Y-84067000D02*
X127210000Y-82882000D01*
X127170000Y-81202000D02*
X127170000Y-80008000D01*
X127170000Y-84076000D02*
X127170000Y-82882000D01*
X127130000Y-81202000D02*
X127130000Y-80000000D01*
X127130000Y-84084000D02*
X127130000Y-82882000D01*
X127090000Y-81202000D02*
X127090000Y-79992000D01*
X127090000Y-84092000D02*
X127090000Y-82882000D01*
X127050000Y-81202000D02*
X127050000Y-79986000D01*
X127050000Y-84098000D02*
X127050000Y-82882000D01*
X127010000Y-81202000D02*
X127010000Y-79980000D01*
X127010000Y-84104000D02*
X127010000Y-82882000D01*
X126970000Y-81202000D02*
X126970000Y-79975000D01*
X126970000Y-84109000D02*
X126970000Y-82882000D01*
X126930000Y-81202000D02*
X126930000Y-79971000D01*
X126930000Y-84113000D02*
X126930000Y-82882000D01*
X126890000Y-84116000D02*
X126890000Y-79968000D01*
X126850000Y-84119000D02*
X126850000Y-79965000D01*
X126810000Y-84121000D02*
X126810000Y-79963000D01*
X126770000Y-84122000D02*
X126770000Y-79962000D01*
X126730000Y-84122000D02*
X126730000Y-79962000D01*
X128850000Y-82042000D02*
G75*
G03X128850000Y-82042000I-2120000J0D01*
G01*
X133962000Y-82042000D02*
G75*
G03X133962000Y-82042000I-2120000J0D01*
G01*
X131842000Y-79962000D02*
X131842000Y-84122000D01*
X131802000Y-79962000D02*
X131802000Y-84122000D01*
X131762000Y-79963000D02*
X131762000Y-84121000D01*
X131722000Y-79965000D02*
X131722000Y-84119000D01*
X131682000Y-79968000D02*
X131682000Y-84116000D01*
X131642000Y-79971000D02*
X131642000Y-81202000D01*
X131642000Y-82882000D02*
X131642000Y-84113000D01*
X131602000Y-79975000D02*
X131602000Y-81202000D01*
X131602000Y-82882000D02*
X131602000Y-84109000D01*
X131562000Y-79980000D02*
X131562000Y-81202000D01*
X131562000Y-82882000D02*
X131562000Y-84104000D01*
X131522000Y-79986000D02*
X131522000Y-81202000D01*
X131522000Y-82882000D02*
X131522000Y-84098000D01*
X131482000Y-79992000D02*
X131482000Y-81202000D01*
X131482000Y-82882000D02*
X131482000Y-84092000D01*
X131442000Y-80000000D02*
X131442000Y-81202000D01*
X131442000Y-82882000D02*
X131442000Y-84084000D01*
X131402000Y-80008000D02*
X131402000Y-81202000D01*
X131402000Y-82882000D02*
X131402000Y-84076000D01*
X131362000Y-80017000D02*
X131362000Y-81202000D01*
X131362000Y-82882000D02*
X131362000Y-84067000D01*
X131322000Y-80026000D02*
X131322000Y-81202000D01*
X131322000Y-82882000D02*
X131322000Y-84058000D01*
X131282000Y-80037000D02*
X131282000Y-81202000D01*
X131282000Y-82882000D02*
X131282000Y-84047000D01*
X131242000Y-80048000D02*
X131242000Y-81202000D01*
X131242000Y-82882000D02*
X131242000Y-84036000D01*
X131202000Y-80060000D02*
X131202000Y-81202000D01*
X131202000Y-82882000D02*
X131202000Y-84024000D01*
X131162000Y-80074000D02*
X131162000Y-81202000D01*
X131162000Y-82882000D02*
X131162000Y-84010000D01*
X131121000Y-80088000D02*
X131121000Y-81202000D01*
X131121000Y-82882000D02*
X131121000Y-83996000D01*
X131081000Y-80102000D02*
X131081000Y-81202000D01*
X131081000Y-82882000D02*
X131081000Y-83982000D01*
X131041000Y-80118000D02*
X131041000Y-81202000D01*
X131041000Y-82882000D02*
X131041000Y-83966000D01*
X131001000Y-80135000D02*
X131001000Y-81202000D01*
X131001000Y-82882000D02*
X131001000Y-83949000D01*
X130961000Y-80153000D02*
X130961000Y-81202000D01*
X130961000Y-82882000D02*
X130961000Y-83931000D01*
X130921000Y-80172000D02*
X130921000Y-81202000D01*
X130921000Y-82882000D02*
X130921000Y-83912000D01*
X130881000Y-80191000D02*
X130881000Y-81202000D01*
X130881000Y-82882000D02*
X130881000Y-83893000D01*
X130841000Y-80212000D02*
X130841000Y-81202000D01*
X130841000Y-82882000D02*
X130841000Y-83872000D01*
X130801000Y-80234000D02*
X130801000Y-81202000D01*
X130801000Y-82882000D02*
X130801000Y-83850000D01*
X130761000Y-80257000D02*
X130761000Y-81202000D01*
X130761000Y-82882000D02*
X130761000Y-83827000D01*
X130721000Y-80282000D02*
X130721000Y-81202000D01*
X130721000Y-82882000D02*
X130721000Y-83802000D01*
X130681000Y-80307000D02*
X130681000Y-81202000D01*
X130681000Y-82882000D02*
X130681000Y-83777000D01*
X130641000Y-80334000D02*
X130641000Y-81202000D01*
X130641000Y-82882000D02*
X130641000Y-83750000D01*
X130601000Y-80362000D02*
X130601000Y-81202000D01*
X130601000Y-82882000D02*
X130601000Y-83722000D01*
X130561000Y-80392000D02*
X130561000Y-81202000D01*
X130561000Y-82882000D02*
X130561000Y-83692000D01*
X130521000Y-80423000D02*
X130521000Y-81202000D01*
X130521000Y-82882000D02*
X130521000Y-83661000D01*
X130481000Y-80455000D02*
X130481000Y-81202000D01*
X130481000Y-82882000D02*
X130481000Y-83629000D01*
X130441000Y-80490000D02*
X130441000Y-81202000D01*
X130441000Y-82882000D02*
X130441000Y-83594000D01*
X130401000Y-80526000D02*
X130401000Y-81202000D01*
X130401000Y-82882000D02*
X130401000Y-83558000D01*
X130361000Y-80564000D02*
X130361000Y-81202000D01*
X130361000Y-82882000D02*
X130361000Y-83520000D01*
X130321000Y-80604000D02*
X130321000Y-81202000D01*
X130321000Y-82882000D02*
X130321000Y-83480000D01*
X130281000Y-80646000D02*
X130281000Y-81202000D01*
X130281000Y-82882000D02*
X130281000Y-83438000D01*
X130241000Y-80691000D02*
X130241000Y-81202000D01*
X130241000Y-82882000D02*
X130241000Y-83393000D01*
X130201000Y-80738000D02*
X130201000Y-81202000D01*
X130201000Y-82882000D02*
X130201000Y-83346000D01*
X130161000Y-80788000D02*
X130161000Y-81202000D01*
X130161000Y-82882000D02*
X130161000Y-83296000D01*
X130121000Y-80842000D02*
X130121000Y-81202000D01*
X130121000Y-82882000D02*
X130121000Y-83242000D01*
X130081000Y-80900000D02*
X130081000Y-81202000D01*
X130081000Y-82882000D02*
X130081000Y-83184000D01*
X130041000Y-80962000D02*
X130041000Y-81202000D01*
X130041000Y-82882000D02*
X130041000Y-83122000D01*
X130001000Y-81029000D02*
X130001000Y-83055000D01*
X129961000Y-81102000D02*
X129961000Y-82982000D01*
X129921000Y-81183000D02*
X129921000Y-82901000D01*
X129881000Y-81274000D02*
X129881000Y-82810000D01*
X129841000Y-81378000D02*
X129841000Y-82706000D01*
X129801000Y-81505000D02*
X129801000Y-82579000D01*
X129761000Y-81672000D02*
X129761000Y-82412000D01*
X134111801Y-80847000D02*
X133711801Y-80847000D01*
X133911801Y-80647000D02*
X133911801Y-81047000D01*
D10*
X154257285Y-69120000D02*
X154352523Y-69072380D01*
X154495380Y-69072380D01*
X154638238Y-69120000D01*
X154733476Y-69215238D01*
X154781095Y-69310476D01*
X154828714Y-69500952D01*
X154828714Y-69643809D01*
X154781095Y-69834285D01*
X154733476Y-69929523D01*
X154638238Y-70024761D01*
X154495380Y-70072380D01*
X154400142Y-70072380D01*
X154257285Y-70024761D01*
X154209666Y-69977142D01*
X154209666Y-69643809D01*
X154400142Y-69643809D01*
X153781095Y-70072380D02*
X153781095Y-69072380D01*
X153400142Y-69072380D01*
X153304904Y-69120000D01*
X153257285Y-69167619D01*
X153209666Y-69262857D01*
X153209666Y-69405714D01*
X153257285Y-69500952D01*
X153304904Y-69548571D01*
X153400142Y-69596190D01*
X153781095Y-69596190D01*
X152828714Y-70024761D02*
X152685857Y-70072380D01*
X152447761Y-70072380D01*
X152352523Y-70024761D01*
X152304904Y-69977142D01*
X152257285Y-69881904D01*
X152257285Y-69786666D01*
X152304904Y-69691428D01*
X152352523Y-69643809D01*
X152447761Y-69596190D01*
X152638238Y-69548571D01*
X152733476Y-69500952D01*
X152781095Y-69453333D01*
X152828714Y-69358095D01*
X152828714Y-69262857D01*
X152781095Y-69167619D01*
X152733476Y-69120000D01*
X152638238Y-69072380D01*
X152400142Y-69072380D01*
X152257285Y-69120000D01*
X131254285Y-72144380D02*
X130920952Y-73144380D01*
X130587619Y-72144380D01*
X129682857Y-73144380D02*
X130016190Y-72668190D01*
X130254285Y-73144380D02*
X130254285Y-72144380D01*
X129873333Y-72144380D01*
X129778095Y-72192000D01*
X129730476Y-72239619D01*
X129682857Y-72334857D01*
X129682857Y-72477714D01*
X129730476Y-72572952D01*
X129778095Y-72620571D01*
X129873333Y-72668190D01*
X130254285Y-72668190D01*
X128873333Y-73096761D02*
X128968571Y-73144380D01*
X129159047Y-73144380D01*
X129254285Y-73096761D01*
X129301904Y-73001523D01*
X129301904Y-72620571D01*
X129254285Y-72525333D01*
X129159047Y-72477714D01*
X128968571Y-72477714D01*
X128873333Y-72525333D01*
X128825714Y-72620571D01*
X128825714Y-72715809D01*
X129301904Y-72811047D01*
X127968571Y-72477714D02*
X127968571Y-73287238D01*
X128016190Y-73382476D01*
X128063809Y-73430095D01*
X128159047Y-73477714D01*
X128301904Y-73477714D01*
X128397142Y-73430095D01*
X127968571Y-73096761D02*
X128063809Y-73144380D01*
X128254285Y-73144380D01*
X128349523Y-73096761D01*
X128397142Y-73049142D01*
X128444761Y-72953904D01*
X128444761Y-72668190D01*
X128397142Y-72572952D01*
X128349523Y-72525333D01*
X128254285Y-72477714D01*
X128063809Y-72477714D01*
X127968571Y-72525333D01*
X123372619Y-79684857D02*
X123325000Y-79732476D01*
X123277380Y-79827714D01*
X123277380Y-80065809D01*
X123325000Y-80161047D01*
X123372619Y-80208666D01*
X123467857Y-80256285D01*
X123563095Y-80256285D01*
X123705952Y-80208666D01*
X124277380Y-79637238D01*
X124277380Y-80256285D01*
X124182142Y-80684857D02*
X124229761Y-80732476D01*
X124277380Y-80684857D01*
X124229761Y-80637238D01*
X124182142Y-80684857D01*
X124277380Y-80684857D01*
X123372619Y-81113428D02*
X123325000Y-81161047D01*
X123277380Y-81256285D01*
X123277380Y-81494380D01*
X123325000Y-81589619D01*
X123372619Y-81637238D01*
X123467857Y-81684857D01*
X123563095Y-81684857D01*
X123705952Y-81637238D01*
X124277380Y-81065809D01*
X124277380Y-81684857D01*
X123610714Y-82542000D02*
X124277380Y-82542000D01*
X123610714Y-82113428D02*
X124134523Y-82113428D01*
X124229761Y-82161047D01*
X124277380Y-82256285D01*
X124277380Y-82399142D01*
X124229761Y-82494380D01*
X124182142Y-82542000D01*
X123753571Y-83351523D02*
X123753571Y-83018190D01*
X124277380Y-83018190D02*
X123277380Y-83018190D01*
X123277380Y-83494380D01*
X124277380Y-84399142D02*
X124277380Y-83827714D01*
X124277380Y-84113428D02*
X123277380Y-84113428D01*
X123420238Y-84018190D01*
X123515476Y-83922952D01*
X123563095Y-83827714D01*
X135469380Y-79446761D02*
X135469380Y-79542000D01*
X135517000Y-79637238D01*
X135564619Y-79684857D01*
X135659857Y-79732476D01*
X135850333Y-79780095D01*
X136088428Y-79780095D01*
X136278904Y-79732476D01*
X136374142Y-79684857D01*
X136421761Y-79637238D01*
X136469380Y-79542000D01*
X136469380Y-79446761D01*
X136421761Y-79351523D01*
X136374142Y-79303904D01*
X136278904Y-79256285D01*
X136088428Y-79208666D01*
X135850333Y-79208666D01*
X135659857Y-79256285D01*
X135564619Y-79303904D01*
X135517000Y-79351523D01*
X135469380Y-79446761D01*
X136374142Y-80208666D02*
X136421761Y-80256285D01*
X136469380Y-80208666D01*
X136421761Y-80161047D01*
X136374142Y-80208666D01*
X136469380Y-80208666D01*
X135802714Y-81113428D02*
X136469380Y-81113428D01*
X135421761Y-80875333D02*
X136136047Y-80637238D01*
X136136047Y-81256285D01*
X135469380Y-81542000D02*
X135469380Y-82208666D01*
X136469380Y-81780095D01*
X135802714Y-83018190D02*
X136469380Y-83018190D01*
X135802714Y-82589619D02*
X136326523Y-82589619D01*
X136421761Y-82637238D01*
X136469380Y-82732476D01*
X136469380Y-82875333D01*
X136421761Y-82970571D01*
X136374142Y-83018190D01*
X135945571Y-83827714D02*
X135945571Y-83494380D01*
X136469380Y-83494380D02*
X135469380Y-83494380D01*
X135469380Y-83970571D01*
X136469380Y-84875333D02*
X136469380Y-84303904D01*
X136469380Y-84589619D02*
X135469380Y-84589619D01*
X135612238Y-84494380D01*
X135707476Y-84399142D01*
X135755095Y-84303904D01*
M02*
