G04 #@! TF.GenerationSoftware,KiCad,Pcbnew,(5.1.5)-3*
G04 #@! TF.CreationDate,2020-03-21T13:19:14-05:00*
G04 #@! TF.ProjectId,PMT_PCB,504d545f-5043-4422-9e6b-696361645f70,rev?*
G04 #@! TF.SameCoordinates,Original*
G04 #@! TF.FileFunction,Copper,L2,Bot*
G04 #@! TF.FilePolarity,Positive*
%FSLAX46Y46*%
G04 Gerber Fmt 4.6, Leading zero omitted, Abs format (unit mm)*
G04 Created by KiCad (PCBNEW (5.1.5)-3) date 2020-03-21 13:19:14*
%MOMM*%
%LPD*%
G04 APERTURE LIST*
%ADD10O,2.500000X2.500000*%
%ADD11R,2.500000X2.500000*%
%ADD12O,1.700000X1.700000*%
%ADD13R,1.700000X1.700000*%
%ADD14O,1.905000X2.000000*%
%ADD15R,1.905000X2.000000*%
%ADD16C,1.700000*%
%ADD17C,1.200000*%
%ADD18R,1.200000X1.200000*%
%ADD19C,0.800000*%
%ADD20C,0.250000*%
%ADD21C,0.200000*%
G04 APERTURE END LIST*
D10*
X158750000Y-109220000D03*
D11*
X153670000Y-109220000D03*
D12*
X148590000Y-111252000D03*
D13*
X146050000Y-111252000D03*
D12*
X153543000Y-80010000D03*
X153543000Y-77470000D03*
X153543000Y-74930000D03*
D13*
X153543000Y-72390000D03*
D14*
X127000000Y-76962000D03*
X129540000Y-76962000D03*
D15*
X132080000Y-76962000D03*
D12*
X161290000Y-82042000D03*
X161290000Y-84582000D03*
X161290000Y-87122000D03*
X161290000Y-89662000D03*
X161290000Y-92202000D03*
X161290000Y-94742000D03*
X161290000Y-97282000D03*
D13*
X161290000Y-99822000D03*
X161290000Y-76200000D03*
D12*
X161290000Y-73660000D03*
X161290000Y-71120000D03*
X161290000Y-68580000D03*
X161290000Y-66040000D03*
X161290000Y-63500000D03*
X161290000Y-60960000D03*
D16*
X138430000Y-60960000D03*
D12*
X138430000Y-83820000D03*
X138430000Y-86360000D03*
X138430000Y-88900000D03*
X138430000Y-71120000D03*
X138430000Y-63500000D03*
X138430000Y-78740000D03*
X138430000Y-81280000D03*
X138430000Y-96520000D03*
X138430000Y-106680000D03*
X138430000Y-68580000D03*
X138430000Y-66040000D03*
X138430000Y-99060000D03*
X138430000Y-109220000D03*
X138430000Y-104140000D03*
X138430000Y-91440000D03*
X138430000Y-73660000D03*
X138430000Y-93980000D03*
X138430000Y-76200000D03*
X138430000Y-101600000D03*
D13*
X120650000Y-60960000D03*
D12*
X120650000Y-83820000D03*
X120650000Y-86360000D03*
X120650000Y-88900000D03*
X120650000Y-71120000D03*
X120650000Y-63500000D03*
X120650000Y-78740000D03*
X120650000Y-81280000D03*
X120650000Y-96520000D03*
X120650000Y-106680000D03*
X120650000Y-68580000D03*
X120650000Y-66040000D03*
X120650000Y-99060000D03*
X120650000Y-109220000D03*
X120650000Y-104140000D03*
X120650000Y-91440000D03*
X120650000Y-73660000D03*
X120650000Y-93980000D03*
X120650000Y-76200000D03*
X120650000Y-101600000D03*
D17*
X127730000Y-82042000D03*
D18*
X125730000Y-82042000D03*
X132842000Y-82042000D03*
D17*
X130842000Y-82042000D03*
D19*
X134366000Y-64516000D03*
X128270000Y-92710000D03*
X125730000Y-90170000D03*
X148844000Y-88392000D03*
X146812000Y-93410000D03*
X150114000Y-92456000D03*
X152146000Y-89662000D03*
X133350000Y-87630000D03*
X130810000Y-87630000D03*
X147828000Y-69342000D03*
X147828000Y-71374000D03*
X151638000Y-83058000D03*
X157734000Y-71374000D03*
X129540000Y-88900000D03*
X135128000Y-86360000D03*
X141224000Y-82550000D03*
X135636000Y-83820000D03*
X131064000Y-85090000D03*
D20*
X135382000Y-63500000D02*
X138430000Y-63500000D01*
X134366000Y-64516000D02*
X135382000Y-63500000D01*
X147320000Y-72390000D02*
X138430000Y-63500000D01*
X153543000Y-72390000D02*
X147320000Y-72390000D01*
X154940000Y-72390000D02*
X153543000Y-72390000D01*
X161290000Y-66040000D02*
X154940000Y-72390000D01*
X160440001Y-93892001D02*
X159678001Y-93892001D01*
X161290000Y-94742000D02*
X160440001Y-93892001D01*
X159678001Y-93892001D02*
X156718000Y-90932000D01*
X156718000Y-74168000D02*
X154940000Y-72390000D01*
X156718000Y-90932000D02*
X156718000Y-74168000D01*
X163576000Y-104394000D02*
X163576000Y-97028000D01*
X163576000Y-97028000D02*
X161290000Y-94742000D01*
X158750000Y-109220000D02*
X163576000Y-104394000D01*
X156718000Y-111252000D02*
X158750000Y-109220000D01*
X148590000Y-111252000D02*
X156718000Y-111252000D01*
X137674999Y-87630000D02*
X138994001Y-87630000D01*
X132835001Y-82797001D02*
X137668000Y-87630000D01*
X138994001Y-87630000D02*
X146050000Y-94685999D01*
X151154000Y-108204000D02*
X146050000Y-108204000D01*
X146050000Y-94780998D02*
X146050000Y-108204000D01*
X132842000Y-82790002D02*
X132835001Y-82797001D01*
X132842000Y-82042000D02*
X132842000Y-82790002D01*
X152170000Y-109220000D02*
X153670000Y-109220000D01*
X151154000Y-108204000D02*
X152170000Y-109220000D01*
X146050000Y-111252000D02*
X146050000Y-108204000D01*
X137227919Y-66040000D02*
X138430000Y-66040000D01*
X136672000Y-66040000D02*
X137227919Y-66040000D01*
X127000000Y-75712000D02*
X136672000Y-66040000D01*
X127000000Y-76962000D02*
X127000000Y-75712000D01*
X161290000Y-99822000D02*
X160190000Y-99822000D01*
X153543000Y-93175000D02*
X153543000Y-80010000D01*
X160190000Y-99822000D02*
X153543000Y-93175000D01*
X152340919Y-80010000D02*
X151578919Y-79248000D01*
X153543000Y-80010000D02*
X152340919Y-80010000D01*
X151578919Y-79248000D02*
X147066000Y-79248000D01*
X147066000Y-79248000D02*
X141478000Y-73660000D01*
X141478000Y-69088000D02*
X138430000Y-66040000D01*
X141478000Y-73660000D02*
X141478000Y-69088000D01*
D21*
X128270000Y-92710000D02*
X125730000Y-90170000D01*
X148844000Y-88392000D02*
X148844000Y-91378000D01*
X148844000Y-91378000D02*
X146812000Y-93410000D01*
X150114000Y-92456000D02*
X152146000Y-90424000D01*
X152146000Y-90424000D02*
X152146000Y-89662000D01*
X133350000Y-87630000D02*
X130810000Y-87630000D01*
X147828000Y-69342000D02*
X147828000Y-71374000D01*
X143950081Y-83058000D02*
X151638000Y-83058000D01*
X138430000Y-78740000D02*
X139632081Y-78740000D01*
X139632081Y-78740000D02*
X143950081Y-83058000D01*
X161290000Y-73660000D02*
X160020000Y-73660000D01*
X160020000Y-73660000D02*
X157734000Y-71374000D01*
X134728001Y-86759999D02*
X134728001Y-88283999D01*
X135128000Y-86360000D02*
X134728001Y-86759999D01*
X134112000Y-88900000D02*
X129540000Y-88900000D01*
X134728001Y-88283999D02*
X134112000Y-88900000D01*
X136786001Y-84970001D02*
X135636000Y-83820000D01*
X139369684Y-84970001D02*
X136786001Y-84970001D01*
X141224000Y-82550000D02*
X141224000Y-83115685D01*
X141224000Y-83115685D02*
X139369684Y-84970001D01*
X124460000Y-88392000D02*
X124460000Y-97790000D01*
X124460000Y-97790000D02*
X120650000Y-101600000D01*
X131064000Y-85090000D02*
X127762000Y-85090000D01*
X127762000Y-85090000D02*
X124460000Y-88392000D01*
M02*
