G04 #@! TF.GenerationSoftware,KiCad,Pcbnew,(5.1.5)-3*
G04 #@! TF.CreationDate,2020-03-26T17:49:49-05:00*
G04 #@! TF.ProjectId,PMT_PCB,504d545f-5043-4422-9e6b-696361645f70,rev?*
G04 #@! TF.SameCoordinates,Original*
G04 #@! TF.FileFunction,Legend,Top*
G04 #@! TF.FilePolarity,Positive*
%FSLAX46Y46*%
G04 Gerber Fmt 4.6, Leading zero omitted, Abs format (unit mm)*
G04 Created by KiCad (PCBNEW (5.1.5)-3) date 2020-03-26 17:49:49*
%MOMM*%
%LPD*%
G04 APERTURE LIST*
%ADD10C,0.150000*%
%ADD11C,0.120000*%
G04 APERTURE END LIST*
D10*
X142193047Y-136612380D02*
X142764476Y-136612380D01*
X142478761Y-137612380D02*
X142478761Y-136612380D01*
X143097809Y-137088571D02*
X143431142Y-137088571D01*
X143574000Y-137612380D02*
X143097809Y-137612380D01*
X143097809Y-136612380D01*
X143574000Y-136612380D01*
X144574000Y-137612380D02*
X144240666Y-137136190D01*
X144002571Y-137612380D02*
X144002571Y-136612380D01*
X144383523Y-136612380D01*
X144478761Y-136660000D01*
X144526380Y-136707619D01*
X144574000Y-136802857D01*
X144574000Y-136945714D01*
X144526380Y-137040952D01*
X144478761Y-137088571D01*
X144383523Y-137136190D01*
X144002571Y-137136190D01*
X145002571Y-137612380D02*
X145002571Y-136612380D01*
X145335904Y-137326666D01*
X145669238Y-136612380D01*
X145669238Y-137612380D01*
X145907333Y-137707619D02*
X146669238Y-137707619D01*
X146907333Y-137612380D02*
X146907333Y-136612380D01*
X147288285Y-136612380D01*
X147383523Y-136660000D01*
X147431142Y-136707619D01*
X147478761Y-136802857D01*
X147478761Y-136945714D01*
X147431142Y-137040952D01*
X147383523Y-137088571D01*
X147288285Y-137136190D01*
X146907333Y-137136190D01*
X147812095Y-136612380D02*
X148050190Y-137612380D01*
X148240666Y-136898095D01*
X148431142Y-137612380D01*
X148669238Y-136612380D01*
X149621619Y-137612380D02*
X149288285Y-137136190D01*
X149050190Y-137612380D02*
X149050190Y-136612380D01*
X149431142Y-136612380D01*
X149526380Y-136660000D01*
X149574000Y-136707619D01*
X149621619Y-136802857D01*
X149621619Y-136945714D01*
X149574000Y-137040952D01*
X149526380Y-137088571D01*
X149431142Y-137136190D01*
X149050190Y-137136190D01*
X150812095Y-137231428D02*
X151574000Y-137231428D01*
X152050190Y-136945714D02*
X152812095Y-137231428D01*
X152050190Y-137517142D01*
X141788095Y-142533714D02*
X141026190Y-142819428D01*
X141788095Y-143105142D01*
X142264285Y-142819428D02*
X143026190Y-142819428D01*
X144597619Y-142676571D02*
X144740476Y-142724190D01*
X144788095Y-142771809D01*
X144835714Y-142867047D01*
X144835714Y-143009904D01*
X144788095Y-143105142D01*
X144740476Y-143152761D01*
X144645238Y-143200380D01*
X144264285Y-143200380D01*
X144264285Y-142200380D01*
X144597619Y-142200380D01*
X144692857Y-142248000D01*
X144740476Y-142295619D01*
X144788095Y-142390857D01*
X144788095Y-142486095D01*
X144740476Y-142581333D01*
X144692857Y-142628952D01*
X144597619Y-142676571D01*
X144264285Y-142676571D01*
X145216666Y-142914666D02*
X145692857Y-142914666D01*
X145121428Y-143200380D02*
X145454761Y-142200380D01*
X145788095Y-143200380D01*
X145978571Y-142200380D02*
X146550000Y-142200380D01*
X146264285Y-143200380D02*
X146264285Y-142200380D01*
X146740476Y-142200380D02*
X147311904Y-142200380D01*
X147026190Y-143200380D02*
X147026190Y-142200380D01*
X147407142Y-143295619D02*
X148169047Y-143295619D01*
X148407142Y-143200380D02*
X148407142Y-142200380D01*
X148788095Y-142200380D01*
X148883333Y-142248000D01*
X148930952Y-142295619D01*
X148978571Y-142390857D01*
X148978571Y-142533714D01*
X148930952Y-142628952D01*
X148883333Y-142676571D01*
X148788095Y-142724190D01*
X148407142Y-142724190D01*
X149311904Y-142200380D02*
X149550000Y-143200380D01*
X149740476Y-142486095D01*
X149930952Y-143200380D01*
X150169047Y-142200380D01*
X151121428Y-143200380D02*
X150788095Y-142724190D01*
X150550000Y-143200380D02*
X150550000Y-142200380D01*
X150930952Y-142200380D01*
X151026190Y-142248000D01*
X151073809Y-142295619D01*
X151121428Y-142390857D01*
X151121428Y-142533714D01*
X151073809Y-142628952D01*
X151026190Y-142676571D01*
X150930952Y-142724190D01*
X150550000Y-142724190D01*
X168529047Y-92527428D02*
X169290952Y-92527428D01*
X168529047Y-99385428D02*
X169290952Y-99385428D01*
X169203619Y-116832190D02*
X168203619Y-117165523D01*
X169203619Y-117498857D01*
X168203619Y-117832190D02*
X168870285Y-117832190D01*
X169203619Y-117832190D02*
X169156000Y-117784571D01*
X169108380Y-117832190D01*
X169156000Y-117879809D01*
X169203619Y-117832190D01*
X169108380Y-117832190D01*
X168870285Y-118308380D02*
X168203619Y-118308380D01*
X168775047Y-118308380D02*
X168822666Y-118356000D01*
X168870285Y-118451238D01*
X168870285Y-118594095D01*
X168822666Y-118689333D01*
X168727428Y-118736952D01*
X168203619Y-118736952D01*
X166616000Y-117348095D02*
X166663619Y-117252857D01*
X166663619Y-117110000D01*
X166616000Y-116967142D01*
X166520761Y-116871904D01*
X166425523Y-116824285D01*
X166235047Y-116776666D01*
X166092190Y-116776666D01*
X165901714Y-116824285D01*
X165806476Y-116871904D01*
X165711238Y-116967142D01*
X165663619Y-117110000D01*
X165663619Y-117205238D01*
X165711238Y-117348095D01*
X165758857Y-117395714D01*
X166092190Y-117395714D01*
X166092190Y-117205238D01*
X165663619Y-117824285D02*
X166663619Y-117824285D01*
X165663619Y-118395714D01*
X166663619Y-118395714D01*
X165663619Y-118871904D02*
X166663619Y-118871904D01*
X166663619Y-119110000D01*
X166616000Y-119252857D01*
X166520761Y-119348095D01*
X166425523Y-119395714D01*
X166235047Y-119443333D01*
X166092190Y-119443333D01*
X165901714Y-119395714D01*
X165806476Y-119348095D01*
X165711238Y-119252857D01*
X165663619Y-119110000D01*
X165663619Y-118871904D01*
X164123619Y-116887809D02*
X164123619Y-117506857D01*
X163742666Y-117173523D01*
X163742666Y-117316380D01*
X163695047Y-117411619D01*
X163647428Y-117459238D01*
X163552190Y-117506857D01*
X163314095Y-117506857D01*
X163218857Y-117459238D01*
X163171238Y-117411619D01*
X163123619Y-117316380D01*
X163123619Y-117030666D01*
X163171238Y-116935428D01*
X163218857Y-116887809D01*
X163218857Y-117935428D02*
X163171238Y-117983047D01*
X163123619Y-117935428D01*
X163171238Y-117887809D01*
X163218857Y-117935428D01*
X163123619Y-117935428D01*
X164123619Y-118316380D02*
X164123619Y-118935428D01*
X163742666Y-118602095D01*
X163742666Y-118744952D01*
X163695047Y-118840190D01*
X163647428Y-118887809D01*
X163552190Y-118935428D01*
X163314095Y-118935428D01*
X163218857Y-118887809D01*
X163171238Y-118840190D01*
X163123619Y-118744952D01*
X163123619Y-118459238D01*
X163171238Y-118364000D01*
X163218857Y-118316380D01*
X164123619Y-119221142D02*
X163123619Y-119554476D01*
X164123619Y-119887809D01*
X144970952Y-147788380D02*
X144494761Y-147788380D01*
X144447142Y-148264571D01*
X144494761Y-148216952D01*
X144590000Y-148169333D01*
X144828095Y-148169333D01*
X144923333Y-148216952D01*
X144970952Y-148264571D01*
X145018571Y-148359809D01*
X145018571Y-148597904D01*
X144970952Y-148693142D01*
X144923333Y-148740761D01*
X144828095Y-148788380D01*
X144590000Y-148788380D01*
X144494761Y-148740761D01*
X144447142Y-148693142D01*
X145637619Y-147788380D02*
X145732857Y-147788380D01*
X145828095Y-147836000D01*
X145875714Y-147883619D01*
X145923333Y-147978857D01*
X145970952Y-148169333D01*
X145970952Y-148407428D01*
X145923333Y-148597904D01*
X145875714Y-148693142D01*
X145828095Y-148740761D01*
X145732857Y-148788380D01*
X145637619Y-148788380D01*
X145542380Y-148740761D01*
X145494761Y-148693142D01*
X145447142Y-148597904D01*
X145399523Y-148407428D01*
X145399523Y-148169333D01*
X145447142Y-147978857D01*
X145494761Y-147883619D01*
X145542380Y-147836000D01*
X145637619Y-147788380D01*
X146399523Y-148693142D02*
X146447142Y-148740761D01*
X146399523Y-148788380D01*
X146351904Y-148740761D01*
X146399523Y-148693142D01*
X146399523Y-148788380D01*
X147018571Y-148216952D02*
X146923333Y-148169333D01*
X146875714Y-148121714D01*
X146828095Y-148026476D01*
X146828095Y-147978857D01*
X146875714Y-147883619D01*
X146923333Y-147836000D01*
X147018571Y-147788380D01*
X147209047Y-147788380D01*
X147304285Y-147836000D01*
X147351904Y-147883619D01*
X147399523Y-147978857D01*
X147399523Y-148026476D01*
X147351904Y-148121714D01*
X147304285Y-148169333D01*
X147209047Y-148216952D01*
X147018571Y-148216952D01*
X146923333Y-148264571D01*
X146875714Y-148312190D01*
X146828095Y-148407428D01*
X146828095Y-148597904D01*
X146875714Y-148693142D01*
X146923333Y-148740761D01*
X147018571Y-148788380D01*
X147209047Y-148788380D01*
X147304285Y-148740761D01*
X147351904Y-148693142D01*
X147399523Y-148597904D01*
X147399523Y-148407428D01*
X147351904Y-148312190D01*
X147304285Y-148264571D01*
X147209047Y-148216952D01*
X148018571Y-147788380D02*
X148113809Y-147788380D01*
X148209047Y-147836000D01*
X148256666Y-147883619D01*
X148304285Y-147978857D01*
X148351904Y-148169333D01*
X148351904Y-148407428D01*
X148304285Y-148597904D01*
X148256666Y-148693142D01*
X148209047Y-148740761D01*
X148113809Y-148788380D01*
X148018571Y-148788380D01*
X147923333Y-148740761D01*
X147875714Y-148693142D01*
X147828095Y-148597904D01*
X147780476Y-148407428D01*
X147780476Y-148169333D01*
X147828095Y-147978857D01*
X147875714Y-147883619D01*
X147923333Y-147836000D01*
X148018571Y-147788380D01*
X148970952Y-147788380D02*
X149066190Y-147788380D01*
X149161428Y-147836000D01*
X149209047Y-147883619D01*
X149256666Y-147978857D01*
X149304285Y-148169333D01*
X149304285Y-148407428D01*
X149256666Y-148597904D01*
X149209047Y-148693142D01*
X149161428Y-148740761D01*
X149066190Y-148788380D01*
X148970952Y-148788380D01*
X148875714Y-148740761D01*
X148828095Y-148693142D01*
X148780476Y-148597904D01*
X148732857Y-148407428D01*
X148732857Y-148169333D01*
X148780476Y-147978857D01*
X148828095Y-147883619D01*
X148875714Y-147836000D01*
X148970952Y-147788380D01*
X150494761Y-148788380D02*
X150494761Y-148121714D01*
X150494761Y-148216952D02*
X150542380Y-148169333D01*
X150637619Y-148121714D01*
X150780476Y-148121714D01*
X150875714Y-148169333D01*
X150923333Y-148264571D01*
X150923333Y-148788380D01*
X150923333Y-148264571D02*
X150970952Y-148169333D01*
X151066190Y-148121714D01*
X151209047Y-148121714D01*
X151304285Y-148169333D01*
X151351904Y-148264571D01*
X151351904Y-148788380D01*
X151828095Y-148788380D02*
X151828095Y-148121714D01*
X151828095Y-148216952D02*
X151875714Y-148169333D01*
X151970952Y-148121714D01*
X152113809Y-148121714D01*
X152209047Y-148169333D01*
X152256666Y-148264571D01*
X152256666Y-148788380D01*
X152256666Y-148264571D02*
X152304285Y-148169333D01*
X152399523Y-148121714D01*
X152542380Y-148121714D01*
X152637619Y-148169333D01*
X152685238Y-148264571D01*
X152685238Y-148788380D01*
D11*
X123190000Y-147066000D02*
X173990000Y-147066000D01*
X123190000Y-144018000D02*
X123190000Y-147652421D01*
X173990000Y-144018000D02*
X173990000Y-147652421D01*
X173990000Y-147066000D02*
X172863496Y-147652421D01*
X173990000Y-147066000D02*
X172863496Y-146479579D01*
X123190000Y-147066000D02*
X124316504Y-147652421D01*
X123190000Y-147066000D02*
X124316504Y-146479579D01*
D10*
X116387619Y-88281380D02*
X116387619Y-87709952D01*
X116387619Y-87995666D02*
X117387619Y-87995666D01*
X117244761Y-87900428D01*
X117149523Y-87805190D01*
X117101904Y-87709952D01*
X117387619Y-88900428D02*
X117387619Y-88995666D01*
X117340000Y-89090904D01*
X117292380Y-89138523D01*
X117197142Y-89186142D01*
X117006666Y-89233761D01*
X116768571Y-89233761D01*
X116578095Y-89186142D01*
X116482857Y-89138523D01*
X116435238Y-89090904D01*
X116387619Y-88995666D01*
X116387619Y-88900428D01*
X116435238Y-88805190D01*
X116482857Y-88757571D01*
X116578095Y-88709952D01*
X116768571Y-88662333D01*
X117006666Y-88662333D01*
X117197142Y-88709952D01*
X117292380Y-88757571D01*
X117340000Y-88805190D01*
X117387619Y-88900428D01*
X117387619Y-89567095D02*
X117387619Y-90186142D01*
X117006666Y-89852809D01*
X117006666Y-89995666D01*
X116959047Y-90090904D01*
X116911428Y-90138523D01*
X116816190Y-90186142D01*
X116578095Y-90186142D01*
X116482857Y-90138523D01*
X116435238Y-90090904D01*
X116387619Y-89995666D01*
X116387619Y-89709952D01*
X116435238Y-89614714D01*
X116482857Y-89567095D01*
X116482857Y-90614714D02*
X116435238Y-90662333D01*
X116387619Y-90614714D01*
X116435238Y-90567095D01*
X116482857Y-90614714D01*
X116387619Y-90614714D01*
X117387619Y-90995666D02*
X117387619Y-91614714D01*
X117006666Y-91281380D01*
X117006666Y-91424238D01*
X116959047Y-91519476D01*
X116911428Y-91567095D01*
X116816190Y-91614714D01*
X116578095Y-91614714D01*
X116482857Y-91567095D01*
X116435238Y-91519476D01*
X116387619Y-91424238D01*
X116387619Y-91138523D01*
X116435238Y-91043285D01*
X116482857Y-90995666D01*
X117387619Y-91948047D02*
X117387619Y-92614714D01*
X116387619Y-92186142D01*
X116959047Y-93138523D02*
X117006666Y-93043285D01*
X117054285Y-92995666D01*
X117149523Y-92948047D01*
X117197142Y-92948047D01*
X117292380Y-92995666D01*
X117340000Y-93043285D01*
X117387619Y-93138523D01*
X117387619Y-93329000D01*
X117340000Y-93424238D01*
X117292380Y-93471857D01*
X117197142Y-93519476D01*
X117149523Y-93519476D01*
X117054285Y-93471857D01*
X117006666Y-93424238D01*
X116959047Y-93329000D01*
X116959047Y-93138523D01*
X116911428Y-93043285D01*
X116863809Y-92995666D01*
X116768571Y-92948047D01*
X116578095Y-92948047D01*
X116482857Y-92995666D01*
X116435238Y-93043285D01*
X116387619Y-93138523D01*
X116387619Y-93329000D01*
X116435238Y-93424238D01*
X116482857Y-93471857D01*
X116578095Y-93519476D01*
X116768571Y-93519476D01*
X116863809Y-93471857D01*
X116911428Y-93424238D01*
X116959047Y-93329000D01*
X116387619Y-94709952D02*
X117054285Y-94709952D01*
X116959047Y-94709952D02*
X117006666Y-94757571D01*
X117054285Y-94852809D01*
X117054285Y-94995666D01*
X117006666Y-95090904D01*
X116911428Y-95138523D01*
X116387619Y-95138523D01*
X116911428Y-95138523D02*
X117006666Y-95186142D01*
X117054285Y-95281380D01*
X117054285Y-95424238D01*
X117006666Y-95519476D01*
X116911428Y-95567095D01*
X116387619Y-95567095D01*
X116387619Y-96043285D02*
X117054285Y-96043285D01*
X116959047Y-96043285D02*
X117006666Y-96090904D01*
X117054285Y-96186142D01*
X117054285Y-96329000D01*
X117006666Y-96424238D01*
X116911428Y-96471857D01*
X116387619Y-96471857D01*
X116911428Y-96471857D02*
X117006666Y-96519476D01*
X117054285Y-96614714D01*
X117054285Y-96757571D01*
X117006666Y-96852809D01*
X116911428Y-96900428D01*
X116387619Y-96900428D01*
D11*
X118110000Y-40640000D02*
X118110000Y-144018000D01*
X123190000Y-40640000D02*
X117523579Y-40640000D01*
X123190000Y-144018000D02*
X117523579Y-144018000D01*
X118110000Y-144018000D02*
X117523579Y-142891496D01*
X118110000Y-144018000D02*
X118696421Y-142891496D01*
X118110000Y-40640000D02*
X117523579Y-41766504D01*
X118110000Y-40640000D02*
X118696421Y-41766504D01*
X243332000Y-81788000D02*
X243332000Y-143002000D01*
X195834000Y-81788000D02*
X243332000Y-81788000D01*
X195834000Y-143002000D02*
X195834000Y-81788000D01*
X243332000Y-143002000D02*
X195834000Y-143002000D01*
D10*
X217876380Y-116498190D02*
X217876380Y-116974380D01*
X216876380Y-116974380D01*
X217876380Y-116164857D02*
X216876380Y-116164857D01*
X217876380Y-115688666D02*
X216876380Y-115688666D01*
X216876380Y-115307714D01*
X216924000Y-115212476D01*
X216971619Y-115164857D01*
X217066857Y-115117238D01*
X217209714Y-115117238D01*
X217304952Y-115164857D01*
X217352571Y-115212476D01*
X217400190Y-115307714D01*
X217400190Y-115688666D01*
X216876380Y-114498190D02*
X216876380Y-114307714D01*
X216924000Y-114212476D01*
X217019238Y-114117238D01*
X217209714Y-114069619D01*
X217543047Y-114069619D01*
X217733523Y-114117238D01*
X217828761Y-114212476D01*
X217876380Y-114307714D01*
X217876380Y-114498190D01*
X217828761Y-114593428D01*
X217733523Y-114688666D01*
X217543047Y-114736285D01*
X217209714Y-114736285D01*
X217019238Y-114688666D01*
X216924000Y-114593428D01*
X216876380Y-114498190D01*
X217352571Y-112545809D02*
X217400190Y-112402952D01*
X217447809Y-112355333D01*
X217543047Y-112307714D01*
X217685904Y-112307714D01*
X217781142Y-112355333D01*
X217828761Y-112402952D01*
X217876380Y-112498190D01*
X217876380Y-112879142D01*
X216876380Y-112879142D01*
X216876380Y-112545809D01*
X216924000Y-112450571D01*
X216971619Y-112402952D01*
X217066857Y-112355333D01*
X217162095Y-112355333D01*
X217257333Y-112402952D01*
X217304952Y-112450571D01*
X217352571Y-112545809D01*
X217352571Y-112879142D01*
X217876380Y-111450571D02*
X217352571Y-111450571D01*
X217257333Y-111498190D01*
X217209714Y-111593428D01*
X217209714Y-111783904D01*
X217257333Y-111879142D01*
X217828761Y-111450571D02*
X217876380Y-111545809D01*
X217876380Y-111783904D01*
X217828761Y-111879142D01*
X217733523Y-111926761D01*
X217638285Y-111926761D01*
X217543047Y-111879142D01*
X217495428Y-111783904D01*
X217495428Y-111545809D01*
X217447809Y-111450571D01*
X217209714Y-111117238D02*
X217209714Y-110736285D01*
X216876380Y-110974380D02*
X217733523Y-110974380D01*
X217828761Y-110926761D01*
X217876380Y-110831523D01*
X217876380Y-110736285D01*
X217209714Y-110545809D02*
X217209714Y-110164857D01*
X216876380Y-110402952D02*
X217733523Y-110402952D01*
X217828761Y-110355333D01*
X217876380Y-110260095D01*
X217876380Y-110164857D01*
X217828761Y-109450571D02*
X217876380Y-109545809D01*
X217876380Y-109736285D01*
X217828761Y-109831523D01*
X217733523Y-109879142D01*
X217352571Y-109879142D01*
X217257333Y-109831523D01*
X217209714Y-109736285D01*
X217209714Y-109545809D01*
X217257333Y-109450571D01*
X217352571Y-109402952D01*
X217447809Y-109402952D01*
X217543047Y-109879142D01*
X217876380Y-108974380D02*
X217209714Y-108974380D01*
X217400190Y-108974380D02*
X217304952Y-108926761D01*
X217257333Y-108879142D01*
X217209714Y-108783904D01*
X217209714Y-108688666D01*
X217209714Y-108450571D02*
X217876380Y-108212476D01*
X217209714Y-107974380D02*
X217876380Y-108212476D01*
X218114476Y-108307714D01*
X218162095Y-108355333D01*
X218209714Y-108450571D01*
D11*
X171236000Y-130810000D02*
X161036000Y-130810000D01*
X160996000Y-116427000D02*
X160996000Y-130810000D01*
X171236000Y-116427000D02*
X171236000Y-130810000D01*
D10*
X245880000Y-69452619D02*
X245832380Y-69547857D01*
X245832380Y-69690714D01*
X245880000Y-69833571D01*
X245975238Y-69928809D01*
X246070476Y-69976428D01*
X246260952Y-70024047D01*
X246403809Y-70024047D01*
X246594285Y-69976428D01*
X246689523Y-69928809D01*
X246784761Y-69833571D01*
X246832380Y-69690714D01*
X246832380Y-69595476D01*
X246784761Y-69452619D01*
X246737142Y-69405000D01*
X246403809Y-69405000D01*
X246403809Y-69595476D01*
X246832380Y-68976428D02*
X245832380Y-68976428D01*
X245832380Y-68595476D01*
X245880000Y-68500238D01*
X245927619Y-68452619D01*
X246022857Y-68405000D01*
X246165714Y-68405000D01*
X246260952Y-68452619D01*
X246308571Y-68500238D01*
X246356190Y-68595476D01*
X246356190Y-68976428D01*
X246784761Y-68024047D02*
X246832380Y-67881190D01*
X246832380Y-67643095D01*
X246784761Y-67547857D01*
X246737142Y-67500238D01*
X246641904Y-67452619D01*
X246546666Y-67452619D01*
X246451428Y-67500238D01*
X246403809Y-67547857D01*
X246356190Y-67643095D01*
X246308571Y-67833571D01*
X246260952Y-67928809D01*
X246213333Y-67976428D01*
X246118095Y-68024047D01*
X246022857Y-68024047D01*
X245927619Y-67976428D01*
X245880000Y-67928809D01*
X245832380Y-67833571D01*
X245832380Y-67595476D01*
X245880000Y-67452619D01*
X246927619Y-67262142D02*
X246927619Y-66500238D01*
X246546666Y-66309761D02*
X246546666Y-65833571D01*
X246832380Y-66405000D02*
X245832380Y-66071666D01*
X246832380Y-65738333D01*
X246165714Y-65405000D02*
X246832380Y-65405000D01*
X246260952Y-65405000D02*
X246213333Y-65357380D01*
X246165714Y-65262142D01*
X246165714Y-65119285D01*
X246213333Y-65024047D01*
X246308571Y-64976428D01*
X246832380Y-64976428D01*
X246165714Y-64643095D02*
X246165714Y-64262142D01*
X245832380Y-64500238D02*
X246689523Y-64500238D01*
X246784761Y-64452619D01*
X246832380Y-64357380D01*
X246832380Y-64262142D01*
X246784761Y-63547857D02*
X246832380Y-63643095D01*
X246832380Y-63833571D01*
X246784761Y-63928809D01*
X246689523Y-63976428D01*
X246308571Y-63976428D01*
X246213333Y-63928809D01*
X246165714Y-63833571D01*
X246165714Y-63643095D01*
X246213333Y-63547857D01*
X246308571Y-63500238D01*
X246403809Y-63500238D01*
X246499047Y-63976428D01*
X246165714Y-63071666D02*
X246832380Y-63071666D01*
X246260952Y-63071666D02*
X246213333Y-63024047D01*
X246165714Y-62928809D01*
X246165714Y-62785952D01*
X246213333Y-62690714D01*
X246308571Y-62643095D01*
X246832380Y-62643095D01*
X246165714Y-62166904D02*
X246832380Y-62166904D01*
X246260952Y-62166904D02*
X246213333Y-62119285D01*
X246165714Y-62024047D01*
X246165714Y-61881190D01*
X246213333Y-61785952D01*
X246308571Y-61738333D01*
X246832380Y-61738333D01*
X246832380Y-60833571D02*
X246308571Y-60833571D01*
X246213333Y-60881190D01*
X246165714Y-60976428D01*
X246165714Y-61166904D01*
X246213333Y-61262142D01*
X246784761Y-60833571D02*
X246832380Y-60928809D01*
X246832380Y-61166904D01*
X246784761Y-61262142D01*
X246689523Y-61309761D01*
X246594285Y-61309761D01*
X246499047Y-61262142D01*
X246451428Y-61166904D01*
X246451428Y-60928809D01*
X246403809Y-60833571D01*
D11*
X233045000Y-53340000D02*
X233045000Y-78740000D01*
X258445000Y-53340000D02*
X233045000Y-53340000D01*
X258445000Y-78740000D02*
X258445000Y-53340000D01*
X233045000Y-78740000D02*
X258445000Y-78740000D01*
D10*
X137287047Y-142819428D02*
X138048952Y-142819428D01*
X134747047Y-142819428D02*
X135508952Y-142819428D01*
X135128000Y-143200380D02*
X135128000Y-142438476D01*
X142033809Y-51776380D02*
X142652857Y-51776380D01*
X142319523Y-52157333D01*
X142462380Y-52157333D01*
X142557619Y-52204952D01*
X142605238Y-52252571D01*
X142652857Y-52347809D01*
X142652857Y-52585904D01*
X142605238Y-52681142D01*
X142557619Y-52728761D01*
X142462380Y-52776380D01*
X142176666Y-52776380D01*
X142081428Y-52728761D01*
X142033809Y-52681142D01*
X143081428Y-52681142D02*
X143129047Y-52728761D01*
X143081428Y-52776380D01*
X143033809Y-52728761D01*
X143081428Y-52681142D01*
X143081428Y-52776380D01*
X143462380Y-51776380D02*
X144081428Y-51776380D01*
X143748095Y-52157333D01*
X143890952Y-52157333D01*
X143986190Y-52204952D01*
X144033809Y-52252571D01*
X144081428Y-52347809D01*
X144081428Y-52585904D01*
X144033809Y-52681142D01*
X143986190Y-52728761D01*
X143890952Y-52776380D01*
X143605238Y-52776380D01*
X143510000Y-52728761D01*
X143462380Y-52681142D01*
X144367142Y-51776380D02*
X144700476Y-52776380D01*
X145033809Y-51776380D01*
X130603809Y-46442380D02*
X131222857Y-46442380D01*
X130889523Y-46823333D01*
X131032380Y-46823333D01*
X131127619Y-46870952D01*
X131175238Y-46918571D01*
X131222857Y-47013809D01*
X131222857Y-47251904D01*
X131175238Y-47347142D01*
X131127619Y-47394761D01*
X131032380Y-47442380D01*
X130746666Y-47442380D01*
X130651428Y-47394761D01*
X130603809Y-47347142D01*
X131651428Y-47347142D02*
X131699047Y-47394761D01*
X131651428Y-47442380D01*
X131603809Y-47394761D01*
X131651428Y-47347142D01*
X131651428Y-47442380D01*
X132032380Y-46442380D02*
X132651428Y-46442380D01*
X132318095Y-46823333D01*
X132460952Y-46823333D01*
X132556190Y-46870952D01*
X132603809Y-46918571D01*
X132651428Y-47013809D01*
X132651428Y-47251904D01*
X132603809Y-47347142D01*
X132556190Y-47394761D01*
X132460952Y-47442380D01*
X132175238Y-47442380D01*
X132080000Y-47394761D01*
X132032380Y-47347142D01*
X132937142Y-46442380D02*
X133270476Y-47442380D01*
X133603809Y-46442380D01*
X163369809Y-57618380D02*
X163988857Y-57618380D01*
X163655523Y-57999333D01*
X163798380Y-57999333D01*
X163893619Y-58046952D01*
X163941238Y-58094571D01*
X163988857Y-58189809D01*
X163988857Y-58427904D01*
X163941238Y-58523142D01*
X163893619Y-58570761D01*
X163798380Y-58618380D01*
X163512666Y-58618380D01*
X163417428Y-58570761D01*
X163369809Y-58523142D01*
X164417428Y-58523142D02*
X164465047Y-58570761D01*
X164417428Y-58618380D01*
X164369809Y-58570761D01*
X164417428Y-58523142D01*
X164417428Y-58618380D01*
X164798380Y-57618380D02*
X165417428Y-57618380D01*
X165084095Y-57999333D01*
X165226952Y-57999333D01*
X165322190Y-58046952D01*
X165369809Y-58094571D01*
X165417428Y-58189809D01*
X165417428Y-58427904D01*
X165369809Y-58523142D01*
X165322190Y-58570761D01*
X165226952Y-58618380D01*
X164941238Y-58618380D01*
X164846000Y-58570761D01*
X164798380Y-58523142D01*
X165703142Y-57618380D02*
X166036476Y-58618380D01*
X166369809Y-57618380D01*
X163369809Y-86066380D02*
X163988857Y-86066380D01*
X163655523Y-86447333D01*
X163798380Y-86447333D01*
X163893619Y-86494952D01*
X163941238Y-86542571D01*
X163988857Y-86637809D01*
X163988857Y-86875904D01*
X163941238Y-86971142D01*
X163893619Y-87018761D01*
X163798380Y-87066380D01*
X163512666Y-87066380D01*
X163417428Y-87018761D01*
X163369809Y-86971142D01*
X164417428Y-86971142D02*
X164465047Y-87018761D01*
X164417428Y-87066380D01*
X164369809Y-87018761D01*
X164417428Y-86971142D01*
X164417428Y-87066380D01*
X164798380Y-86066380D02*
X165417428Y-86066380D01*
X165084095Y-86447333D01*
X165226952Y-86447333D01*
X165322190Y-86494952D01*
X165369809Y-86542571D01*
X165417428Y-86637809D01*
X165417428Y-86875904D01*
X165369809Y-86971142D01*
X165322190Y-87018761D01*
X165226952Y-87066380D01*
X164941238Y-87066380D01*
X164846000Y-87018761D01*
X164798380Y-86971142D01*
X165703142Y-86066380D02*
X166036476Y-87066380D01*
X166369809Y-86066380D01*
X147486619Y-103044809D02*
X147486619Y-103663857D01*
X147105666Y-103330523D01*
X147105666Y-103473380D01*
X147058047Y-103568619D01*
X147010428Y-103616238D01*
X146915190Y-103663857D01*
X146677095Y-103663857D01*
X146581857Y-103616238D01*
X146534238Y-103568619D01*
X146486619Y-103473380D01*
X146486619Y-103187666D01*
X146534238Y-103092428D01*
X146581857Y-103044809D01*
X146581857Y-104092428D02*
X146534238Y-104140047D01*
X146486619Y-104092428D01*
X146534238Y-104044809D01*
X146581857Y-104092428D01*
X146486619Y-104092428D01*
X147486619Y-104473380D02*
X147486619Y-105092428D01*
X147105666Y-104759095D01*
X147105666Y-104901952D01*
X147058047Y-104997190D01*
X147010428Y-105044809D01*
X146915190Y-105092428D01*
X146677095Y-105092428D01*
X146581857Y-105044809D01*
X146534238Y-104997190D01*
X146486619Y-104901952D01*
X146486619Y-104616238D01*
X146534238Y-104521000D01*
X146581857Y-104473380D01*
X147486619Y-105378142D02*
X146486619Y-105711476D01*
X147486619Y-106044809D01*
X139819000Y-103759095D02*
X139866619Y-103663857D01*
X139866619Y-103521000D01*
X139819000Y-103378142D01*
X139723761Y-103282904D01*
X139628523Y-103235285D01*
X139438047Y-103187666D01*
X139295190Y-103187666D01*
X139104714Y-103235285D01*
X139009476Y-103282904D01*
X138914238Y-103378142D01*
X138866619Y-103521000D01*
X138866619Y-103616238D01*
X138914238Y-103759095D01*
X138961857Y-103806714D01*
X139295190Y-103806714D01*
X139295190Y-103616238D01*
X138866619Y-104235285D02*
X139866619Y-104235285D01*
X138866619Y-104806714D01*
X139866619Y-104806714D01*
X138866619Y-105282904D02*
X139866619Y-105282904D01*
X139866619Y-105521000D01*
X139819000Y-105663857D01*
X139723761Y-105759095D01*
X139628523Y-105806714D01*
X139438047Y-105854333D01*
X139295190Y-105854333D01*
X139104714Y-105806714D01*
X139009476Y-105759095D01*
X138914238Y-105663857D01*
X138866619Y-105521000D01*
X138866619Y-105282904D01*
X143946619Y-103719333D02*
X144422809Y-103386000D01*
X143946619Y-103147904D02*
X144946619Y-103147904D01*
X144946619Y-103528857D01*
X144899000Y-103624095D01*
X144851380Y-103671714D01*
X144756142Y-103719333D01*
X144613285Y-103719333D01*
X144518047Y-103671714D01*
X144470428Y-103624095D01*
X144422809Y-103528857D01*
X144422809Y-103147904D01*
X144946619Y-104052666D02*
X143946619Y-104719333D01*
X144946619Y-104719333D02*
X143946619Y-104052666D01*
X142406619Y-103124095D02*
X142406619Y-103695523D01*
X141406619Y-103409809D02*
X142406619Y-103409809D01*
X142406619Y-103933619D02*
X141406619Y-104600285D01*
X142406619Y-104600285D02*
X141406619Y-103933619D01*
X156337047Y-142819428D02*
X157098952Y-142819428D01*
X156718000Y-143200380D02*
X156718000Y-142438476D01*
X161671047Y-142819428D02*
X162432952Y-142819428D01*
X131223523Y-43902380D02*
X131223523Y-44711904D01*
X131271142Y-44807142D01*
X131318761Y-44854761D01*
X131414000Y-44902380D01*
X131604476Y-44902380D01*
X131699714Y-44854761D01*
X131747333Y-44807142D01*
X131794952Y-44711904D01*
X131794952Y-43902380D01*
X132223523Y-44854761D02*
X132366380Y-44902380D01*
X132604476Y-44902380D01*
X132699714Y-44854761D01*
X132747333Y-44807142D01*
X132794952Y-44711904D01*
X132794952Y-44616666D01*
X132747333Y-44521428D01*
X132699714Y-44473809D01*
X132604476Y-44426190D01*
X132414000Y-44378571D01*
X132318761Y-44330952D01*
X132271142Y-44283333D01*
X132223523Y-44188095D01*
X132223523Y-44092857D01*
X132271142Y-43997619D01*
X132318761Y-43950000D01*
X132414000Y-43902380D01*
X132652095Y-43902380D01*
X132794952Y-43950000D01*
X133556857Y-44378571D02*
X133699714Y-44426190D01*
X133747333Y-44473809D01*
X133794952Y-44569047D01*
X133794952Y-44711904D01*
X133747333Y-44807142D01*
X133699714Y-44854761D01*
X133604476Y-44902380D01*
X133223523Y-44902380D01*
X133223523Y-43902380D01*
X133556857Y-43902380D01*
X133652095Y-43950000D01*
X133699714Y-43997619D01*
X133747333Y-44092857D01*
X133747333Y-44188095D01*
X133699714Y-44283333D01*
X133652095Y-44330952D01*
X133556857Y-44378571D01*
X133223523Y-44378571D01*
X134985428Y-44902380D02*
X134985428Y-43902380D01*
X135366380Y-43902380D01*
X135461619Y-43950000D01*
X135509238Y-43997619D01*
X135556857Y-44092857D01*
X135556857Y-44235714D01*
X135509238Y-44330952D01*
X135461619Y-44378571D01*
X135366380Y-44426190D01*
X134985428Y-44426190D01*
X135985428Y-44902380D02*
X135985428Y-44235714D01*
X135985428Y-44426190D02*
X136033047Y-44330952D01*
X136080666Y-44283333D01*
X136175904Y-44235714D01*
X136271142Y-44235714D01*
X136747333Y-44902380D02*
X136652095Y-44854761D01*
X136604476Y-44807142D01*
X136556857Y-44711904D01*
X136556857Y-44426190D01*
X136604476Y-44330952D01*
X136652095Y-44283333D01*
X136747333Y-44235714D01*
X136890190Y-44235714D01*
X136985428Y-44283333D01*
X137033047Y-44330952D01*
X137080666Y-44426190D01*
X137080666Y-44711904D01*
X137033047Y-44807142D01*
X136985428Y-44854761D01*
X136890190Y-44902380D01*
X136747333Y-44902380D01*
X137937809Y-44235714D02*
X137937809Y-45045238D01*
X137890190Y-45140476D01*
X137842571Y-45188095D01*
X137747333Y-45235714D01*
X137604476Y-45235714D01*
X137509238Y-45188095D01*
X137937809Y-44854761D02*
X137842571Y-44902380D01*
X137652095Y-44902380D01*
X137556857Y-44854761D01*
X137509238Y-44807142D01*
X137461619Y-44711904D01*
X137461619Y-44426190D01*
X137509238Y-44330952D01*
X137556857Y-44283333D01*
X137652095Y-44235714D01*
X137842571Y-44235714D01*
X137937809Y-44283333D01*
X138414000Y-44902380D02*
X138414000Y-44235714D01*
X138414000Y-44426190D02*
X138461619Y-44330952D01*
X138509238Y-44283333D01*
X138604476Y-44235714D01*
X138699714Y-44235714D01*
X139461619Y-44902380D02*
X139461619Y-44378571D01*
X139414000Y-44283333D01*
X139318761Y-44235714D01*
X139128285Y-44235714D01*
X139033047Y-44283333D01*
X139461619Y-44854761D02*
X139366380Y-44902380D01*
X139128285Y-44902380D01*
X139033047Y-44854761D01*
X138985428Y-44759523D01*
X138985428Y-44664285D01*
X139033047Y-44569047D01*
X139128285Y-44521428D01*
X139366380Y-44521428D01*
X139461619Y-44473809D01*
X139937809Y-44902380D02*
X139937809Y-44235714D01*
X139937809Y-44330952D02*
X139985428Y-44283333D01*
X140080666Y-44235714D01*
X140223523Y-44235714D01*
X140318761Y-44283333D01*
X140366380Y-44378571D01*
X140366380Y-44902380D01*
X140366380Y-44378571D02*
X140414000Y-44283333D01*
X140509238Y-44235714D01*
X140652095Y-44235714D01*
X140747333Y-44283333D01*
X140794952Y-44378571D01*
X140794952Y-44902380D01*
X141271142Y-44902380D02*
X141271142Y-44235714D01*
X141271142Y-44330952D02*
X141318761Y-44283333D01*
X141414000Y-44235714D01*
X141556857Y-44235714D01*
X141652095Y-44283333D01*
X141699714Y-44378571D01*
X141699714Y-44902380D01*
X141699714Y-44378571D02*
X141747333Y-44283333D01*
X141842571Y-44235714D01*
X141985428Y-44235714D01*
X142080666Y-44283333D01*
X142128285Y-44378571D01*
X142128285Y-44902380D01*
X142985428Y-44854761D02*
X142890190Y-44902380D01*
X142699714Y-44902380D01*
X142604476Y-44854761D01*
X142556857Y-44759523D01*
X142556857Y-44378571D01*
X142604476Y-44283333D01*
X142699714Y-44235714D01*
X142890190Y-44235714D01*
X142985428Y-44283333D01*
X143033047Y-44378571D01*
X143033047Y-44473809D01*
X142556857Y-44569047D01*
X143461619Y-44902380D02*
X143461619Y-44235714D01*
X143461619Y-44426190D02*
X143509238Y-44330952D01*
X143556857Y-44283333D01*
X143652095Y-44235714D01*
X143747333Y-44235714D01*
D11*
X142942000Y-141284000D02*
X142942000Y-139954000D01*
X144272000Y-141284000D02*
X142942000Y-141284000D01*
X145542000Y-141284000D02*
X145542000Y-138624000D01*
X145542000Y-138624000D02*
X150682000Y-138624000D01*
X145542000Y-141284000D02*
X150682000Y-141284000D01*
X150682000Y-141284000D02*
X150682000Y-138624000D01*
X159512000Y-131699000D02*
X159512000Y-98679000D01*
X159512000Y-98679000D02*
X126492000Y-98679000D01*
X145542000Y-99635000D02*
X145542000Y-102295000D01*
X145542000Y-99635000D02*
X137862000Y-99635000D01*
X137862000Y-99635000D02*
X137862000Y-102295000D01*
X145542000Y-102295000D02*
X137862000Y-102295000D01*
X148142000Y-102295000D02*
X146812000Y-102295000D01*
X148142000Y-100965000D02*
X148142000Y-102295000D01*
X126492000Y-98679000D02*
X126492000Y-131699000D01*
X126492000Y-131699000D02*
X159512000Y-131699000D01*
X169732000Y-46676000D02*
X167072000Y-46676000D01*
X169732000Y-61976000D02*
X169732000Y-46676000D01*
X167072000Y-61976000D02*
X167072000Y-46676000D01*
X169732000Y-61976000D02*
X167072000Y-61976000D01*
X169732000Y-63246000D02*
X169732000Y-64576000D01*
X169732000Y-64576000D02*
X168402000Y-64576000D01*
X170180000Y-45720000D02*
X149098000Y-45720000D01*
X149098000Y-45720000D02*
X149098000Y-65786000D01*
X170180000Y-65786000D02*
X170180000Y-45720000D01*
X149098000Y-65786000D02*
X170180000Y-65786000D01*
X165426000Y-108077000D02*
G75*
G03X165426000Y-108077000I-2120000J0D01*
G01*
X163306000Y-105997000D02*
X163306000Y-110157000D01*
X163346000Y-105997000D02*
X163346000Y-110157000D01*
X163386000Y-105998000D02*
X163386000Y-110156000D01*
X163426000Y-106000000D02*
X163426000Y-110154000D01*
X163466000Y-106003000D02*
X163466000Y-110151000D01*
X163506000Y-106006000D02*
X163506000Y-107237000D01*
X163506000Y-108917000D02*
X163506000Y-110148000D01*
X163546000Y-106010000D02*
X163546000Y-107237000D01*
X163546000Y-108917000D02*
X163546000Y-110144000D01*
X163586000Y-106015000D02*
X163586000Y-107237000D01*
X163586000Y-108917000D02*
X163586000Y-110139000D01*
X163626000Y-106021000D02*
X163626000Y-107237000D01*
X163626000Y-108917000D02*
X163626000Y-110133000D01*
X163666000Y-106027000D02*
X163666000Y-107237000D01*
X163666000Y-108917000D02*
X163666000Y-110127000D01*
X163706000Y-106035000D02*
X163706000Y-107237000D01*
X163706000Y-108917000D02*
X163706000Y-110119000D01*
X163746000Y-106043000D02*
X163746000Y-107237000D01*
X163746000Y-108917000D02*
X163746000Y-110111000D01*
X163786000Y-106052000D02*
X163786000Y-107237000D01*
X163786000Y-108917000D02*
X163786000Y-110102000D01*
X163826000Y-106061000D02*
X163826000Y-107237000D01*
X163826000Y-108917000D02*
X163826000Y-110093000D01*
X163866000Y-106072000D02*
X163866000Y-107237000D01*
X163866000Y-108917000D02*
X163866000Y-110082000D01*
X163906000Y-106083000D02*
X163906000Y-107237000D01*
X163906000Y-108917000D02*
X163906000Y-110071000D01*
X163946000Y-106095000D02*
X163946000Y-107237000D01*
X163946000Y-108917000D02*
X163946000Y-110059000D01*
X163986000Y-106109000D02*
X163986000Y-107237000D01*
X163986000Y-108917000D02*
X163986000Y-110045000D01*
X164027000Y-106123000D02*
X164027000Y-107237000D01*
X164027000Y-108917000D02*
X164027000Y-110031000D01*
X164067000Y-106137000D02*
X164067000Y-107237000D01*
X164067000Y-108917000D02*
X164067000Y-110017000D01*
X164107000Y-106153000D02*
X164107000Y-107237000D01*
X164107000Y-108917000D02*
X164107000Y-110001000D01*
X164147000Y-106170000D02*
X164147000Y-107237000D01*
X164147000Y-108917000D02*
X164147000Y-109984000D01*
X164187000Y-106188000D02*
X164187000Y-107237000D01*
X164187000Y-108917000D02*
X164187000Y-109966000D01*
X164227000Y-106207000D02*
X164227000Y-107237000D01*
X164227000Y-108917000D02*
X164227000Y-109947000D01*
X164267000Y-106226000D02*
X164267000Y-107237000D01*
X164267000Y-108917000D02*
X164267000Y-109928000D01*
X164307000Y-106247000D02*
X164307000Y-107237000D01*
X164307000Y-108917000D02*
X164307000Y-109907000D01*
X164347000Y-106269000D02*
X164347000Y-107237000D01*
X164347000Y-108917000D02*
X164347000Y-109885000D01*
X164387000Y-106292000D02*
X164387000Y-107237000D01*
X164387000Y-108917000D02*
X164387000Y-109862000D01*
X164427000Y-106317000D02*
X164427000Y-107237000D01*
X164427000Y-108917000D02*
X164427000Y-109837000D01*
X164467000Y-106342000D02*
X164467000Y-107237000D01*
X164467000Y-108917000D02*
X164467000Y-109812000D01*
X164507000Y-106369000D02*
X164507000Y-107237000D01*
X164507000Y-108917000D02*
X164507000Y-109785000D01*
X164547000Y-106397000D02*
X164547000Y-107237000D01*
X164547000Y-108917000D02*
X164547000Y-109757000D01*
X164587000Y-106427000D02*
X164587000Y-107237000D01*
X164587000Y-108917000D02*
X164587000Y-109727000D01*
X164627000Y-106458000D02*
X164627000Y-107237000D01*
X164627000Y-108917000D02*
X164627000Y-109696000D01*
X164667000Y-106490000D02*
X164667000Y-107237000D01*
X164667000Y-108917000D02*
X164667000Y-109664000D01*
X164707000Y-106525000D02*
X164707000Y-107237000D01*
X164707000Y-108917000D02*
X164707000Y-109629000D01*
X164747000Y-106561000D02*
X164747000Y-107237000D01*
X164747000Y-108917000D02*
X164747000Y-109593000D01*
X164787000Y-106599000D02*
X164787000Y-107237000D01*
X164787000Y-108917000D02*
X164787000Y-109555000D01*
X164827000Y-106639000D02*
X164827000Y-107237000D01*
X164827000Y-108917000D02*
X164827000Y-109515000D01*
X164867000Y-106681000D02*
X164867000Y-107237000D01*
X164867000Y-108917000D02*
X164867000Y-109473000D01*
X164907000Y-106726000D02*
X164907000Y-107237000D01*
X164907000Y-108917000D02*
X164907000Y-109428000D01*
X164947000Y-106773000D02*
X164947000Y-107237000D01*
X164947000Y-108917000D02*
X164947000Y-109381000D01*
X164987000Y-106823000D02*
X164987000Y-107237000D01*
X164987000Y-108917000D02*
X164987000Y-109331000D01*
X165027000Y-106877000D02*
X165027000Y-107237000D01*
X165027000Y-108917000D02*
X165027000Y-109277000D01*
X165067000Y-106935000D02*
X165067000Y-107237000D01*
X165067000Y-108917000D02*
X165067000Y-109219000D01*
X165107000Y-106997000D02*
X165107000Y-107237000D01*
X165107000Y-108917000D02*
X165107000Y-109157000D01*
X165147000Y-107064000D02*
X165147000Y-109090000D01*
X165187000Y-107137000D02*
X165187000Y-109017000D01*
X165227000Y-107218000D02*
X165227000Y-108936000D01*
X165267000Y-107309000D02*
X165267000Y-108845000D01*
X165307000Y-107413000D02*
X165307000Y-108741000D01*
X165347000Y-107540000D02*
X165347000Y-108614000D01*
X165387000Y-107707000D02*
X165387000Y-108447000D01*
X161036199Y-106882000D02*
X161436199Y-106882000D01*
X161236199Y-106682000D02*
X161236199Y-107082000D01*
X158464000Y-95604000D02*
X158464000Y-95274000D01*
X151924000Y-95604000D02*
X158464000Y-95604000D01*
X151924000Y-95274000D02*
X151924000Y-95604000D01*
X158464000Y-92864000D02*
X158464000Y-93194000D01*
X151924000Y-92864000D02*
X158464000Y-92864000D01*
X151924000Y-93194000D02*
X151924000Y-92864000D01*
X158464000Y-92048000D02*
X158464000Y-91718000D01*
X151924000Y-92048000D02*
X158464000Y-92048000D01*
X151924000Y-91718000D02*
X151924000Y-92048000D01*
X158464000Y-89308000D02*
X158464000Y-89638000D01*
X151924000Y-89308000D02*
X158464000Y-89308000D01*
X151924000Y-89638000D02*
X151924000Y-89308000D01*
X166052000Y-97389000D02*
X165587000Y-97389000D01*
X168677000Y-97389000D02*
X168212000Y-97389000D01*
X166051571Y-102203479D02*
G75*
G02X166052000Y-97694316I1080429J2254479D01*
G01*
X168212429Y-102203479D02*
G75*
G03X168212000Y-97694316I-1080429J2254479D01*
G01*
X166051173Y-102736815D02*
G75*
G02X165587170Y-97389000I1080827J2787815D01*
G01*
X168212827Y-102736815D02*
G75*
G03X168676830Y-97389000I-1080827J2787815D01*
G01*
X166052000Y-90531000D02*
X165587000Y-90531000D01*
X168677000Y-90531000D02*
X168212000Y-90531000D01*
X166051571Y-95345479D02*
G75*
G02X166052000Y-90836316I1080429J2254479D01*
G01*
X168212429Y-95345479D02*
G75*
G03X168212000Y-90836316I-1080429J2254479D01*
G01*
X166051173Y-95878815D02*
G75*
G02X165587170Y-90531000I1080827J2787815D01*
G01*
X168212827Y-95878815D02*
G75*
G03X168676830Y-90531000I-1080827J2787815D01*
G01*
X155261000Y-139379000D02*
X155261000Y-138049000D01*
X156591000Y-139379000D02*
X155261000Y-139379000D01*
X160401000Y-139379000D02*
X160401000Y-136719000D01*
X160401000Y-136719000D02*
X163001000Y-136719000D01*
X160401000Y-139379000D02*
X163001000Y-139379000D01*
X163001000Y-139379000D02*
X163001000Y-136719000D01*
X133798000Y-141284000D02*
X133798000Y-139954000D01*
X135128000Y-141284000D02*
X133798000Y-141284000D01*
X136398000Y-141284000D02*
X136398000Y-138624000D01*
X136398000Y-138624000D02*
X138998000Y-138624000D01*
X136398000Y-141284000D02*
X138998000Y-141284000D01*
X138998000Y-141284000D02*
X138998000Y-138624000D01*
X171236000Y-116427000D02*
X160996000Y-116427000D01*
X171236000Y-111786000D02*
X160996000Y-111786000D01*
X171236000Y-116427000D02*
X171236000Y-111786000D01*
X160996000Y-116427000D02*
X160996000Y-111786000D01*
X171236000Y-114917000D02*
X160996000Y-114917000D01*
X167966000Y-116427000D02*
X167966000Y-114917000D01*
X164265000Y-116427000D02*
X164265000Y-114917000D01*
X170180000Y-88265000D02*
X170180000Y-66802000D01*
X149860000Y-88265000D02*
X170180000Y-88265000D01*
X149860000Y-88138000D02*
X149860000Y-88265000D01*
X149860000Y-88011000D02*
X149860000Y-88138000D01*
X149860000Y-87122000D02*
X149860000Y-88011000D01*
X149860000Y-66802000D02*
X149860000Y-87122000D01*
X170180000Y-66802000D02*
X149860000Y-66802000D01*
X168402000Y-87690000D02*
X167072000Y-87690000D01*
X167072000Y-87690000D02*
X167072000Y-86360000D01*
X167072000Y-85090000D02*
X167072000Y-67250000D01*
X169732000Y-67250000D02*
X167072000Y-67250000D01*
X169732000Y-85090000D02*
X169732000Y-67250000D01*
X169732000Y-85090000D02*
X167072000Y-85090000D01*
X130429000Y-45660000D02*
X148082000Y-45660000D01*
X130302000Y-45660000D02*
X130429000Y-45660000D01*
X127702000Y-45660000D02*
X130302000Y-45660000D01*
X127702000Y-45660000D02*
X127702000Y-96580000D01*
X148142000Y-96580000D02*
X148082000Y-45593000D01*
X127702000Y-96580000D02*
X148142000Y-96580000D01*
X145482000Y-48260000D02*
X148142000Y-48260000D01*
X145482000Y-46990000D02*
X145482000Y-45660000D01*
X145482000Y-45660000D02*
X146812000Y-45660000D01*
X145482000Y-48260000D02*
X145482000Y-96580000D01*
X145482000Y-96580000D02*
X148142000Y-96580000D01*
X148142000Y-48260000D02*
X148142000Y-96580000D01*
X127702000Y-48260000D02*
X130362000Y-48260000D01*
X127702000Y-46990000D02*
X127702000Y-45660000D01*
X127702000Y-45660000D02*
X129032000Y-45660000D01*
X127702000Y-48260000D02*
X127702000Y-96580000D01*
X127702000Y-96580000D02*
X130362000Y-96580000D01*
X130362000Y-48260000D02*
X130362000Y-96580000D01*
X170487801Y-109472000D02*
X170487801Y-109072000D01*
X170687801Y-109272000D02*
X170287801Y-109272000D01*
X166337000Y-108447000D02*
X166337000Y-107707000D01*
X166377000Y-108614000D02*
X166377000Y-107540000D01*
X166417000Y-108741000D02*
X166417000Y-107413000D01*
X166457000Y-108845000D02*
X166457000Y-107309000D01*
X166497000Y-108936000D02*
X166497000Y-107218000D01*
X166537000Y-109017000D02*
X166537000Y-107137000D01*
X166577000Y-109090000D02*
X166577000Y-107064000D01*
X166617000Y-107237000D02*
X166617000Y-106997000D01*
X166617000Y-109157000D02*
X166617000Y-108917000D01*
X166657000Y-107237000D02*
X166657000Y-106935000D01*
X166657000Y-109219000D02*
X166657000Y-108917000D01*
X166697000Y-107237000D02*
X166697000Y-106877000D01*
X166697000Y-109277000D02*
X166697000Y-108917000D01*
X166737000Y-107237000D02*
X166737000Y-106823000D01*
X166737000Y-109331000D02*
X166737000Y-108917000D01*
X166777000Y-107237000D02*
X166777000Y-106773000D01*
X166777000Y-109381000D02*
X166777000Y-108917000D01*
X166817000Y-107237000D02*
X166817000Y-106726000D01*
X166817000Y-109428000D02*
X166817000Y-108917000D01*
X166857000Y-107237000D02*
X166857000Y-106681000D01*
X166857000Y-109473000D02*
X166857000Y-108917000D01*
X166897000Y-107237000D02*
X166897000Y-106639000D01*
X166897000Y-109515000D02*
X166897000Y-108917000D01*
X166937000Y-107237000D02*
X166937000Y-106599000D01*
X166937000Y-109555000D02*
X166937000Y-108917000D01*
X166977000Y-107237000D02*
X166977000Y-106561000D01*
X166977000Y-109593000D02*
X166977000Y-108917000D01*
X167017000Y-107237000D02*
X167017000Y-106525000D01*
X167017000Y-109629000D02*
X167017000Y-108917000D01*
X167057000Y-107237000D02*
X167057000Y-106490000D01*
X167057000Y-109664000D02*
X167057000Y-108917000D01*
X167097000Y-107237000D02*
X167097000Y-106458000D01*
X167097000Y-109696000D02*
X167097000Y-108917000D01*
X167137000Y-107237000D02*
X167137000Y-106427000D01*
X167137000Y-109727000D02*
X167137000Y-108917000D01*
X167177000Y-107237000D02*
X167177000Y-106397000D01*
X167177000Y-109757000D02*
X167177000Y-108917000D01*
X167217000Y-107237000D02*
X167217000Y-106369000D01*
X167217000Y-109785000D02*
X167217000Y-108917000D01*
X167257000Y-107237000D02*
X167257000Y-106342000D01*
X167257000Y-109812000D02*
X167257000Y-108917000D01*
X167297000Y-107237000D02*
X167297000Y-106317000D01*
X167297000Y-109837000D02*
X167297000Y-108917000D01*
X167337000Y-107237000D02*
X167337000Y-106292000D01*
X167337000Y-109862000D02*
X167337000Y-108917000D01*
X167377000Y-107237000D02*
X167377000Y-106269000D01*
X167377000Y-109885000D02*
X167377000Y-108917000D01*
X167417000Y-107237000D02*
X167417000Y-106247000D01*
X167417000Y-109907000D02*
X167417000Y-108917000D01*
X167457000Y-107237000D02*
X167457000Y-106226000D01*
X167457000Y-109928000D02*
X167457000Y-108917000D01*
X167497000Y-107237000D02*
X167497000Y-106207000D01*
X167497000Y-109947000D02*
X167497000Y-108917000D01*
X167537000Y-107237000D02*
X167537000Y-106188000D01*
X167537000Y-109966000D02*
X167537000Y-108917000D01*
X167577000Y-107237000D02*
X167577000Y-106170000D01*
X167577000Y-109984000D02*
X167577000Y-108917000D01*
X167617000Y-107237000D02*
X167617000Y-106153000D01*
X167617000Y-110001000D02*
X167617000Y-108917000D01*
X167657000Y-107237000D02*
X167657000Y-106137000D01*
X167657000Y-110017000D02*
X167657000Y-108917000D01*
X167697000Y-107237000D02*
X167697000Y-106123000D01*
X167697000Y-110031000D02*
X167697000Y-108917000D01*
X167738000Y-107237000D02*
X167738000Y-106109000D01*
X167738000Y-110045000D02*
X167738000Y-108917000D01*
X167778000Y-107237000D02*
X167778000Y-106095000D01*
X167778000Y-110059000D02*
X167778000Y-108917000D01*
X167818000Y-107237000D02*
X167818000Y-106083000D01*
X167818000Y-110071000D02*
X167818000Y-108917000D01*
X167858000Y-107237000D02*
X167858000Y-106072000D01*
X167858000Y-110082000D02*
X167858000Y-108917000D01*
X167898000Y-107237000D02*
X167898000Y-106061000D01*
X167898000Y-110093000D02*
X167898000Y-108917000D01*
X167938000Y-107237000D02*
X167938000Y-106052000D01*
X167938000Y-110102000D02*
X167938000Y-108917000D01*
X167978000Y-107237000D02*
X167978000Y-106043000D01*
X167978000Y-110111000D02*
X167978000Y-108917000D01*
X168018000Y-107237000D02*
X168018000Y-106035000D01*
X168018000Y-110119000D02*
X168018000Y-108917000D01*
X168058000Y-107237000D02*
X168058000Y-106027000D01*
X168058000Y-110127000D02*
X168058000Y-108917000D01*
X168098000Y-107237000D02*
X168098000Y-106021000D01*
X168098000Y-110133000D02*
X168098000Y-108917000D01*
X168138000Y-107237000D02*
X168138000Y-106015000D01*
X168138000Y-110139000D02*
X168138000Y-108917000D01*
X168178000Y-107237000D02*
X168178000Y-106010000D01*
X168178000Y-110144000D02*
X168178000Y-108917000D01*
X168218000Y-107237000D02*
X168218000Y-106006000D01*
X168218000Y-110148000D02*
X168218000Y-108917000D01*
X168258000Y-110151000D02*
X168258000Y-106003000D01*
X168298000Y-110154000D02*
X168298000Y-106000000D01*
X168338000Y-110156000D02*
X168338000Y-105998000D01*
X168378000Y-110157000D02*
X168378000Y-105997000D01*
X168418000Y-110157000D02*
X168418000Y-105997000D01*
X170538000Y-108077000D02*
G75*
G03X170538000Y-108077000I-2120000J0D01*
G01*
D10*
X142033714Y-114054000D02*
X141938476Y-114006380D01*
X141795619Y-114006380D01*
X141652761Y-114054000D01*
X141557523Y-114149238D01*
X141509904Y-114244476D01*
X141462285Y-114434952D01*
X141462285Y-114577809D01*
X141509904Y-114768285D01*
X141557523Y-114863523D01*
X141652761Y-114958761D01*
X141795619Y-115006380D01*
X141890857Y-115006380D01*
X142033714Y-114958761D01*
X142081333Y-114911142D01*
X142081333Y-114577809D01*
X141890857Y-114577809D01*
X142509904Y-115006380D02*
X142509904Y-114006380D01*
X142890857Y-114006380D01*
X142986095Y-114054000D01*
X143033714Y-114101619D01*
X143081333Y-114196857D01*
X143081333Y-114339714D01*
X143033714Y-114434952D01*
X142986095Y-114482571D01*
X142890857Y-114530190D01*
X142509904Y-114530190D01*
X143462285Y-114958761D02*
X143605142Y-115006380D01*
X143843238Y-115006380D01*
X143938476Y-114958761D01*
X143986095Y-114911142D01*
X144033714Y-114815904D01*
X144033714Y-114720666D01*
X143986095Y-114625428D01*
X143938476Y-114577809D01*
X143843238Y-114530190D01*
X143652761Y-114482571D01*
X143557523Y-114434952D01*
X143509904Y-114387333D01*
X143462285Y-114292095D01*
X143462285Y-114196857D01*
X143509904Y-114101619D01*
X143557523Y-114054000D01*
X143652761Y-114006380D01*
X143890857Y-114006380D01*
X144033714Y-114054000D01*
X155869047Y-56538761D02*
X156011904Y-56586380D01*
X156250000Y-56586380D01*
X156345238Y-56538761D01*
X156392857Y-56491142D01*
X156440476Y-56395904D01*
X156440476Y-56300666D01*
X156392857Y-56205428D01*
X156345238Y-56157809D01*
X156250000Y-56110190D01*
X156059523Y-56062571D01*
X155964285Y-56014952D01*
X155916666Y-55967333D01*
X155869047Y-55872095D01*
X155869047Y-55776857D01*
X155916666Y-55681619D01*
X155964285Y-55634000D01*
X156059523Y-55586380D01*
X156297619Y-55586380D01*
X156440476Y-55634000D01*
X156869047Y-56586380D02*
X156869047Y-55586380D01*
X157107142Y-55586380D01*
X157250000Y-55634000D01*
X157345238Y-55729238D01*
X157392857Y-55824476D01*
X157440476Y-56014952D01*
X157440476Y-56157809D01*
X157392857Y-56348285D01*
X157345238Y-56443523D01*
X157250000Y-56538761D01*
X157107142Y-56586380D01*
X156869047Y-56586380D01*
X157630952Y-56681619D02*
X158392857Y-56681619D01*
X159202380Y-56491142D02*
X159154761Y-56538761D01*
X159011904Y-56586380D01*
X158916666Y-56586380D01*
X158773809Y-56538761D01*
X158678571Y-56443523D01*
X158630952Y-56348285D01*
X158583333Y-56157809D01*
X158583333Y-56014952D01*
X158630952Y-55824476D01*
X158678571Y-55729238D01*
X158773809Y-55634000D01*
X158916666Y-55586380D01*
X159011904Y-55586380D01*
X159154761Y-55634000D01*
X159202380Y-55681619D01*
X160059523Y-56586380D02*
X160059523Y-56062571D01*
X160011904Y-55967333D01*
X159916666Y-55919714D01*
X159726190Y-55919714D01*
X159630952Y-55967333D01*
X160059523Y-56538761D02*
X159964285Y-56586380D01*
X159726190Y-56586380D01*
X159630952Y-56538761D01*
X159583333Y-56443523D01*
X159583333Y-56348285D01*
X159630952Y-56253047D01*
X159726190Y-56205428D01*
X159964285Y-56205428D01*
X160059523Y-56157809D01*
X160535714Y-56586380D02*
X160535714Y-55919714D01*
X160535714Y-56110190D02*
X160583333Y-56014952D01*
X160630952Y-55967333D01*
X160726190Y-55919714D01*
X160821428Y-55919714D01*
X161583333Y-56586380D02*
X161583333Y-55586380D01*
X161583333Y-56538761D02*
X161488095Y-56586380D01*
X161297619Y-56586380D01*
X161202380Y-56538761D01*
X161154761Y-56491142D01*
X161107142Y-56395904D01*
X161107142Y-56110190D01*
X161154761Y-56014952D01*
X161202380Y-55967333D01*
X161297619Y-55919714D01*
X161488095Y-55919714D01*
X161583333Y-55967333D01*
X160964857Y-104449619D02*
X161012476Y-104402000D01*
X161107714Y-104354380D01*
X161345809Y-104354380D01*
X161441047Y-104402000D01*
X161488666Y-104449619D01*
X161536285Y-104544857D01*
X161536285Y-104640095D01*
X161488666Y-104782952D01*
X160917238Y-105354380D01*
X161536285Y-105354380D01*
X161964857Y-105259142D02*
X162012476Y-105306761D01*
X161964857Y-105354380D01*
X161917238Y-105306761D01*
X161964857Y-105259142D01*
X161964857Y-105354380D01*
X162393428Y-104449619D02*
X162441047Y-104402000D01*
X162536285Y-104354380D01*
X162774380Y-104354380D01*
X162869619Y-104402000D01*
X162917238Y-104449619D01*
X162964857Y-104544857D01*
X162964857Y-104640095D01*
X162917238Y-104782952D01*
X162345809Y-105354380D01*
X162964857Y-105354380D01*
X163822000Y-104687714D02*
X163822000Y-105354380D01*
X163393428Y-104687714D02*
X163393428Y-105211523D01*
X163441047Y-105306761D01*
X163536285Y-105354380D01*
X163679142Y-105354380D01*
X163774380Y-105306761D01*
X163822000Y-105259142D01*
X164631523Y-104830571D02*
X164298190Y-104830571D01*
X164298190Y-105354380D02*
X164298190Y-104354380D01*
X164774380Y-104354380D01*
X165679142Y-105354380D02*
X165107714Y-105354380D01*
X165393428Y-105354380D02*
X165393428Y-104354380D01*
X165298190Y-104497238D01*
X165202952Y-104592476D01*
X165107714Y-104640095D01*
X155027333Y-94686380D02*
X154694000Y-94210190D01*
X154455904Y-94686380D02*
X154455904Y-93686380D01*
X154836857Y-93686380D01*
X154932095Y-93734000D01*
X154979714Y-93781619D01*
X155027333Y-93876857D01*
X155027333Y-94019714D01*
X154979714Y-94114952D01*
X154932095Y-94162571D01*
X154836857Y-94210190D01*
X154455904Y-94210190D01*
X155408285Y-93781619D02*
X155455904Y-93734000D01*
X155551142Y-93686380D01*
X155789238Y-93686380D01*
X155884476Y-93734000D01*
X155932095Y-93781619D01*
X155979714Y-93876857D01*
X155979714Y-93972095D01*
X155932095Y-94114952D01*
X155360666Y-94686380D01*
X155979714Y-94686380D01*
X155027333Y-91130380D02*
X154694000Y-90654190D01*
X154455904Y-91130380D02*
X154455904Y-90130380D01*
X154836857Y-90130380D01*
X154932095Y-90178000D01*
X154979714Y-90225619D01*
X155027333Y-90320857D01*
X155027333Y-90463714D01*
X154979714Y-90558952D01*
X154932095Y-90606571D01*
X154836857Y-90654190D01*
X154455904Y-90654190D01*
X155979714Y-91130380D02*
X155408285Y-91130380D01*
X155694000Y-91130380D02*
X155694000Y-90130380D01*
X155598761Y-90273238D01*
X155503523Y-90368476D01*
X155408285Y-90416095D01*
X163012380Y-102599809D02*
X162012380Y-102599809D01*
X162012380Y-102361714D01*
X162060000Y-102218857D01*
X162155238Y-102123619D01*
X162250476Y-102076000D01*
X162440952Y-102028380D01*
X162583809Y-102028380D01*
X162774285Y-102076000D01*
X162869523Y-102123619D01*
X162964761Y-102218857D01*
X163012380Y-102361714D01*
X163012380Y-102599809D01*
X162964761Y-101218857D02*
X163012380Y-101314095D01*
X163012380Y-101504571D01*
X162964761Y-101599809D01*
X162869523Y-101647428D01*
X162488571Y-101647428D01*
X162393333Y-101599809D01*
X162345714Y-101504571D01*
X162345714Y-101314095D01*
X162393333Y-101218857D01*
X162488571Y-101171238D01*
X162583809Y-101171238D01*
X162679047Y-101647428D01*
X163012380Y-100742666D02*
X162012380Y-100742666D01*
X162393333Y-100742666D02*
X162345714Y-100647428D01*
X162345714Y-100456952D01*
X162393333Y-100361714D01*
X162440952Y-100314095D01*
X162536190Y-100266476D01*
X162821904Y-100266476D01*
X162917142Y-100314095D01*
X162964761Y-100361714D01*
X163012380Y-100456952D01*
X163012380Y-100647428D01*
X162964761Y-100742666D01*
X162345714Y-99409333D02*
X163012380Y-99409333D01*
X162345714Y-99837904D02*
X162869523Y-99837904D01*
X162964761Y-99790285D01*
X163012380Y-99695047D01*
X163012380Y-99552190D01*
X162964761Y-99456952D01*
X162917142Y-99409333D01*
X162345714Y-98504571D02*
X163155238Y-98504571D01*
X163250476Y-98552190D01*
X163298095Y-98599809D01*
X163345714Y-98695047D01*
X163345714Y-98837904D01*
X163298095Y-98933142D01*
X162964761Y-98504571D02*
X163012380Y-98599809D01*
X163012380Y-98790285D01*
X162964761Y-98885523D01*
X162917142Y-98933142D01*
X162821904Y-98980761D01*
X162536190Y-98980761D01*
X162440952Y-98933142D01*
X162393333Y-98885523D01*
X162345714Y-98790285D01*
X162345714Y-98599809D01*
X162393333Y-98504571D01*
X162107619Y-98076000D02*
X162060000Y-98028380D01*
X162012380Y-97933142D01*
X162012380Y-97695047D01*
X162060000Y-97599809D01*
X162107619Y-97552190D01*
X162202857Y-97504571D01*
X162298095Y-97504571D01*
X162440952Y-97552190D01*
X163012380Y-98123619D01*
X163012380Y-97504571D01*
X163012380Y-95741809D02*
X162012380Y-95741809D01*
X162012380Y-95503714D01*
X162060000Y-95360857D01*
X162155238Y-95265619D01*
X162250476Y-95218000D01*
X162440952Y-95170380D01*
X162583809Y-95170380D01*
X162774285Y-95218000D01*
X162869523Y-95265619D01*
X162964761Y-95360857D01*
X163012380Y-95503714D01*
X163012380Y-95741809D01*
X162964761Y-94360857D02*
X163012380Y-94456095D01*
X163012380Y-94646571D01*
X162964761Y-94741809D01*
X162869523Y-94789428D01*
X162488571Y-94789428D01*
X162393333Y-94741809D01*
X162345714Y-94646571D01*
X162345714Y-94456095D01*
X162393333Y-94360857D01*
X162488571Y-94313238D01*
X162583809Y-94313238D01*
X162679047Y-94789428D01*
X163012380Y-93884666D02*
X162012380Y-93884666D01*
X162393333Y-93884666D02*
X162345714Y-93789428D01*
X162345714Y-93598952D01*
X162393333Y-93503714D01*
X162440952Y-93456095D01*
X162536190Y-93408476D01*
X162821904Y-93408476D01*
X162917142Y-93456095D01*
X162964761Y-93503714D01*
X163012380Y-93598952D01*
X163012380Y-93789428D01*
X162964761Y-93884666D01*
X162345714Y-92551333D02*
X163012380Y-92551333D01*
X162345714Y-92979904D02*
X162869523Y-92979904D01*
X162964761Y-92932285D01*
X163012380Y-92837047D01*
X163012380Y-92694190D01*
X162964761Y-92598952D01*
X162917142Y-92551333D01*
X162345714Y-91646571D02*
X163155238Y-91646571D01*
X163250476Y-91694190D01*
X163298095Y-91741809D01*
X163345714Y-91837047D01*
X163345714Y-91979904D01*
X163298095Y-92075142D01*
X162964761Y-91646571D02*
X163012380Y-91741809D01*
X163012380Y-91932285D01*
X162964761Y-92027523D01*
X162917142Y-92075142D01*
X162821904Y-92122761D01*
X162536190Y-92122761D01*
X162440952Y-92075142D01*
X162393333Y-92027523D01*
X162345714Y-91932285D01*
X162345714Y-91741809D01*
X162393333Y-91646571D01*
X163012380Y-90646571D02*
X163012380Y-91218000D01*
X163012380Y-90932285D02*
X162012380Y-90932285D01*
X162155238Y-91027523D01*
X162250476Y-91122761D01*
X162298095Y-91218000D01*
X153178619Y-133627761D02*
X153321476Y-133675380D01*
X153559571Y-133675380D01*
X153654809Y-133627761D01*
X153702428Y-133580142D01*
X153750047Y-133484904D01*
X153750047Y-133389666D01*
X153702428Y-133294428D01*
X153654809Y-133246809D01*
X153559571Y-133199190D01*
X153369095Y-133151571D01*
X153273857Y-133103952D01*
X153226238Y-133056333D01*
X153178619Y-132961095D01*
X153178619Y-132865857D01*
X153226238Y-132770619D01*
X153273857Y-132723000D01*
X153369095Y-132675380D01*
X153607190Y-132675380D01*
X153750047Y-132723000D01*
X154607190Y-133627761D02*
X154511952Y-133675380D01*
X154321476Y-133675380D01*
X154226238Y-133627761D01*
X154178619Y-133580142D01*
X154131000Y-133484904D01*
X154131000Y-133199190D01*
X154178619Y-133103952D01*
X154226238Y-133056333D01*
X154321476Y-133008714D01*
X154511952Y-133008714D01*
X154607190Y-133056333D01*
X155035761Y-133675380D02*
X155035761Y-133008714D01*
X155035761Y-133199190D02*
X155083380Y-133103952D01*
X155131000Y-133056333D01*
X155226238Y-133008714D01*
X155321476Y-133008714D01*
X156035761Y-133627761D02*
X155940523Y-133675380D01*
X155750047Y-133675380D01*
X155654809Y-133627761D01*
X155607190Y-133532523D01*
X155607190Y-133151571D01*
X155654809Y-133056333D01*
X155750047Y-133008714D01*
X155940523Y-133008714D01*
X156035761Y-133056333D01*
X156083380Y-133151571D01*
X156083380Y-133246809D01*
X155607190Y-133342047D01*
X156416714Y-133008714D02*
X156607190Y-133675380D01*
X156797666Y-133199190D01*
X156988142Y-133675380D01*
X157178619Y-133008714D01*
X157321476Y-133770619D02*
X158083380Y-133770619D01*
X158178619Y-132675380D02*
X158750047Y-132675380D01*
X158464333Y-133675380D02*
X158464333Y-132675380D01*
X159464333Y-133627761D02*
X159369095Y-133675380D01*
X159178619Y-133675380D01*
X159083380Y-133627761D01*
X159035761Y-133532523D01*
X159035761Y-133151571D01*
X159083380Y-133056333D01*
X159178619Y-133008714D01*
X159369095Y-133008714D01*
X159464333Y-133056333D01*
X159511952Y-133151571D01*
X159511952Y-133246809D01*
X159035761Y-133342047D01*
X159940523Y-133675380D02*
X159940523Y-133008714D01*
X159940523Y-133199190D02*
X159988142Y-133103952D01*
X160035761Y-133056333D01*
X160131000Y-133008714D01*
X160226238Y-133008714D01*
X160559571Y-133675380D02*
X160559571Y-133008714D01*
X160559571Y-133103952D02*
X160607190Y-133056333D01*
X160702428Y-133008714D01*
X160845285Y-133008714D01*
X160940523Y-133056333D01*
X160988142Y-133151571D01*
X160988142Y-133675380D01*
X160988142Y-133151571D02*
X161035761Y-133056333D01*
X161131000Y-133008714D01*
X161273857Y-133008714D01*
X161369095Y-133056333D01*
X161416714Y-133151571D01*
X161416714Y-133675380D01*
X161892904Y-133675380D02*
X161892904Y-133008714D01*
X161892904Y-132675380D02*
X161845285Y-132723000D01*
X161892904Y-132770619D01*
X161940523Y-132723000D01*
X161892904Y-132675380D01*
X161892904Y-132770619D01*
X162369095Y-133008714D02*
X162369095Y-133675380D01*
X162369095Y-133103952D02*
X162416714Y-133056333D01*
X162511952Y-133008714D01*
X162654809Y-133008714D01*
X162750047Y-133056333D01*
X162797666Y-133151571D01*
X162797666Y-133675380D01*
X163702428Y-133675380D02*
X163702428Y-133151571D01*
X163654809Y-133056333D01*
X163559571Y-133008714D01*
X163369095Y-133008714D01*
X163273857Y-133056333D01*
X163702428Y-133627761D02*
X163607190Y-133675380D01*
X163369095Y-133675380D01*
X163273857Y-133627761D01*
X163226238Y-133532523D01*
X163226238Y-133437285D01*
X163273857Y-133342047D01*
X163369095Y-133294428D01*
X163607190Y-133294428D01*
X163702428Y-133246809D01*
X164321476Y-133675380D02*
X164226238Y-133627761D01*
X164178619Y-133532523D01*
X164178619Y-132675380D01*
X164654809Y-133627761D02*
X164750047Y-133675380D01*
X164940523Y-133675380D01*
X165035761Y-133627761D01*
X165083380Y-133532523D01*
X165083380Y-133484904D01*
X165035761Y-133389666D01*
X164940523Y-133342047D01*
X164797666Y-133342047D01*
X164702428Y-133294428D01*
X164654809Y-133199190D01*
X164654809Y-133151571D01*
X164702428Y-133056333D01*
X164797666Y-133008714D01*
X164940523Y-133008714D01*
X165035761Y-133056333D01*
X133755142Y-137866380D02*
X133278952Y-137866380D01*
X133278952Y-136866380D01*
X134088476Y-137866380D02*
X134088476Y-136866380D01*
X134564666Y-137866380D02*
X134564666Y-136866380D01*
X134945619Y-136866380D01*
X135040857Y-136914000D01*
X135088476Y-136961619D01*
X135136095Y-137056857D01*
X135136095Y-137199714D01*
X135088476Y-137294952D01*
X135040857Y-137342571D01*
X134945619Y-137390190D01*
X134564666Y-137390190D01*
X135755142Y-136866380D02*
X135945619Y-136866380D01*
X136040857Y-136914000D01*
X136136095Y-137009238D01*
X136183714Y-137199714D01*
X136183714Y-137533047D01*
X136136095Y-137723523D01*
X136040857Y-137818761D01*
X135945619Y-137866380D01*
X135755142Y-137866380D01*
X135659904Y-137818761D01*
X135564666Y-137723523D01*
X135517047Y-137533047D01*
X135517047Y-137199714D01*
X135564666Y-137009238D01*
X135659904Y-136914000D01*
X135755142Y-136866380D01*
X136374190Y-137961619D02*
X137136095Y-137961619D01*
X137707523Y-137342571D02*
X137850380Y-137390190D01*
X137898000Y-137437809D01*
X137945619Y-137533047D01*
X137945619Y-137675904D01*
X137898000Y-137771142D01*
X137850380Y-137818761D01*
X137755142Y-137866380D01*
X137374190Y-137866380D01*
X137374190Y-136866380D01*
X137707523Y-136866380D01*
X137802761Y-136914000D01*
X137850380Y-136961619D01*
X137898000Y-137056857D01*
X137898000Y-137152095D01*
X137850380Y-137247333D01*
X137802761Y-137294952D01*
X137707523Y-137342571D01*
X137374190Y-137342571D01*
X138326571Y-137580666D02*
X138802761Y-137580666D01*
X138231333Y-137866380D02*
X138564666Y-136866380D01*
X138898000Y-137866380D01*
X139088476Y-136866380D02*
X139659904Y-136866380D01*
X139374190Y-137866380D02*
X139374190Y-136866380D01*
X163925523Y-122134380D02*
X164258857Y-123134380D01*
X164592190Y-122134380D01*
X165496952Y-123134380D02*
X165163619Y-122658190D01*
X164925523Y-123134380D02*
X164925523Y-122134380D01*
X165306476Y-122134380D01*
X165401714Y-122182000D01*
X165449333Y-122229619D01*
X165496952Y-122324857D01*
X165496952Y-122467714D01*
X165449333Y-122562952D01*
X165401714Y-122610571D01*
X165306476Y-122658190D01*
X164925523Y-122658190D01*
X166306476Y-123086761D02*
X166211238Y-123134380D01*
X166020761Y-123134380D01*
X165925523Y-123086761D01*
X165877904Y-122991523D01*
X165877904Y-122610571D01*
X165925523Y-122515333D01*
X166020761Y-122467714D01*
X166211238Y-122467714D01*
X166306476Y-122515333D01*
X166354095Y-122610571D01*
X166354095Y-122705809D01*
X165877904Y-122801047D01*
X167211238Y-122467714D02*
X167211238Y-123277238D01*
X167163619Y-123372476D01*
X167116000Y-123420095D01*
X167020761Y-123467714D01*
X166877904Y-123467714D01*
X166782666Y-123420095D01*
X167211238Y-123086761D02*
X167116000Y-123134380D01*
X166925523Y-123134380D01*
X166830285Y-123086761D01*
X166782666Y-123039142D01*
X166735047Y-122943904D01*
X166735047Y-122658190D01*
X166782666Y-122562952D01*
X166830285Y-122515333D01*
X166925523Y-122467714D01*
X167116000Y-122467714D01*
X167211238Y-122515333D01*
X168211238Y-123134380D02*
X167639809Y-123134380D01*
X167925523Y-123134380D02*
X167925523Y-122134380D01*
X167830285Y-122277238D01*
X167735047Y-122372476D01*
X167639809Y-122420095D01*
X154670761Y-77128666D02*
X155146952Y-77128666D01*
X154575523Y-77414380D02*
X154908857Y-76414380D01*
X155242190Y-77414380D01*
X156004095Y-77366761D02*
X155908857Y-77414380D01*
X155718380Y-77414380D01*
X155623142Y-77366761D01*
X155575523Y-77319142D01*
X155527904Y-77223904D01*
X155527904Y-76938190D01*
X155575523Y-76842952D01*
X155623142Y-76795333D01*
X155718380Y-76747714D01*
X155908857Y-76747714D01*
X156004095Y-76795333D01*
X156861238Y-77366761D02*
X156766000Y-77414380D01*
X156575523Y-77414380D01*
X156480285Y-77366761D01*
X156432666Y-77319142D01*
X156385047Y-77223904D01*
X156385047Y-76938190D01*
X156432666Y-76842952D01*
X156480285Y-76795333D01*
X156575523Y-76747714D01*
X156766000Y-76747714D01*
X156861238Y-76795333D01*
X157670761Y-77366761D02*
X157575523Y-77414380D01*
X157385047Y-77414380D01*
X157289809Y-77366761D01*
X157242190Y-77271523D01*
X157242190Y-76890571D01*
X157289809Y-76795333D01*
X157385047Y-76747714D01*
X157575523Y-76747714D01*
X157670761Y-76795333D01*
X157718380Y-76890571D01*
X157718380Y-76985809D01*
X157242190Y-77081047D01*
X158289809Y-77414380D02*
X158194571Y-77366761D01*
X158146952Y-77271523D01*
X158146952Y-76414380D01*
X159051714Y-77366761D02*
X158956476Y-77414380D01*
X158766000Y-77414380D01*
X158670761Y-77366761D01*
X158623142Y-77271523D01*
X158623142Y-76890571D01*
X158670761Y-76795333D01*
X158766000Y-76747714D01*
X158956476Y-76747714D01*
X159051714Y-76795333D01*
X159099333Y-76890571D01*
X159099333Y-76985809D01*
X158623142Y-77081047D01*
X159527904Y-77414380D02*
X159527904Y-76747714D01*
X159527904Y-76938190D02*
X159575523Y-76842952D01*
X159623142Y-76795333D01*
X159718380Y-76747714D01*
X159813619Y-76747714D01*
X160289809Y-77414380D02*
X160194571Y-77366761D01*
X160146952Y-77319142D01*
X160099333Y-77223904D01*
X160099333Y-76938190D01*
X160146952Y-76842952D01*
X160194571Y-76795333D01*
X160289809Y-76747714D01*
X160432666Y-76747714D01*
X160527904Y-76795333D01*
X160575523Y-76842952D01*
X160623142Y-76938190D01*
X160623142Y-77223904D01*
X160575523Y-77319142D01*
X160527904Y-77366761D01*
X160432666Y-77414380D01*
X160289809Y-77414380D01*
X161051714Y-77414380D02*
X161051714Y-76747714D01*
X161051714Y-76842952D02*
X161099333Y-76795333D01*
X161194571Y-76747714D01*
X161337428Y-76747714D01*
X161432666Y-76795333D01*
X161480285Y-76890571D01*
X161480285Y-77414380D01*
X161480285Y-76890571D02*
X161527904Y-76795333D01*
X161623142Y-76747714D01*
X161766000Y-76747714D01*
X161861238Y-76795333D01*
X161908857Y-76890571D01*
X161908857Y-77414380D01*
X162766000Y-77366761D02*
X162670761Y-77414380D01*
X162480285Y-77414380D01*
X162385047Y-77366761D01*
X162337428Y-77271523D01*
X162337428Y-76890571D01*
X162385047Y-76795333D01*
X162480285Y-76747714D01*
X162670761Y-76747714D01*
X162766000Y-76795333D01*
X162813619Y-76890571D01*
X162813619Y-76985809D01*
X162337428Y-77081047D01*
X163099333Y-76747714D02*
X163480285Y-76747714D01*
X163242190Y-76414380D02*
X163242190Y-77271523D01*
X163289809Y-77366761D01*
X163385047Y-77414380D01*
X163480285Y-77414380D01*
X164194571Y-77366761D02*
X164099333Y-77414380D01*
X163908857Y-77414380D01*
X163813619Y-77366761D01*
X163766000Y-77271523D01*
X163766000Y-76890571D01*
X163813619Y-76795333D01*
X163908857Y-76747714D01*
X164099333Y-76747714D01*
X164194571Y-76795333D01*
X164242190Y-76890571D01*
X164242190Y-76985809D01*
X163766000Y-77081047D01*
X164670761Y-77414380D02*
X164670761Y-76747714D01*
X164670761Y-76938190D02*
X164718380Y-76842952D01*
X164766000Y-76795333D01*
X164861238Y-76747714D01*
X164956476Y-76747714D01*
X132676000Y-71302571D02*
X133009333Y-71302571D01*
X133152190Y-71826380D02*
X132676000Y-71826380D01*
X132676000Y-70826380D01*
X133152190Y-70826380D01*
X133533142Y-71778761D02*
X133676000Y-71826380D01*
X133914095Y-71826380D01*
X134009333Y-71778761D01*
X134056952Y-71731142D01*
X134104571Y-71635904D01*
X134104571Y-71540666D01*
X134056952Y-71445428D01*
X134009333Y-71397809D01*
X133914095Y-71350190D01*
X133723619Y-71302571D01*
X133628380Y-71254952D01*
X133580761Y-71207333D01*
X133533142Y-71112095D01*
X133533142Y-71016857D01*
X133580761Y-70921619D01*
X133628380Y-70874000D01*
X133723619Y-70826380D01*
X133961714Y-70826380D01*
X134104571Y-70874000D01*
X134533142Y-71826380D02*
X134533142Y-70826380D01*
X134914095Y-70826380D01*
X135009333Y-70874000D01*
X135056952Y-70921619D01*
X135104571Y-71016857D01*
X135104571Y-71159714D01*
X135056952Y-71254952D01*
X135009333Y-71302571D01*
X134914095Y-71350190D01*
X134533142Y-71350190D01*
X135437904Y-70826380D02*
X136056952Y-70826380D01*
X135723619Y-71207333D01*
X135866476Y-71207333D01*
X135961714Y-71254952D01*
X136009333Y-71302571D01*
X136056952Y-71397809D01*
X136056952Y-71635904D01*
X136009333Y-71731142D01*
X135961714Y-71778761D01*
X135866476Y-71826380D01*
X135580761Y-71826380D01*
X135485523Y-71778761D01*
X135437904Y-71731142D01*
X136437904Y-70921619D02*
X136485523Y-70874000D01*
X136580761Y-70826380D01*
X136818857Y-70826380D01*
X136914095Y-70874000D01*
X136961714Y-70921619D01*
X137009333Y-71016857D01*
X137009333Y-71112095D01*
X136961714Y-71254952D01*
X136390285Y-71826380D01*
X137009333Y-71826380D01*
X137199809Y-71921619D02*
X137961714Y-71921619D01*
X138199809Y-71826380D02*
X138199809Y-70826380D01*
X138580761Y-70826380D01*
X138676000Y-70874000D01*
X138723619Y-70921619D01*
X138771238Y-71016857D01*
X138771238Y-71159714D01*
X138723619Y-71254952D01*
X138676000Y-71302571D01*
X138580761Y-71350190D01*
X138199809Y-71350190D01*
X139199809Y-71826380D02*
X139199809Y-71159714D01*
X139199809Y-70826380D02*
X139152190Y-70874000D01*
X139199809Y-70921619D01*
X139247428Y-70874000D01*
X139199809Y-70826380D01*
X139199809Y-70921619D01*
X140104571Y-71778761D02*
X140009333Y-71826380D01*
X139818857Y-71826380D01*
X139723619Y-71778761D01*
X139676000Y-71731142D01*
X139628380Y-71635904D01*
X139628380Y-71350190D01*
X139676000Y-71254952D01*
X139723619Y-71207333D01*
X139818857Y-71159714D01*
X140009333Y-71159714D01*
X140104571Y-71207333D01*
X140676000Y-71826380D02*
X140580761Y-71778761D01*
X140533142Y-71731142D01*
X140485523Y-71635904D01*
X140485523Y-71350190D01*
X140533142Y-71254952D01*
X140580761Y-71207333D01*
X140676000Y-71159714D01*
X140818857Y-71159714D01*
X140914095Y-71207333D01*
X140961714Y-71254952D01*
X141009333Y-71350190D01*
X141009333Y-71635904D01*
X140961714Y-71731142D01*
X140914095Y-71778761D01*
X140818857Y-71826380D01*
X140676000Y-71826380D01*
X141199809Y-71921619D02*
X141961714Y-71921619D01*
X142199809Y-71826380D02*
X142199809Y-70826380D01*
X142437904Y-70826380D01*
X142580761Y-70874000D01*
X142676000Y-70969238D01*
X142723619Y-71064476D01*
X142771238Y-71254952D01*
X142771238Y-71397809D01*
X142723619Y-71588285D01*
X142676000Y-71683523D01*
X142580761Y-71778761D01*
X142437904Y-71826380D01*
X142199809Y-71826380D01*
X143628380Y-71159714D02*
X143628380Y-71826380D01*
X143390285Y-70778761D02*
X143152190Y-71493047D01*
X143771238Y-71493047D01*
X166314761Y-104354380D02*
X166410000Y-104354380D01*
X166505238Y-104402000D01*
X166552857Y-104449619D01*
X166600476Y-104544857D01*
X166648095Y-104735333D01*
X166648095Y-104973428D01*
X166600476Y-105163904D01*
X166552857Y-105259142D01*
X166505238Y-105306761D01*
X166410000Y-105354380D01*
X166314761Y-105354380D01*
X166219523Y-105306761D01*
X166171904Y-105259142D01*
X166124285Y-105163904D01*
X166076666Y-104973428D01*
X166076666Y-104735333D01*
X166124285Y-104544857D01*
X166171904Y-104449619D01*
X166219523Y-104402000D01*
X166314761Y-104354380D01*
X167076666Y-105259142D02*
X167124285Y-105306761D01*
X167076666Y-105354380D01*
X167029047Y-105306761D01*
X167076666Y-105259142D01*
X167076666Y-105354380D01*
X167981428Y-104687714D02*
X167981428Y-105354380D01*
X167743333Y-104306761D02*
X167505238Y-105021047D01*
X168124285Y-105021047D01*
X168410000Y-104354380D02*
X169076666Y-104354380D01*
X168648095Y-105354380D01*
X169886190Y-104687714D02*
X169886190Y-105354380D01*
X169457619Y-104687714D02*
X169457619Y-105211523D01*
X169505238Y-105306761D01*
X169600476Y-105354380D01*
X169743333Y-105354380D01*
X169838571Y-105306761D01*
X169886190Y-105259142D01*
X170695714Y-104830571D02*
X170362380Y-104830571D01*
X170362380Y-105354380D02*
X170362380Y-104354380D01*
X170838571Y-104354380D01*
X171743333Y-105354380D02*
X171171904Y-105354380D01*
X171457619Y-105354380D02*
X171457619Y-104354380D01*
X171362380Y-104497238D01*
X171267142Y-104592476D01*
X171171904Y-104640095D01*
M02*
