G04 #@! TF.GenerationSoftware,KiCad,Pcbnew,(5.1.5)-3*
G04 #@! TF.CreationDate,2020-03-21T13:19:14-05:00*
G04 #@! TF.ProjectId,PMT_PCB,504d545f-5043-4422-9e6b-696361645f70,rev?*
G04 #@! TF.SameCoordinates,Original*
G04 #@! TF.FileFunction,Legend,Top*
G04 #@! TF.FilePolarity,Positive*
%FSLAX46Y46*%
G04 Gerber Fmt 4.6, Leading zero omitted, Abs format (unit mm)*
G04 Created by KiCad (PCBNEW (5.1.5)-3) date 2020-03-21 13:19:14*
%MOMM*%
%LPD*%
G04 APERTURE LIST*
%ADD10C,0.150000*%
%ADD11C,0.120000*%
G04 APERTURE END LIST*
D10*
X148209047Y-114371428D02*
X148970952Y-114371428D01*
X145669047Y-114371428D02*
X146430952Y-114371428D01*
X146050000Y-114752380D02*
X146050000Y-113990476D01*
X133143809Y-65492380D02*
X133762857Y-65492380D01*
X133429523Y-65873333D01*
X133572380Y-65873333D01*
X133667619Y-65920952D01*
X133715238Y-65968571D01*
X133762857Y-66063809D01*
X133762857Y-66301904D01*
X133715238Y-66397142D01*
X133667619Y-66444761D01*
X133572380Y-66492380D01*
X133286666Y-66492380D01*
X133191428Y-66444761D01*
X133143809Y-66397142D01*
X134191428Y-66397142D02*
X134239047Y-66444761D01*
X134191428Y-66492380D01*
X134143809Y-66444761D01*
X134191428Y-66397142D01*
X134191428Y-66492380D01*
X134572380Y-65492380D02*
X135191428Y-65492380D01*
X134858095Y-65873333D01*
X135000952Y-65873333D01*
X135096190Y-65920952D01*
X135143809Y-65968571D01*
X135191428Y-66063809D01*
X135191428Y-66301904D01*
X135143809Y-66397142D01*
X135096190Y-66444761D01*
X135000952Y-66492380D01*
X134715238Y-66492380D01*
X134620000Y-66444761D01*
X134572380Y-66397142D01*
X135477142Y-65492380D02*
X135810476Y-66492380D01*
X136143809Y-65492380D01*
X122983809Y-60412380D02*
X123602857Y-60412380D01*
X123269523Y-60793333D01*
X123412380Y-60793333D01*
X123507619Y-60840952D01*
X123555238Y-60888571D01*
X123602857Y-60983809D01*
X123602857Y-61221904D01*
X123555238Y-61317142D01*
X123507619Y-61364761D01*
X123412380Y-61412380D01*
X123126666Y-61412380D01*
X123031428Y-61364761D01*
X122983809Y-61317142D01*
X124031428Y-61317142D02*
X124079047Y-61364761D01*
X124031428Y-61412380D01*
X123983809Y-61364761D01*
X124031428Y-61317142D01*
X124031428Y-61412380D01*
X124412380Y-60412380D02*
X125031428Y-60412380D01*
X124698095Y-60793333D01*
X124840952Y-60793333D01*
X124936190Y-60840952D01*
X124983809Y-60888571D01*
X125031428Y-60983809D01*
X125031428Y-61221904D01*
X124983809Y-61317142D01*
X124936190Y-61364761D01*
X124840952Y-61412380D01*
X124555238Y-61412380D01*
X124460000Y-61364761D01*
X124412380Y-61317142D01*
X125317142Y-60412380D02*
X125650476Y-61412380D01*
X125983809Y-60412380D01*
X156765809Y-70826380D02*
X157384857Y-70826380D01*
X157051523Y-71207333D01*
X157194380Y-71207333D01*
X157289619Y-71254952D01*
X157337238Y-71302571D01*
X157384857Y-71397809D01*
X157384857Y-71635904D01*
X157337238Y-71731142D01*
X157289619Y-71778761D01*
X157194380Y-71826380D01*
X156908666Y-71826380D01*
X156813428Y-71778761D01*
X156765809Y-71731142D01*
X157813428Y-71731142D02*
X157861047Y-71778761D01*
X157813428Y-71826380D01*
X157765809Y-71778761D01*
X157813428Y-71731142D01*
X157813428Y-71826380D01*
X158194380Y-70826380D02*
X158813428Y-70826380D01*
X158480095Y-71207333D01*
X158622952Y-71207333D01*
X158718190Y-71254952D01*
X158765809Y-71302571D01*
X158813428Y-71397809D01*
X158813428Y-71635904D01*
X158765809Y-71731142D01*
X158718190Y-71778761D01*
X158622952Y-71826380D01*
X158337238Y-71826380D01*
X158242000Y-71778761D01*
X158194380Y-71731142D01*
X159099142Y-70826380D02*
X159432476Y-71826380D01*
X159765809Y-70826380D01*
X156257809Y-99528380D02*
X156876857Y-99528380D01*
X156543523Y-99909333D01*
X156686380Y-99909333D01*
X156781619Y-99956952D01*
X156829238Y-100004571D01*
X156876857Y-100099809D01*
X156876857Y-100337904D01*
X156829238Y-100433142D01*
X156781619Y-100480761D01*
X156686380Y-100528380D01*
X156400666Y-100528380D01*
X156305428Y-100480761D01*
X156257809Y-100433142D01*
X157305428Y-100433142D02*
X157353047Y-100480761D01*
X157305428Y-100528380D01*
X157257809Y-100480761D01*
X157305428Y-100433142D01*
X157305428Y-100528380D01*
X157686380Y-99528380D02*
X158305428Y-99528380D01*
X157972095Y-99909333D01*
X158114952Y-99909333D01*
X158210190Y-99956952D01*
X158257809Y-100004571D01*
X158305428Y-100099809D01*
X158305428Y-100337904D01*
X158257809Y-100433142D01*
X158210190Y-100480761D01*
X158114952Y-100528380D01*
X157829238Y-100528380D01*
X157734000Y-100480761D01*
X157686380Y-100433142D01*
X158591142Y-99528380D02*
X158924476Y-100528380D01*
X159257809Y-99528380D01*
X153289047Y-114371428D02*
X154050952Y-114371428D01*
X153670000Y-114752380D02*
X153670000Y-113990476D01*
X158369047Y-114371428D02*
X159130952Y-114371428D01*
X123349523Y-57872380D02*
X123349523Y-58681904D01*
X123397142Y-58777142D01*
X123444761Y-58824761D01*
X123540000Y-58872380D01*
X123730476Y-58872380D01*
X123825714Y-58824761D01*
X123873333Y-58777142D01*
X123920952Y-58681904D01*
X123920952Y-57872380D01*
X124349523Y-58824761D02*
X124492380Y-58872380D01*
X124730476Y-58872380D01*
X124825714Y-58824761D01*
X124873333Y-58777142D01*
X124920952Y-58681904D01*
X124920952Y-58586666D01*
X124873333Y-58491428D01*
X124825714Y-58443809D01*
X124730476Y-58396190D01*
X124540000Y-58348571D01*
X124444761Y-58300952D01*
X124397142Y-58253333D01*
X124349523Y-58158095D01*
X124349523Y-58062857D01*
X124397142Y-57967619D01*
X124444761Y-57920000D01*
X124540000Y-57872380D01*
X124778095Y-57872380D01*
X124920952Y-57920000D01*
X125682857Y-58348571D02*
X125825714Y-58396190D01*
X125873333Y-58443809D01*
X125920952Y-58539047D01*
X125920952Y-58681904D01*
X125873333Y-58777142D01*
X125825714Y-58824761D01*
X125730476Y-58872380D01*
X125349523Y-58872380D01*
X125349523Y-57872380D01*
X125682857Y-57872380D01*
X125778095Y-57920000D01*
X125825714Y-57967619D01*
X125873333Y-58062857D01*
X125873333Y-58158095D01*
X125825714Y-58253333D01*
X125778095Y-58300952D01*
X125682857Y-58348571D01*
X125349523Y-58348571D01*
X127111428Y-58872380D02*
X127111428Y-57872380D01*
X127492380Y-57872380D01*
X127587619Y-57920000D01*
X127635238Y-57967619D01*
X127682857Y-58062857D01*
X127682857Y-58205714D01*
X127635238Y-58300952D01*
X127587619Y-58348571D01*
X127492380Y-58396190D01*
X127111428Y-58396190D01*
X128111428Y-58872380D02*
X128111428Y-58205714D01*
X128111428Y-58396190D02*
X128159047Y-58300952D01*
X128206666Y-58253333D01*
X128301904Y-58205714D01*
X128397142Y-58205714D01*
X128873333Y-58872380D02*
X128778095Y-58824761D01*
X128730476Y-58777142D01*
X128682857Y-58681904D01*
X128682857Y-58396190D01*
X128730476Y-58300952D01*
X128778095Y-58253333D01*
X128873333Y-58205714D01*
X129016190Y-58205714D01*
X129111428Y-58253333D01*
X129159047Y-58300952D01*
X129206666Y-58396190D01*
X129206666Y-58681904D01*
X129159047Y-58777142D01*
X129111428Y-58824761D01*
X129016190Y-58872380D01*
X128873333Y-58872380D01*
X130063809Y-58205714D02*
X130063809Y-59015238D01*
X130016190Y-59110476D01*
X129968571Y-59158095D01*
X129873333Y-59205714D01*
X129730476Y-59205714D01*
X129635238Y-59158095D01*
X130063809Y-58824761D02*
X129968571Y-58872380D01*
X129778095Y-58872380D01*
X129682857Y-58824761D01*
X129635238Y-58777142D01*
X129587619Y-58681904D01*
X129587619Y-58396190D01*
X129635238Y-58300952D01*
X129682857Y-58253333D01*
X129778095Y-58205714D01*
X129968571Y-58205714D01*
X130063809Y-58253333D01*
X130540000Y-58872380D02*
X130540000Y-58205714D01*
X130540000Y-58396190D02*
X130587619Y-58300952D01*
X130635238Y-58253333D01*
X130730476Y-58205714D01*
X130825714Y-58205714D01*
X131587619Y-58872380D02*
X131587619Y-58348571D01*
X131540000Y-58253333D01*
X131444761Y-58205714D01*
X131254285Y-58205714D01*
X131159047Y-58253333D01*
X131587619Y-58824761D02*
X131492380Y-58872380D01*
X131254285Y-58872380D01*
X131159047Y-58824761D01*
X131111428Y-58729523D01*
X131111428Y-58634285D01*
X131159047Y-58539047D01*
X131254285Y-58491428D01*
X131492380Y-58491428D01*
X131587619Y-58443809D01*
X132063809Y-58872380D02*
X132063809Y-58205714D01*
X132063809Y-58300952D02*
X132111428Y-58253333D01*
X132206666Y-58205714D01*
X132349523Y-58205714D01*
X132444761Y-58253333D01*
X132492380Y-58348571D01*
X132492380Y-58872380D01*
X132492380Y-58348571D02*
X132540000Y-58253333D01*
X132635238Y-58205714D01*
X132778095Y-58205714D01*
X132873333Y-58253333D01*
X132920952Y-58348571D01*
X132920952Y-58872380D01*
X133397142Y-58872380D02*
X133397142Y-58205714D01*
X133397142Y-58300952D02*
X133444761Y-58253333D01*
X133540000Y-58205714D01*
X133682857Y-58205714D01*
X133778095Y-58253333D01*
X133825714Y-58348571D01*
X133825714Y-58872380D01*
X133825714Y-58348571D02*
X133873333Y-58253333D01*
X133968571Y-58205714D01*
X134111428Y-58205714D01*
X134206666Y-58253333D01*
X134254285Y-58348571D01*
X134254285Y-58872380D01*
X135111428Y-58824761D02*
X135016190Y-58872380D01*
X134825714Y-58872380D01*
X134730476Y-58824761D01*
X134682857Y-58729523D01*
X134682857Y-58348571D01*
X134730476Y-58253333D01*
X134825714Y-58205714D01*
X135016190Y-58205714D01*
X135111428Y-58253333D01*
X135159047Y-58348571D01*
X135159047Y-58443809D01*
X134682857Y-58539047D01*
X135587619Y-58872380D02*
X135587619Y-58205714D01*
X135587619Y-58396190D02*
X135635238Y-58300952D01*
X135682857Y-58253333D01*
X135778095Y-58205714D01*
X135873333Y-58205714D01*
D11*
X152340000Y-110550000D02*
X152340000Y-109220000D01*
X153670000Y-110550000D02*
X152340000Y-110550000D01*
X157480000Y-110550000D02*
X157480000Y-107890000D01*
X157480000Y-107890000D02*
X160080000Y-107890000D01*
X157480000Y-110550000D02*
X160080000Y-110550000D01*
X160080000Y-110550000D02*
X160080000Y-107890000D01*
X144720000Y-112582000D02*
X144720000Y-111252000D01*
X146050000Y-112582000D02*
X144720000Y-112582000D01*
X147320000Y-112582000D02*
X147320000Y-109922000D01*
X147320000Y-109922000D02*
X149920000Y-109922000D01*
X147320000Y-112582000D02*
X149920000Y-112582000D01*
X149920000Y-112582000D02*
X149920000Y-109922000D01*
X163068000Y-101727000D02*
X163068000Y-80264000D01*
X142748000Y-101727000D02*
X163068000Y-101727000D01*
X142748000Y-101600000D02*
X142748000Y-101727000D01*
X142748000Y-101473000D02*
X142748000Y-101600000D01*
X142748000Y-100584000D02*
X142748000Y-101473000D01*
X142748000Y-80264000D02*
X142748000Y-100584000D01*
X163068000Y-80264000D02*
X142748000Y-80264000D01*
X161290000Y-101152000D02*
X159960000Y-101152000D01*
X159960000Y-101152000D02*
X159960000Y-99822000D01*
X159960000Y-98552000D02*
X159960000Y-80712000D01*
X162620000Y-80712000D02*
X159960000Y-80712000D01*
X162620000Y-98552000D02*
X162620000Y-80712000D01*
X162620000Y-98552000D02*
X159960000Y-98552000D01*
X162620000Y-59630000D02*
X159960000Y-59630000D01*
X162620000Y-74930000D02*
X162620000Y-59630000D01*
X159960000Y-74930000D02*
X159960000Y-59630000D01*
X162620000Y-74930000D02*
X159960000Y-74930000D01*
X162620000Y-76200000D02*
X162620000Y-77530000D01*
X162620000Y-77530000D02*
X161290000Y-77530000D01*
X163068000Y-58674000D02*
X141986000Y-58674000D01*
X141986000Y-58674000D02*
X141986000Y-78740000D01*
X163068000Y-78740000D02*
X163068000Y-58674000D01*
X141986000Y-78740000D02*
X163068000Y-78740000D01*
X122047000Y-59630000D02*
X139700000Y-59630000D01*
X121920000Y-59630000D02*
X122047000Y-59630000D01*
X119320000Y-59630000D02*
X121920000Y-59630000D01*
X119320000Y-59630000D02*
X119320000Y-110550000D01*
X139760000Y-110550000D02*
X139700000Y-59563000D01*
X119320000Y-110550000D02*
X139760000Y-110550000D01*
X137100000Y-62230000D02*
X139760000Y-62230000D01*
X137100000Y-60960000D02*
X137100000Y-59630000D01*
X137100000Y-59630000D02*
X138430000Y-59630000D01*
X137100000Y-62230000D02*
X137100000Y-110550000D01*
X137100000Y-110550000D02*
X139760000Y-110550000D01*
X139760000Y-62230000D02*
X139760000Y-110550000D01*
X119320000Y-62230000D02*
X121980000Y-62230000D01*
X119320000Y-60960000D02*
X119320000Y-59630000D01*
X119320000Y-59630000D02*
X120650000Y-59630000D01*
X119320000Y-62230000D02*
X119320000Y-110550000D01*
X119320000Y-110550000D02*
X121980000Y-110550000D01*
X121980000Y-62230000D02*
X121980000Y-110550000D01*
D10*
X150257619Y-104798761D02*
X150400476Y-104846380D01*
X150638571Y-104846380D01*
X150733809Y-104798761D01*
X150781428Y-104751142D01*
X150829047Y-104655904D01*
X150829047Y-104560666D01*
X150781428Y-104465428D01*
X150733809Y-104417809D01*
X150638571Y-104370190D01*
X150448095Y-104322571D01*
X150352857Y-104274952D01*
X150305238Y-104227333D01*
X150257619Y-104132095D01*
X150257619Y-104036857D01*
X150305238Y-103941619D01*
X150352857Y-103894000D01*
X150448095Y-103846380D01*
X150686190Y-103846380D01*
X150829047Y-103894000D01*
X151686190Y-104798761D02*
X151590952Y-104846380D01*
X151400476Y-104846380D01*
X151305238Y-104798761D01*
X151257619Y-104751142D01*
X151210000Y-104655904D01*
X151210000Y-104370190D01*
X151257619Y-104274952D01*
X151305238Y-104227333D01*
X151400476Y-104179714D01*
X151590952Y-104179714D01*
X151686190Y-104227333D01*
X152114761Y-104846380D02*
X152114761Y-104179714D01*
X152114761Y-104370190D02*
X152162380Y-104274952D01*
X152210000Y-104227333D01*
X152305238Y-104179714D01*
X152400476Y-104179714D01*
X153114761Y-104798761D02*
X153019523Y-104846380D01*
X152829047Y-104846380D01*
X152733809Y-104798761D01*
X152686190Y-104703523D01*
X152686190Y-104322571D01*
X152733809Y-104227333D01*
X152829047Y-104179714D01*
X153019523Y-104179714D01*
X153114761Y-104227333D01*
X153162380Y-104322571D01*
X153162380Y-104417809D01*
X152686190Y-104513047D01*
X153495714Y-104179714D02*
X153686190Y-104846380D01*
X153876666Y-104370190D01*
X154067142Y-104846380D01*
X154257619Y-104179714D01*
X154400476Y-104941619D02*
X155162380Y-104941619D01*
X155257619Y-103846380D02*
X155829047Y-103846380D01*
X155543333Y-104846380D02*
X155543333Y-103846380D01*
X156543333Y-104798761D02*
X156448095Y-104846380D01*
X156257619Y-104846380D01*
X156162380Y-104798761D01*
X156114761Y-104703523D01*
X156114761Y-104322571D01*
X156162380Y-104227333D01*
X156257619Y-104179714D01*
X156448095Y-104179714D01*
X156543333Y-104227333D01*
X156590952Y-104322571D01*
X156590952Y-104417809D01*
X156114761Y-104513047D01*
X157019523Y-104846380D02*
X157019523Y-104179714D01*
X157019523Y-104370190D02*
X157067142Y-104274952D01*
X157114761Y-104227333D01*
X157210000Y-104179714D01*
X157305238Y-104179714D01*
X157638571Y-104846380D02*
X157638571Y-104179714D01*
X157638571Y-104274952D02*
X157686190Y-104227333D01*
X157781428Y-104179714D01*
X157924285Y-104179714D01*
X158019523Y-104227333D01*
X158067142Y-104322571D01*
X158067142Y-104846380D01*
X158067142Y-104322571D02*
X158114761Y-104227333D01*
X158210000Y-104179714D01*
X158352857Y-104179714D01*
X158448095Y-104227333D01*
X158495714Y-104322571D01*
X158495714Y-104846380D01*
X158971904Y-104846380D02*
X158971904Y-104179714D01*
X158971904Y-103846380D02*
X158924285Y-103894000D01*
X158971904Y-103941619D01*
X159019523Y-103894000D01*
X158971904Y-103846380D01*
X158971904Y-103941619D01*
X159448095Y-104179714D02*
X159448095Y-104846380D01*
X159448095Y-104274952D02*
X159495714Y-104227333D01*
X159590952Y-104179714D01*
X159733809Y-104179714D01*
X159829047Y-104227333D01*
X159876666Y-104322571D01*
X159876666Y-104846380D01*
X160781428Y-104846380D02*
X160781428Y-104322571D01*
X160733809Y-104227333D01*
X160638571Y-104179714D01*
X160448095Y-104179714D01*
X160352857Y-104227333D01*
X160781428Y-104798761D02*
X160686190Y-104846380D01*
X160448095Y-104846380D01*
X160352857Y-104798761D01*
X160305238Y-104703523D01*
X160305238Y-104608285D01*
X160352857Y-104513047D01*
X160448095Y-104465428D01*
X160686190Y-104465428D01*
X160781428Y-104417809D01*
X161400476Y-104846380D02*
X161305238Y-104798761D01*
X161257619Y-104703523D01*
X161257619Y-103846380D01*
X161733809Y-104798761D02*
X161829047Y-104846380D01*
X162019523Y-104846380D01*
X162114761Y-104798761D01*
X162162380Y-104703523D01*
X162162380Y-104655904D01*
X162114761Y-104560666D01*
X162019523Y-104513047D01*
X161876666Y-104513047D01*
X161781428Y-104465428D01*
X161733809Y-104370190D01*
X161733809Y-104322571D01*
X161781428Y-104227333D01*
X161876666Y-104179714D01*
X162019523Y-104179714D01*
X162114761Y-104227333D01*
X144677142Y-109164380D02*
X144200952Y-109164380D01*
X144200952Y-108164380D01*
X145010476Y-109164380D02*
X145010476Y-108164380D01*
X145486666Y-109164380D02*
X145486666Y-108164380D01*
X145867619Y-108164380D01*
X145962857Y-108212000D01*
X146010476Y-108259619D01*
X146058095Y-108354857D01*
X146058095Y-108497714D01*
X146010476Y-108592952D01*
X145962857Y-108640571D01*
X145867619Y-108688190D01*
X145486666Y-108688190D01*
X146677142Y-108164380D02*
X146867619Y-108164380D01*
X146962857Y-108212000D01*
X147058095Y-108307238D01*
X147105714Y-108497714D01*
X147105714Y-108831047D01*
X147058095Y-109021523D01*
X146962857Y-109116761D01*
X146867619Y-109164380D01*
X146677142Y-109164380D01*
X146581904Y-109116761D01*
X146486666Y-109021523D01*
X146439047Y-108831047D01*
X146439047Y-108497714D01*
X146486666Y-108307238D01*
X146581904Y-108212000D01*
X146677142Y-108164380D01*
X147296190Y-109259619D02*
X148058095Y-109259619D01*
X148629523Y-108640571D02*
X148772380Y-108688190D01*
X148820000Y-108735809D01*
X148867619Y-108831047D01*
X148867619Y-108973904D01*
X148820000Y-109069142D01*
X148772380Y-109116761D01*
X148677142Y-109164380D01*
X148296190Y-109164380D01*
X148296190Y-108164380D01*
X148629523Y-108164380D01*
X148724761Y-108212000D01*
X148772380Y-108259619D01*
X148820000Y-108354857D01*
X148820000Y-108450095D01*
X148772380Y-108545333D01*
X148724761Y-108592952D01*
X148629523Y-108640571D01*
X148296190Y-108640571D01*
X149248571Y-108878666D02*
X149724761Y-108878666D01*
X149153333Y-109164380D02*
X149486666Y-108164380D01*
X149820000Y-109164380D01*
X150010476Y-108164380D02*
X150581904Y-108164380D01*
X150296190Y-109164380D02*
X150296190Y-108164380D01*
X144764761Y-97448666D02*
X145240952Y-97448666D01*
X144669523Y-97734380D02*
X145002857Y-96734380D01*
X145336190Y-97734380D01*
X146098095Y-97686761D02*
X146002857Y-97734380D01*
X145812380Y-97734380D01*
X145717142Y-97686761D01*
X145669523Y-97639142D01*
X145621904Y-97543904D01*
X145621904Y-97258190D01*
X145669523Y-97162952D01*
X145717142Y-97115333D01*
X145812380Y-97067714D01*
X146002857Y-97067714D01*
X146098095Y-97115333D01*
X146955238Y-97686761D02*
X146860000Y-97734380D01*
X146669523Y-97734380D01*
X146574285Y-97686761D01*
X146526666Y-97639142D01*
X146479047Y-97543904D01*
X146479047Y-97258190D01*
X146526666Y-97162952D01*
X146574285Y-97115333D01*
X146669523Y-97067714D01*
X146860000Y-97067714D01*
X146955238Y-97115333D01*
X147764761Y-97686761D02*
X147669523Y-97734380D01*
X147479047Y-97734380D01*
X147383809Y-97686761D01*
X147336190Y-97591523D01*
X147336190Y-97210571D01*
X147383809Y-97115333D01*
X147479047Y-97067714D01*
X147669523Y-97067714D01*
X147764761Y-97115333D01*
X147812380Y-97210571D01*
X147812380Y-97305809D01*
X147336190Y-97401047D01*
X148383809Y-97734380D02*
X148288571Y-97686761D01*
X148240952Y-97591523D01*
X148240952Y-96734380D01*
X149145714Y-97686761D02*
X149050476Y-97734380D01*
X148860000Y-97734380D01*
X148764761Y-97686761D01*
X148717142Y-97591523D01*
X148717142Y-97210571D01*
X148764761Y-97115333D01*
X148860000Y-97067714D01*
X149050476Y-97067714D01*
X149145714Y-97115333D01*
X149193333Y-97210571D01*
X149193333Y-97305809D01*
X148717142Y-97401047D01*
X149621904Y-97734380D02*
X149621904Y-97067714D01*
X149621904Y-97258190D02*
X149669523Y-97162952D01*
X149717142Y-97115333D01*
X149812380Y-97067714D01*
X149907619Y-97067714D01*
X150383809Y-97734380D02*
X150288571Y-97686761D01*
X150240952Y-97639142D01*
X150193333Y-97543904D01*
X150193333Y-97258190D01*
X150240952Y-97162952D01*
X150288571Y-97115333D01*
X150383809Y-97067714D01*
X150526666Y-97067714D01*
X150621904Y-97115333D01*
X150669523Y-97162952D01*
X150717142Y-97258190D01*
X150717142Y-97543904D01*
X150669523Y-97639142D01*
X150621904Y-97686761D01*
X150526666Y-97734380D01*
X150383809Y-97734380D01*
X151145714Y-97734380D02*
X151145714Y-97067714D01*
X151145714Y-97162952D02*
X151193333Y-97115333D01*
X151288571Y-97067714D01*
X151431428Y-97067714D01*
X151526666Y-97115333D01*
X151574285Y-97210571D01*
X151574285Y-97734380D01*
X151574285Y-97210571D02*
X151621904Y-97115333D01*
X151717142Y-97067714D01*
X151860000Y-97067714D01*
X151955238Y-97115333D01*
X152002857Y-97210571D01*
X152002857Y-97734380D01*
X152860000Y-97686761D02*
X152764761Y-97734380D01*
X152574285Y-97734380D01*
X152479047Y-97686761D01*
X152431428Y-97591523D01*
X152431428Y-97210571D01*
X152479047Y-97115333D01*
X152574285Y-97067714D01*
X152764761Y-97067714D01*
X152860000Y-97115333D01*
X152907619Y-97210571D01*
X152907619Y-97305809D01*
X152431428Y-97401047D01*
X153193333Y-97067714D02*
X153574285Y-97067714D01*
X153336190Y-96734380D02*
X153336190Y-97591523D01*
X153383809Y-97686761D01*
X153479047Y-97734380D01*
X153574285Y-97734380D01*
X154288571Y-97686761D02*
X154193333Y-97734380D01*
X154002857Y-97734380D01*
X153907619Y-97686761D01*
X153860000Y-97591523D01*
X153860000Y-97210571D01*
X153907619Y-97115333D01*
X154002857Y-97067714D01*
X154193333Y-97067714D01*
X154288571Y-97115333D01*
X154336190Y-97210571D01*
X154336190Y-97305809D01*
X153860000Y-97401047D01*
X154764761Y-97734380D02*
X154764761Y-97067714D01*
X154764761Y-97258190D02*
X154812380Y-97162952D01*
X154860000Y-97115333D01*
X154955238Y-97067714D01*
X155050476Y-97067714D01*
X149214048Y-77493761D02*
X149356905Y-77541380D01*
X149595001Y-77541380D01*
X149690239Y-77493761D01*
X149737858Y-77446142D01*
X149785477Y-77350904D01*
X149785477Y-77255666D01*
X149737858Y-77160428D01*
X149690239Y-77112809D01*
X149595001Y-77065190D01*
X149404524Y-77017571D01*
X149309286Y-76969952D01*
X149261667Y-76922333D01*
X149214048Y-76827095D01*
X149214048Y-76731857D01*
X149261667Y-76636619D01*
X149309286Y-76589000D01*
X149404524Y-76541380D01*
X149642620Y-76541380D01*
X149785477Y-76589000D01*
X150214048Y-77541380D02*
X150214048Y-76541380D01*
X150452143Y-76541380D01*
X150595001Y-76589000D01*
X150690239Y-76684238D01*
X150737858Y-76779476D01*
X150785477Y-76969952D01*
X150785477Y-77112809D01*
X150737858Y-77303285D01*
X150690239Y-77398523D01*
X150595001Y-77493761D01*
X150452143Y-77541380D01*
X150214048Y-77541380D01*
X150975953Y-77636619D02*
X151737858Y-77636619D01*
X152547381Y-77446142D02*
X152499762Y-77493761D01*
X152356905Y-77541380D01*
X152261667Y-77541380D01*
X152118810Y-77493761D01*
X152023572Y-77398523D01*
X151975953Y-77303285D01*
X151928334Y-77112809D01*
X151928334Y-76969952D01*
X151975953Y-76779476D01*
X152023572Y-76684238D01*
X152118810Y-76589000D01*
X152261667Y-76541380D01*
X152356905Y-76541380D01*
X152499762Y-76589000D01*
X152547381Y-76636619D01*
X153404524Y-77541380D02*
X153404524Y-77017571D01*
X153356905Y-76922333D01*
X153261667Y-76874714D01*
X153071191Y-76874714D01*
X152975953Y-76922333D01*
X153404524Y-77493761D02*
X153309286Y-77541380D01*
X153071191Y-77541380D01*
X152975953Y-77493761D01*
X152928334Y-77398523D01*
X152928334Y-77303285D01*
X152975953Y-77208047D01*
X153071191Y-77160428D01*
X153309286Y-77160428D01*
X153404524Y-77112809D01*
X153880715Y-77541380D02*
X153880715Y-76874714D01*
X153880715Y-77065190D02*
X153928334Y-76969952D01*
X153975953Y-76922333D01*
X154071191Y-76874714D01*
X154166429Y-76874714D01*
X154928334Y-77541380D02*
X154928334Y-76541380D01*
X154928334Y-77493761D02*
X154833096Y-77541380D01*
X154642620Y-77541380D01*
X154547381Y-77493761D01*
X154499762Y-77446142D01*
X154452143Y-77350904D01*
X154452143Y-77065190D01*
X154499762Y-76969952D01*
X154547381Y-76922333D01*
X154642620Y-76874714D01*
X154833096Y-76874714D01*
X154928334Y-76922333D01*
X124040000Y-73588571D02*
X124373333Y-73588571D01*
X124516190Y-74112380D02*
X124040000Y-74112380D01*
X124040000Y-73112380D01*
X124516190Y-73112380D01*
X124897142Y-74064761D02*
X125040000Y-74112380D01*
X125278095Y-74112380D01*
X125373333Y-74064761D01*
X125420952Y-74017142D01*
X125468571Y-73921904D01*
X125468571Y-73826666D01*
X125420952Y-73731428D01*
X125373333Y-73683809D01*
X125278095Y-73636190D01*
X125087619Y-73588571D01*
X124992380Y-73540952D01*
X124944761Y-73493333D01*
X124897142Y-73398095D01*
X124897142Y-73302857D01*
X124944761Y-73207619D01*
X124992380Y-73160000D01*
X125087619Y-73112380D01*
X125325714Y-73112380D01*
X125468571Y-73160000D01*
X125897142Y-74112380D02*
X125897142Y-73112380D01*
X126278095Y-73112380D01*
X126373333Y-73160000D01*
X126420952Y-73207619D01*
X126468571Y-73302857D01*
X126468571Y-73445714D01*
X126420952Y-73540952D01*
X126373333Y-73588571D01*
X126278095Y-73636190D01*
X125897142Y-73636190D01*
X126801904Y-73112380D02*
X127420952Y-73112380D01*
X127087619Y-73493333D01*
X127230476Y-73493333D01*
X127325714Y-73540952D01*
X127373333Y-73588571D01*
X127420952Y-73683809D01*
X127420952Y-73921904D01*
X127373333Y-74017142D01*
X127325714Y-74064761D01*
X127230476Y-74112380D01*
X126944761Y-74112380D01*
X126849523Y-74064761D01*
X126801904Y-74017142D01*
X127801904Y-73207619D02*
X127849523Y-73160000D01*
X127944761Y-73112380D01*
X128182857Y-73112380D01*
X128278095Y-73160000D01*
X128325714Y-73207619D01*
X128373333Y-73302857D01*
X128373333Y-73398095D01*
X128325714Y-73540952D01*
X127754285Y-74112380D01*
X128373333Y-74112380D01*
X128563809Y-74207619D02*
X129325714Y-74207619D01*
X129563809Y-74112380D02*
X129563809Y-73112380D01*
X129944761Y-73112380D01*
X130040000Y-73160000D01*
X130087619Y-73207619D01*
X130135238Y-73302857D01*
X130135238Y-73445714D01*
X130087619Y-73540952D01*
X130040000Y-73588571D01*
X129944761Y-73636190D01*
X129563809Y-73636190D01*
X130563809Y-74112380D02*
X130563809Y-73445714D01*
X130563809Y-73112380D02*
X130516190Y-73160000D01*
X130563809Y-73207619D01*
X130611428Y-73160000D01*
X130563809Y-73112380D01*
X130563809Y-73207619D01*
X131468571Y-74064761D02*
X131373333Y-74112380D01*
X131182857Y-74112380D01*
X131087619Y-74064761D01*
X131040000Y-74017142D01*
X130992380Y-73921904D01*
X130992380Y-73636190D01*
X131040000Y-73540952D01*
X131087619Y-73493333D01*
X131182857Y-73445714D01*
X131373333Y-73445714D01*
X131468571Y-73493333D01*
X132040000Y-74112380D02*
X131944761Y-74064761D01*
X131897142Y-74017142D01*
X131849523Y-73921904D01*
X131849523Y-73636190D01*
X131897142Y-73540952D01*
X131944761Y-73493333D01*
X132040000Y-73445714D01*
X132182857Y-73445714D01*
X132278095Y-73493333D01*
X132325714Y-73540952D01*
X132373333Y-73636190D01*
X132373333Y-73921904D01*
X132325714Y-74017142D01*
X132278095Y-74064761D01*
X132182857Y-74112380D01*
X132040000Y-74112380D01*
X132563809Y-74207619D02*
X133325714Y-74207619D01*
X133563809Y-74112380D02*
X133563809Y-73112380D01*
X133801904Y-73112380D01*
X133944761Y-73160000D01*
X134040000Y-73255238D01*
X134087619Y-73350476D01*
X134135238Y-73540952D01*
X134135238Y-73683809D01*
X134087619Y-73874285D01*
X134040000Y-73969523D01*
X133944761Y-74064761D01*
X133801904Y-74112380D01*
X133563809Y-74112380D01*
X134992380Y-73445714D02*
X134992380Y-74112380D01*
X134754285Y-73064761D02*
X134516190Y-73779047D01*
X135135238Y-73779047D01*
M02*
