M48
; DRILL file {KiCad (5.1.5)-3} date 3/25/2020 4:50:19 PM
; FORMAT={-:-/ absolute / inch / decimal}
; #@! TF.CreationDate,2020-03-25T16:50:19-05:00
; #@! TF.GenerationSoftware,Kicad,Pcbnew,(5.1.5)-3
; #@! TF.FileFunction,Plated,1,2,PTH
FMAT,2
INCH
T1C0.0157
T2C0.0236
T3C0.0315
T4C0.0354
T5C0.0394
T6C0.0433
T7C0.0591
%
G90
G05
T1
X5.93Y-2.74
X5.97Y-3.16
X5.99Y-2.91
X6.07Y-3.49
X6.15Y-3.41
X6.31Y-3.25
X6.35Y-3.73
X6.45Y-3.56
T2
X6.5913Y-4.255
X6.67Y-4.255
X6.39Y-4.255
X6.4687Y-4.255
T3
X5.96Y-3.57
X6.26Y-3.57
X5.96Y-3.71
X6.26Y-3.71
T4
X6.58Y-3.59
X6.58Y-3.64
X6.58Y-3.69
X6.58Y-3.74
X6.58Y-3.86
X6.58Y-3.91
X6.58Y-3.96
X6.58Y-4.01
T5
X6.63Y-1.89
X6.63Y-1.99
X6.63Y-2.09
X6.63Y-2.19
X6.63Y-2.29
X6.63Y-2.39
X6.63Y-2.49
X5.08Y-1.85
X5.08Y-1.95
X5.08Y-2.05
X5.08Y-2.15
X5.08Y-2.25
X5.08Y-2.35
X5.08Y-2.45
X5.08Y-2.55
X5.08Y-2.65
X5.08Y-2.75
X5.08Y-2.85
X5.08Y-2.95
X5.08Y-3.05
X5.08Y-3.15
X5.08Y-3.25
X5.08Y-3.35
X5.08Y-3.45
X5.08Y-3.55
X5.08Y-3.65
X5.08Y-3.75
X5.78Y-1.85
X5.78Y-1.95
X5.78Y-2.05
X5.78Y-2.15
X5.78Y-2.25
X5.78Y-2.35
X5.78Y-2.45
X5.78Y-2.55
X5.78Y-2.65
X5.78Y-2.75
X5.78Y-2.85
X5.78Y-2.95
X5.78Y-3.05
X5.78Y-3.15
X5.78Y-3.25
X5.78Y-3.35
X5.78Y-3.45
X5.78Y-3.55
X5.78Y-3.65
X5.78Y-3.75
X5.48Y-3.975
X5.58Y-3.975
X5.68Y-3.975
X5.78Y-3.975
X6.63Y-2.7
X6.63Y-2.8
X6.63Y-2.9
X6.63Y-3.0
X6.63Y-3.1
X6.63Y-3.2
X6.63Y-3.3
X6.63Y-3.4
X6.025Y-5.525
X6.125Y-5.525
T6
X6.44Y-4.455
X6.54Y-4.455
X6.64Y-4.455
T7
X6.325Y-5.445
X6.525Y-5.445
T0
M30
