G04 #@! TF.GenerationSoftware,KiCad,Pcbnew,(5.1.5)-3*
G04 #@! TF.CreationDate,2020-03-24T20:47:17-05:00*
G04 #@! TF.ProjectId,PMT_PCB,504d545f-5043-4422-9e6b-696361645f70,rev?*
G04 #@! TF.SameCoordinates,Original*
G04 #@! TF.FileFunction,Copper,L1,Top*
G04 #@! TF.FilePolarity,Positive*
%FSLAX46Y46*%
G04 Gerber Fmt 4.6, Leading zero omitted, Abs format (unit mm)*
G04 Created by KiCad (PCBNEW (5.1.5)-3) date 2020-03-24 20:47:17*
%MOMM*%
%LPD*%
G04 APERTURE LIST*
%ADD10C,0.300000*%
%ADD11C,0.500000*%
%ADD12R,1.700000X1.700000*%
%ADD13O,1.700000X1.700000*%
%ADD14R,1.200000X1.200000*%
%ADD15C,1.200000*%
%ADD16O,1.600000X1.600000*%
%ADD17C,1.600000*%
%ADD18O,1.800000X1.070000*%
%ADD19R,1.800000X1.070000*%
%ADD20O,2.500000X2.500000*%
%ADD21R,2.500000X2.500000*%
%ADD22R,1.905000X2.000000*%
%ADD23O,1.905000X2.000000*%
%ADD24C,1.700000*%
%ADD25C,0.800000*%
%ADD26C,0.250000*%
%ADD27C,0.200000*%
G04 APERTURE END LIST*
D10*
X125392571Y-94023428D02*
X123892571Y-94023428D01*
X123892571Y-93452000D01*
X123964000Y-93309142D01*
X124035428Y-93237714D01*
X124178285Y-93166285D01*
X124392571Y-93166285D01*
X124535428Y-93237714D01*
X124606857Y-93309142D01*
X124678285Y-93452000D01*
X124678285Y-94023428D01*
X125392571Y-92523428D02*
X123892571Y-92523428D01*
X124964000Y-92023428D01*
X123892571Y-91523428D01*
X125392571Y-91523428D01*
X123892571Y-91023428D02*
X123892571Y-90166285D01*
X125392571Y-90594857D02*
X123892571Y-90594857D01*
D11*
X143850857Y-136818857D02*
X143850857Y-139818857D01*
X142708000Y-139818857D01*
X142422285Y-139676000D01*
X142279428Y-139533142D01*
X142136571Y-139247428D01*
X142136571Y-138818857D01*
X142279428Y-138533142D01*
X142422285Y-138390285D01*
X142708000Y-138247428D01*
X143850857Y-138247428D01*
X140850857Y-136818857D02*
X140850857Y-139818857D01*
X139850857Y-137676000D01*
X138850857Y-139818857D01*
X138850857Y-136818857D01*
X137850857Y-139818857D02*
X136136571Y-139818857D01*
X136993714Y-136818857D02*
X136993714Y-139818857D01*
D10*
X171787428Y-90888571D02*
X173287428Y-90888571D01*
X173287428Y-91460000D01*
X173216000Y-91602857D01*
X173144571Y-91674285D01*
X173001714Y-91745714D01*
X172787428Y-91745714D01*
X172644571Y-91674285D01*
X172573142Y-91602857D01*
X172501714Y-91460000D01*
X172501714Y-90888571D01*
X171787428Y-92388571D02*
X173287428Y-92388571D01*
X172216000Y-92888571D01*
X173287428Y-93388571D01*
X171787428Y-93388571D01*
X173287428Y-93888571D02*
X173287428Y-94745714D01*
X171787428Y-94317142D02*
X173287428Y-94317142D01*
X146768571Y-42588571D02*
X146768571Y-41088571D01*
X147340000Y-41088571D01*
X147482857Y-41160000D01*
X147554285Y-41231428D01*
X147625714Y-41374285D01*
X147625714Y-41588571D01*
X147554285Y-41731428D01*
X147482857Y-41802857D01*
X147340000Y-41874285D01*
X146768571Y-41874285D01*
X148268571Y-42588571D02*
X148268571Y-41088571D01*
X148768571Y-42160000D01*
X149268571Y-41088571D01*
X149268571Y-42588571D01*
X149768571Y-41088571D02*
X150625714Y-41088571D01*
X150197142Y-42588571D02*
X150197142Y-41088571D01*
D12*
X139192000Y-129413000D03*
D13*
X141732000Y-129413000D03*
X144272000Y-129413000D03*
X146812000Y-129413000D03*
D12*
X168402000Y-63246000D03*
D13*
X168402000Y-60706000D03*
X168402000Y-58166000D03*
X168402000Y-55626000D03*
X168402000Y-53086000D03*
X168402000Y-50546000D03*
X168402000Y-48006000D03*
D14*
X162306000Y-108077000D03*
D15*
X164306000Y-108077000D03*
D16*
X159004000Y-94234000D03*
D17*
X151384000Y-94234000D03*
D16*
X159004000Y-90678000D03*
D17*
X151384000Y-90678000D03*
D18*
X167132000Y-101854000D03*
X167132000Y-100584000D03*
X167132000Y-99314000D03*
D19*
X167132000Y-98044000D03*
D18*
X167132000Y-94996000D03*
X167132000Y-93726000D03*
X167132000Y-92456000D03*
D19*
X167132000Y-91186000D03*
D20*
X165735000Y-138303000D03*
D21*
X160655000Y-138303000D03*
D13*
X155575000Y-140335000D03*
D12*
X153035000Y-140335000D03*
D22*
X168656000Y-113157000D03*
D23*
X166116000Y-113157000D03*
X163576000Y-113157000D03*
D13*
X168402000Y-68580000D03*
X168402000Y-71120000D03*
X168402000Y-73660000D03*
X168402000Y-76200000D03*
X168402000Y-78740000D03*
X168402000Y-81280000D03*
X168402000Y-83820000D03*
D12*
X168402000Y-86360000D03*
D24*
X146812000Y-46990000D03*
D13*
X146812000Y-69850000D03*
X146812000Y-72390000D03*
X146812000Y-74930000D03*
X146812000Y-57150000D03*
X146812000Y-49530000D03*
X146812000Y-64770000D03*
X146812000Y-67310000D03*
X146812000Y-82550000D03*
X146812000Y-92710000D03*
X146812000Y-54610000D03*
X146812000Y-52070000D03*
X146812000Y-85090000D03*
X146812000Y-95250000D03*
X146812000Y-90170000D03*
X146812000Y-77470000D03*
X146812000Y-59690000D03*
X146812000Y-80010000D03*
X146812000Y-62230000D03*
X146812000Y-87630000D03*
D12*
X129032000Y-46990000D03*
D13*
X129032000Y-69850000D03*
X129032000Y-72390000D03*
X129032000Y-74930000D03*
X129032000Y-57150000D03*
X129032000Y-49530000D03*
X129032000Y-64770000D03*
X129032000Y-67310000D03*
X129032000Y-82550000D03*
X129032000Y-92710000D03*
X129032000Y-54610000D03*
X129032000Y-52070000D03*
X129032000Y-85090000D03*
X129032000Y-95250000D03*
X129032000Y-90170000D03*
X129032000Y-77470000D03*
X129032000Y-59690000D03*
X129032000Y-80010000D03*
X129032000Y-62230000D03*
X129032000Y-87630000D03*
D15*
X167418000Y-108077000D03*
D14*
X169418000Y-108077000D03*
D25*
X154178000Y-88646000D03*
X156210000Y-86614000D03*
X160274000Y-82550000D03*
X152146000Y-73914000D03*
X150622000Y-69596000D03*
X136398000Y-92964000D03*
X163830000Y-90424000D03*
X151638000Y-80264000D03*
X161290000Y-94742000D03*
D26*
X151384000Y-90678000D02*
X151384000Y-94234000D01*
X164306000Y-108077000D02*
X167418000Y-108077000D01*
X166116000Y-113109500D02*
X166116000Y-113157000D01*
X167318500Y-111907000D02*
X166116000Y-113109500D01*
X167366000Y-111907000D02*
X167318500Y-111907000D01*
X167418000Y-111855000D02*
X167366000Y-111907000D01*
X167418000Y-108077000D02*
X167418000Y-111855000D01*
X166116000Y-137922000D02*
X165735000Y-138303000D01*
X166116000Y-113157000D02*
X166116000Y-137922000D01*
X163703000Y-140335000D02*
X155575000Y-140335000D01*
X165735000Y-138303000D02*
X163703000Y-140335000D01*
X155575000Y-138176000D02*
X146812000Y-129413000D01*
X155575000Y-140335000D02*
X155575000Y-138176000D01*
D27*
X154178000Y-88646000D02*
X156210000Y-86614000D01*
X161544000Y-81280000D02*
X168402000Y-81280000D01*
X160274000Y-82550000D02*
X161544000Y-81280000D01*
X150368000Y-53086000D02*
X146812000Y-49530000D01*
X168402000Y-53086000D02*
X150368000Y-53086000D01*
D26*
X154348000Y-113157000D02*
X162373500Y-113157000D01*
X162373500Y-113157000D02*
X163576000Y-113157000D01*
X139192000Y-128313000D02*
X154348000Y-113157000D01*
X139192000Y-129413000D02*
X139192000Y-128313000D01*
X163576000Y-109347000D02*
X162306000Y-108077000D01*
X163576000Y-113157000D02*
X163576000Y-109347000D01*
X169502000Y-86360000D02*
X168402000Y-86360000D01*
X170434000Y-87292000D02*
X169502000Y-86360000D01*
X162306000Y-107227000D02*
X165139000Y-104394000D01*
X162306000Y-108077000D02*
X162306000Y-107227000D01*
X168148000Y-104394000D02*
X170434000Y-102108000D01*
X165139000Y-104394000D02*
X168148000Y-104394000D01*
X170434000Y-102108000D02*
X170434000Y-87292000D01*
X169502000Y-86360000D02*
X171450000Y-84412000D01*
X171450000Y-61214000D02*
X168402000Y-58166000D01*
X171450000Y-84412000D02*
X171450000Y-61214000D01*
X152908000Y-58166000D02*
X146812000Y-52070000D01*
X168402000Y-58166000D02*
X152908000Y-58166000D01*
X141732000Y-46990000D02*
X129032000Y-46990000D01*
X146812000Y-52070000D02*
X141732000Y-46990000D01*
D27*
X135382000Y-68580000D02*
X129032000Y-62230000D01*
X168402000Y-68580000D02*
X135382000Y-68580000D01*
X129881999Y-70699999D02*
X129032000Y-69850000D01*
X130421999Y-71239999D02*
X129881999Y-70699999D01*
X163441999Y-71239999D02*
X130421999Y-71239999D01*
X168402000Y-76200000D02*
X163441999Y-71239999D01*
X168402000Y-78740000D02*
X156972000Y-78740000D01*
X156972000Y-78740000D02*
X152146000Y-73914000D01*
X147066000Y-69596000D02*
X146812000Y-69850000D01*
X150622000Y-69596000D02*
X147066000Y-69596000D01*
X148336000Y-63246000D02*
X146812000Y-64770000D01*
X168402000Y-63246000D02*
X148336000Y-63246000D01*
X148336000Y-60706000D02*
X146812000Y-62230000D01*
X168402000Y-60706000D02*
X148336000Y-60706000D01*
X136398000Y-92964000D02*
X134366000Y-90932000D01*
X132334000Y-90932000D02*
X129032000Y-87630000D01*
X134366000Y-90932000D02*
X132334000Y-90932000D01*
X163830000Y-90424000D02*
X161798000Y-90424000D01*
X161798000Y-90424000D02*
X151638000Y-80264000D01*
X150114000Y-78232000D02*
X146812000Y-74930000D01*
X161290000Y-93726000D02*
X160020000Y-92456000D01*
X167132000Y-93726000D02*
X161290000Y-93726000D01*
X160020000Y-92456000D02*
X156972000Y-92456000D01*
X156972000Y-92456000D02*
X150114000Y-85598000D01*
X150114000Y-85598000D02*
X150114000Y-78232000D01*
X149071000Y-72390000D02*
X148014081Y-72390000D01*
X167132000Y-90451000D02*
X149071000Y-72390000D01*
X148014081Y-72390000D02*
X146812000Y-72390000D01*
X167132000Y-91186000D02*
X167132000Y-90451000D01*
X163725998Y-100584000D02*
X148844000Y-85702002D01*
X167132000Y-100584000D02*
X163725998Y-100584000D01*
X148844000Y-84582000D02*
X146812000Y-82550000D01*
X148844000Y-85702002D02*
X148844000Y-84582000D01*
X167132000Y-98044000D02*
X164592000Y-98044000D01*
X164592000Y-98044000D02*
X161290000Y-94742000D01*
X160782000Y-92456000D02*
X159004000Y-90678000D01*
X167132000Y-92456000D02*
X160782000Y-92456000D01*
X164084000Y-99314000D02*
X159004000Y-94234000D01*
X167132000Y-99314000D02*
X164084000Y-99314000D01*
M02*
