M48
; DRILL file {KiCad (5.1.5)-3} date 3/21/2020 1:19:12 PM
; FORMAT={-:-/ absolute / inch / decimal}
; #@! TF.CreationDate,2020-03-21T13:19:12-05:00
; #@! TF.GenerationSoftware,Kicad,Pcbnew,(5.1.5)-3
; #@! TF.FileFunction,Plated,1,2,PTH
FMAT,2
INCH
T1C0.0157
T2C0.0236
T3C0.0394
T4C0.0433
T5C0.0591
%
G90
G05
T1
X4.95Y-3.55
X5.05Y-3.65
X5.1Y-3.5
X5.15Y-3.45
X5.16Y-3.35
X5.25Y-3.45
X5.29Y-2.54
X5.32Y-3.4
X5.34Y-3.3
X5.56Y-3.25
X5.78Y-3.6776
X5.82Y-2.73
X5.82Y-2.81
X5.86Y-3.48
X5.91Y-3.64
X5.97Y-3.27
X5.99Y-3.53
X6.21Y-2.81
T2
X4.95Y-3.23
X5.0287Y-3.23
X5.1513Y-3.23
X5.23Y-3.23
T3
X5.75Y-4.38
X5.85Y-4.38
X6.35Y-3.23
X6.35Y-3.33
X6.35Y-3.43
X6.35Y-3.53
X6.35Y-3.63
X6.35Y-3.73
X6.35Y-3.83
X6.35Y-3.93
X4.75Y-2.4
X4.75Y-2.5
X4.75Y-2.6
X4.75Y-2.7
X4.75Y-2.8
X4.75Y-2.9
X4.75Y-3.0
X4.75Y-3.1
X4.75Y-3.2
X4.75Y-3.3
X4.75Y-3.4
X4.75Y-3.5
X4.75Y-3.6
X4.75Y-3.7
X4.75Y-3.8
X4.75Y-3.9
X4.75Y-4.0
X4.75Y-4.1
X4.75Y-4.2
X4.75Y-4.3
X5.45Y-2.4
X5.45Y-2.5
X5.45Y-2.6
X5.45Y-2.7
X5.45Y-2.8
X5.45Y-2.9
X5.45Y-3.0
X5.45Y-3.1
X5.45Y-3.2
X5.45Y-3.3
X5.45Y-3.4
X5.45Y-3.5
X5.45Y-3.6
X5.45Y-3.7
X5.45Y-3.8
X5.45Y-3.9
X5.45Y-4.0
X5.45Y-4.1
X5.45Y-4.2
X5.45Y-4.3
X6.045Y-2.85
X6.045Y-2.95
X6.045Y-3.05
X6.045Y-3.15
X6.35Y-2.4
X6.35Y-2.5
X6.35Y-2.6
X6.35Y-2.7
X6.35Y-2.8
X6.35Y-2.9
X6.35Y-3.0
T4
X5.0Y-3.03
X5.1Y-3.03
X5.2Y-3.03
T5
X6.05Y-4.3
X6.25Y-4.3
T0
M30
