G04 #@! TF.GenerationSoftware,KiCad,Pcbnew,(5.1.5)-3*
G04 #@! TF.CreationDate,2020-03-24T20:47:17-05:00*
G04 #@! TF.ProjectId,PMT_PCB,504d545f-5043-4422-9e6b-696361645f70,rev?*
G04 #@! TF.SameCoordinates,Original*
G04 #@! TF.FileFunction,Legend,Top*
G04 #@! TF.FilePolarity,Positive*
%FSLAX46Y46*%
G04 Gerber Fmt 4.6, Leading zero omitted, Abs format (unit mm)*
G04 Created by KiCad (PCBNEW (5.1.5)-3) date 2020-03-24 20:47:17*
%MOMM*%
%LPD*%
G04 APERTURE LIST*
%ADD10C,0.150000*%
%ADD11C,0.120000*%
G04 APERTURE END LIST*
D10*
X168529047Y-92527428D02*
X169290952Y-92527428D01*
X168529047Y-99385428D02*
X169290952Y-99385428D01*
X169203619Y-116832190D02*
X168203619Y-117165523D01*
X169203619Y-117498857D01*
X168203619Y-117832190D02*
X168870285Y-117832190D01*
X169203619Y-117832190D02*
X169156000Y-117784571D01*
X169108380Y-117832190D01*
X169156000Y-117879809D01*
X169203619Y-117832190D01*
X169108380Y-117832190D01*
X168870285Y-118308380D02*
X168203619Y-118308380D01*
X168775047Y-118308380D02*
X168822666Y-118356000D01*
X168870285Y-118451238D01*
X168870285Y-118594095D01*
X168822666Y-118689333D01*
X168727428Y-118736952D01*
X168203619Y-118736952D01*
X166616000Y-117348095D02*
X166663619Y-117252857D01*
X166663619Y-117110000D01*
X166616000Y-116967142D01*
X166520761Y-116871904D01*
X166425523Y-116824285D01*
X166235047Y-116776666D01*
X166092190Y-116776666D01*
X165901714Y-116824285D01*
X165806476Y-116871904D01*
X165711238Y-116967142D01*
X165663619Y-117110000D01*
X165663619Y-117205238D01*
X165711238Y-117348095D01*
X165758857Y-117395714D01*
X166092190Y-117395714D01*
X166092190Y-117205238D01*
X165663619Y-117824285D02*
X166663619Y-117824285D01*
X165663619Y-118395714D01*
X166663619Y-118395714D01*
X165663619Y-118871904D02*
X166663619Y-118871904D01*
X166663619Y-119110000D01*
X166616000Y-119252857D01*
X166520761Y-119348095D01*
X166425523Y-119395714D01*
X166235047Y-119443333D01*
X166092190Y-119443333D01*
X165901714Y-119395714D01*
X165806476Y-119348095D01*
X165711238Y-119252857D01*
X165663619Y-119110000D01*
X165663619Y-118871904D01*
X164123619Y-116887809D02*
X164123619Y-117506857D01*
X163742666Y-117173523D01*
X163742666Y-117316380D01*
X163695047Y-117411619D01*
X163647428Y-117459238D01*
X163552190Y-117506857D01*
X163314095Y-117506857D01*
X163218857Y-117459238D01*
X163171238Y-117411619D01*
X163123619Y-117316380D01*
X163123619Y-117030666D01*
X163171238Y-116935428D01*
X163218857Y-116887809D01*
X163218857Y-117935428D02*
X163171238Y-117983047D01*
X163123619Y-117935428D01*
X163171238Y-117887809D01*
X163218857Y-117935428D01*
X163123619Y-117935428D01*
X164123619Y-118316380D02*
X164123619Y-118935428D01*
X163742666Y-118602095D01*
X163742666Y-118744952D01*
X163695047Y-118840190D01*
X163647428Y-118887809D01*
X163552190Y-118935428D01*
X163314095Y-118935428D01*
X163218857Y-118887809D01*
X163171238Y-118840190D01*
X163123619Y-118744952D01*
X163123619Y-118459238D01*
X163171238Y-118364000D01*
X163218857Y-118316380D01*
X164123619Y-119221142D02*
X163123619Y-119554476D01*
X164123619Y-119887809D01*
X144970952Y-147788380D02*
X144494761Y-147788380D01*
X144447142Y-148264571D01*
X144494761Y-148216952D01*
X144590000Y-148169333D01*
X144828095Y-148169333D01*
X144923333Y-148216952D01*
X144970952Y-148264571D01*
X145018571Y-148359809D01*
X145018571Y-148597904D01*
X144970952Y-148693142D01*
X144923333Y-148740761D01*
X144828095Y-148788380D01*
X144590000Y-148788380D01*
X144494761Y-148740761D01*
X144447142Y-148693142D01*
X145637619Y-147788380D02*
X145732857Y-147788380D01*
X145828095Y-147836000D01*
X145875714Y-147883619D01*
X145923333Y-147978857D01*
X145970952Y-148169333D01*
X145970952Y-148407428D01*
X145923333Y-148597904D01*
X145875714Y-148693142D01*
X145828095Y-148740761D01*
X145732857Y-148788380D01*
X145637619Y-148788380D01*
X145542380Y-148740761D01*
X145494761Y-148693142D01*
X145447142Y-148597904D01*
X145399523Y-148407428D01*
X145399523Y-148169333D01*
X145447142Y-147978857D01*
X145494761Y-147883619D01*
X145542380Y-147836000D01*
X145637619Y-147788380D01*
X146399523Y-148693142D02*
X146447142Y-148740761D01*
X146399523Y-148788380D01*
X146351904Y-148740761D01*
X146399523Y-148693142D01*
X146399523Y-148788380D01*
X147018571Y-148216952D02*
X146923333Y-148169333D01*
X146875714Y-148121714D01*
X146828095Y-148026476D01*
X146828095Y-147978857D01*
X146875714Y-147883619D01*
X146923333Y-147836000D01*
X147018571Y-147788380D01*
X147209047Y-147788380D01*
X147304285Y-147836000D01*
X147351904Y-147883619D01*
X147399523Y-147978857D01*
X147399523Y-148026476D01*
X147351904Y-148121714D01*
X147304285Y-148169333D01*
X147209047Y-148216952D01*
X147018571Y-148216952D01*
X146923333Y-148264571D01*
X146875714Y-148312190D01*
X146828095Y-148407428D01*
X146828095Y-148597904D01*
X146875714Y-148693142D01*
X146923333Y-148740761D01*
X147018571Y-148788380D01*
X147209047Y-148788380D01*
X147304285Y-148740761D01*
X147351904Y-148693142D01*
X147399523Y-148597904D01*
X147399523Y-148407428D01*
X147351904Y-148312190D01*
X147304285Y-148264571D01*
X147209047Y-148216952D01*
X148018571Y-147788380D02*
X148113809Y-147788380D01*
X148209047Y-147836000D01*
X148256666Y-147883619D01*
X148304285Y-147978857D01*
X148351904Y-148169333D01*
X148351904Y-148407428D01*
X148304285Y-148597904D01*
X148256666Y-148693142D01*
X148209047Y-148740761D01*
X148113809Y-148788380D01*
X148018571Y-148788380D01*
X147923333Y-148740761D01*
X147875714Y-148693142D01*
X147828095Y-148597904D01*
X147780476Y-148407428D01*
X147780476Y-148169333D01*
X147828095Y-147978857D01*
X147875714Y-147883619D01*
X147923333Y-147836000D01*
X148018571Y-147788380D01*
X148970952Y-147788380D02*
X149066190Y-147788380D01*
X149161428Y-147836000D01*
X149209047Y-147883619D01*
X149256666Y-147978857D01*
X149304285Y-148169333D01*
X149304285Y-148407428D01*
X149256666Y-148597904D01*
X149209047Y-148693142D01*
X149161428Y-148740761D01*
X149066190Y-148788380D01*
X148970952Y-148788380D01*
X148875714Y-148740761D01*
X148828095Y-148693142D01*
X148780476Y-148597904D01*
X148732857Y-148407428D01*
X148732857Y-148169333D01*
X148780476Y-147978857D01*
X148828095Y-147883619D01*
X148875714Y-147836000D01*
X148970952Y-147788380D01*
X150494761Y-148788380D02*
X150494761Y-148121714D01*
X150494761Y-148216952D02*
X150542380Y-148169333D01*
X150637619Y-148121714D01*
X150780476Y-148121714D01*
X150875714Y-148169333D01*
X150923333Y-148264571D01*
X150923333Y-148788380D01*
X150923333Y-148264571D02*
X150970952Y-148169333D01*
X151066190Y-148121714D01*
X151209047Y-148121714D01*
X151304285Y-148169333D01*
X151351904Y-148264571D01*
X151351904Y-148788380D01*
X151828095Y-148788380D02*
X151828095Y-148121714D01*
X151828095Y-148216952D02*
X151875714Y-148169333D01*
X151970952Y-148121714D01*
X152113809Y-148121714D01*
X152209047Y-148169333D01*
X152256666Y-148264571D01*
X152256666Y-148788380D01*
X152256666Y-148264571D02*
X152304285Y-148169333D01*
X152399523Y-148121714D01*
X152542380Y-148121714D01*
X152637619Y-148169333D01*
X152685238Y-148264571D01*
X152685238Y-148788380D01*
D11*
X123190000Y-147066000D02*
X173990000Y-147066000D01*
X123190000Y-144018000D02*
X123190000Y-147652421D01*
X173990000Y-144018000D02*
X173990000Y-147652421D01*
X173990000Y-147066000D02*
X172863496Y-147652421D01*
X173990000Y-147066000D02*
X172863496Y-146479579D01*
X123190000Y-147066000D02*
X124316504Y-147652421D01*
X123190000Y-147066000D02*
X124316504Y-146479579D01*
D10*
X116387619Y-88281380D02*
X116387619Y-87709952D01*
X116387619Y-87995666D02*
X117387619Y-87995666D01*
X117244761Y-87900428D01*
X117149523Y-87805190D01*
X117101904Y-87709952D01*
X117387619Y-88900428D02*
X117387619Y-88995666D01*
X117340000Y-89090904D01*
X117292380Y-89138523D01*
X117197142Y-89186142D01*
X117006666Y-89233761D01*
X116768571Y-89233761D01*
X116578095Y-89186142D01*
X116482857Y-89138523D01*
X116435238Y-89090904D01*
X116387619Y-88995666D01*
X116387619Y-88900428D01*
X116435238Y-88805190D01*
X116482857Y-88757571D01*
X116578095Y-88709952D01*
X116768571Y-88662333D01*
X117006666Y-88662333D01*
X117197142Y-88709952D01*
X117292380Y-88757571D01*
X117340000Y-88805190D01*
X117387619Y-88900428D01*
X117387619Y-89567095D02*
X117387619Y-90186142D01*
X117006666Y-89852809D01*
X117006666Y-89995666D01*
X116959047Y-90090904D01*
X116911428Y-90138523D01*
X116816190Y-90186142D01*
X116578095Y-90186142D01*
X116482857Y-90138523D01*
X116435238Y-90090904D01*
X116387619Y-89995666D01*
X116387619Y-89709952D01*
X116435238Y-89614714D01*
X116482857Y-89567095D01*
X116482857Y-90614714D02*
X116435238Y-90662333D01*
X116387619Y-90614714D01*
X116435238Y-90567095D01*
X116482857Y-90614714D01*
X116387619Y-90614714D01*
X117387619Y-90995666D02*
X117387619Y-91614714D01*
X117006666Y-91281380D01*
X117006666Y-91424238D01*
X116959047Y-91519476D01*
X116911428Y-91567095D01*
X116816190Y-91614714D01*
X116578095Y-91614714D01*
X116482857Y-91567095D01*
X116435238Y-91519476D01*
X116387619Y-91424238D01*
X116387619Y-91138523D01*
X116435238Y-91043285D01*
X116482857Y-90995666D01*
X117387619Y-91948047D02*
X117387619Y-92614714D01*
X116387619Y-92186142D01*
X116959047Y-93138523D02*
X117006666Y-93043285D01*
X117054285Y-92995666D01*
X117149523Y-92948047D01*
X117197142Y-92948047D01*
X117292380Y-92995666D01*
X117340000Y-93043285D01*
X117387619Y-93138523D01*
X117387619Y-93329000D01*
X117340000Y-93424238D01*
X117292380Y-93471857D01*
X117197142Y-93519476D01*
X117149523Y-93519476D01*
X117054285Y-93471857D01*
X117006666Y-93424238D01*
X116959047Y-93329000D01*
X116959047Y-93138523D01*
X116911428Y-93043285D01*
X116863809Y-92995666D01*
X116768571Y-92948047D01*
X116578095Y-92948047D01*
X116482857Y-92995666D01*
X116435238Y-93043285D01*
X116387619Y-93138523D01*
X116387619Y-93329000D01*
X116435238Y-93424238D01*
X116482857Y-93471857D01*
X116578095Y-93519476D01*
X116768571Y-93519476D01*
X116863809Y-93471857D01*
X116911428Y-93424238D01*
X116959047Y-93329000D01*
X116387619Y-94709952D02*
X117054285Y-94709952D01*
X116959047Y-94709952D02*
X117006666Y-94757571D01*
X117054285Y-94852809D01*
X117054285Y-94995666D01*
X117006666Y-95090904D01*
X116911428Y-95138523D01*
X116387619Y-95138523D01*
X116911428Y-95138523D02*
X117006666Y-95186142D01*
X117054285Y-95281380D01*
X117054285Y-95424238D01*
X117006666Y-95519476D01*
X116911428Y-95567095D01*
X116387619Y-95567095D01*
X116387619Y-96043285D02*
X117054285Y-96043285D01*
X116959047Y-96043285D02*
X117006666Y-96090904D01*
X117054285Y-96186142D01*
X117054285Y-96329000D01*
X117006666Y-96424238D01*
X116911428Y-96471857D01*
X116387619Y-96471857D01*
X116911428Y-96471857D02*
X117006666Y-96519476D01*
X117054285Y-96614714D01*
X117054285Y-96757571D01*
X117006666Y-96852809D01*
X116911428Y-96900428D01*
X116387619Y-96900428D01*
D11*
X118110000Y-40640000D02*
X118110000Y-144018000D01*
X123190000Y-40640000D02*
X117523579Y-40640000D01*
X123190000Y-144018000D02*
X117523579Y-144018000D01*
X118110000Y-144018000D02*
X117523579Y-142891496D01*
X118110000Y-144018000D02*
X118696421Y-142891496D01*
X118110000Y-40640000D02*
X117523579Y-41766504D01*
X118110000Y-40640000D02*
X118696421Y-41766504D01*
X243332000Y-81788000D02*
X243332000Y-143002000D01*
X195834000Y-81788000D02*
X243332000Y-81788000D01*
X195834000Y-143002000D02*
X195834000Y-81788000D01*
X243332000Y-143002000D02*
X195834000Y-143002000D01*
D10*
X217876380Y-116498190D02*
X217876380Y-116974380D01*
X216876380Y-116974380D01*
X217876380Y-116164857D02*
X216876380Y-116164857D01*
X217876380Y-115688666D02*
X216876380Y-115688666D01*
X216876380Y-115307714D01*
X216924000Y-115212476D01*
X216971619Y-115164857D01*
X217066857Y-115117238D01*
X217209714Y-115117238D01*
X217304952Y-115164857D01*
X217352571Y-115212476D01*
X217400190Y-115307714D01*
X217400190Y-115688666D01*
X216876380Y-114498190D02*
X216876380Y-114307714D01*
X216924000Y-114212476D01*
X217019238Y-114117238D01*
X217209714Y-114069619D01*
X217543047Y-114069619D01*
X217733523Y-114117238D01*
X217828761Y-114212476D01*
X217876380Y-114307714D01*
X217876380Y-114498190D01*
X217828761Y-114593428D01*
X217733523Y-114688666D01*
X217543047Y-114736285D01*
X217209714Y-114736285D01*
X217019238Y-114688666D01*
X216924000Y-114593428D01*
X216876380Y-114498190D01*
X217352571Y-112545809D02*
X217400190Y-112402952D01*
X217447809Y-112355333D01*
X217543047Y-112307714D01*
X217685904Y-112307714D01*
X217781142Y-112355333D01*
X217828761Y-112402952D01*
X217876380Y-112498190D01*
X217876380Y-112879142D01*
X216876380Y-112879142D01*
X216876380Y-112545809D01*
X216924000Y-112450571D01*
X216971619Y-112402952D01*
X217066857Y-112355333D01*
X217162095Y-112355333D01*
X217257333Y-112402952D01*
X217304952Y-112450571D01*
X217352571Y-112545809D01*
X217352571Y-112879142D01*
X217876380Y-111450571D02*
X217352571Y-111450571D01*
X217257333Y-111498190D01*
X217209714Y-111593428D01*
X217209714Y-111783904D01*
X217257333Y-111879142D01*
X217828761Y-111450571D02*
X217876380Y-111545809D01*
X217876380Y-111783904D01*
X217828761Y-111879142D01*
X217733523Y-111926761D01*
X217638285Y-111926761D01*
X217543047Y-111879142D01*
X217495428Y-111783904D01*
X217495428Y-111545809D01*
X217447809Y-111450571D01*
X217209714Y-111117238D02*
X217209714Y-110736285D01*
X216876380Y-110974380D02*
X217733523Y-110974380D01*
X217828761Y-110926761D01*
X217876380Y-110831523D01*
X217876380Y-110736285D01*
X217209714Y-110545809D02*
X217209714Y-110164857D01*
X216876380Y-110402952D02*
X217733523Y-110402952D01*
X217828761Y-110355333D01*
X217876380Y-110260095D01*
X217876380Y-110164857D01*
X217828761Y-109450571D02*
X217876380Y-109545809D01*
X217876380Y-109736285D01*
X217828761Y-109831523D01*
X217733523Y-109879142D01*
X217352571Y-109879142D01*
X217257333Y-109831523D01*
X217209714Y-109736285D01*
X217209714Y-109545809D01*
X217257333Y-109450571D01*
X217352571Y-109402952D01*
X217447809Y-109402952D01*
X217543047Y-109879142D01*
X217876380Y-108974380D02*
X217209714Y-108974380D01*
X217400190Y-108974380D02*
X217304952Y-108926761D01*
X217257333Y-108879142D01*
X217209714Y-108783904D01*
X217209714Y-108688666D01*
X217209714Y-108450571D02*
X217876380Y-108212476D01*
X217209714Y-107974380D02*
X217876380Y-108212476D01*
X218114476Y-108307714D01*
X218162095Y-108355333D01*
X218209714Y-108450571D01*
D11*
X171236000Y-130810000D02*
X161036000Y-130810000D01*
X160996000Y-116427000D02*
X160996000Y-130810000D01*
X171236000Y-116427000D02*
X171236000Y-130810000D01*
D10*
X245880000Y-69452619D02*
X245832380Y-69547857D01*
X245832380Y-69690714D01*
X245880000Y-69833571D01*
X245975238Y-69928809D01*
X246070476Y-69976428D01*
X246260952Y-70024047D01*
X246403809Y-70024047D01*
X246594285Y-69976428D01*
X246689523Y-69928809D01*
X246784761Y-69833571D01*
X246832380Y-69690714D01*
X246832380Y-69595476D01*
X246784761Y-69452619D01*
X246737142Y-69405000D01*
X246403809Y-69405000D01*
X246403809Y-69595476D01*
X246832380Y-68976428D02*
X245832380Y-68976428D01*
X245832380Y-68595476D01*
X245880000Y-68500238D01*
X245927619Y-68452619D01*
X246022857Y-68405000D01*
X246165714Y-68405000D01*
X246260952Y-68452619D01*
X246308571Y-68500238D01*
X246356190Y-68595476D01*
X246356190Y-68976428D01*
X246784761Y-68024047D02*
X246832380Y-67881190D01*
X246832380Y-67643095D01*
X246784761Y-67547857D01*
X246737142Y-67500238D01*
X246641904Y-67452619D01*
X246546666Y-67452619D01*
X246451428Y-67500238D01*
X246403809Y-67547857D01*
X246356190Y-67643095D01*
X246308571Y-67833571D01*
X246260952Y-67928809D01*
X246213333Y-67976428D01*
X246118095Y-68024047D01*
X246022857Y-68024047D01*
X245927619Y-67976428D01*
X245880000Y-67928809D01*
X245832380Y-67833571D01*
X245832380Y-67595476D01*
X245880000Y-67452619D01*
X246927619Y-67262142D02*
X246927619Y-66500238D01*
X246546666Y-66309761D02*
X246546666Y-65833571D01*
X246832380Y-66405000D02*
X245832380Y-66071666D01*
X246832380Y-65738333D01*
X246165714Y-65405000D02*
X246832380Y-65405000D01*
X246260952Y-65405000D02*
X246213333Y-65357380D01*
X246165714Y-65262142D01*
X246165714Y-65119285D01*
X246213333Y-65024047D01*
X246308571Y-64976428D01*
X246832380Y-64976428D01*
X246165714Y-64643095D02*
X246165714Y-64262142D01*
X245832380Y-64500238D02*
X246689523Y-64500238D01*
X246784761Y-64452619D01*
X246832380Y-64357380D01*
X246832380Y-64262142D01*
X246784761Y-63547857D02*
X246832380Y-63643095D01*
X246832380Y-63833571D01*
X246784761Y-63928809D01*
X246689523Y-63976428D01*
X246308571Y-63976428D01*
X246213333Y-63928809D01*
X246165714Y-63833571D01*
X246165714Y-63643095D01*
X246213333Y-63547857D01*
X246308571Y-63500238D01*
X246403809Y-63500238D01*
X246499047Y-63976428D01*
X246165714Y-63071666D02*
X246832380Y-63071666D01*
X246260952Y-63071666D02*
X246213333Y-63024047D01*
X246165714Y-62928809D01*
X246165714Y-62785952D01*
X246213333Y-62690714D01*
X246308571Y-62643095D01*
X246832380Y-62643095D01*
X246165714Y-62166904D02*
X246832380Y-62166904D01*
X246260952Y-62166904D02*
X246213333Y-62119285D01*
X246165714Y-62024047D01*
X246165714Y-61881190D01*
X246213333Y-61785952D01*
X246308571Y-61738333D01*
X246832380Y-61738333D01*
X246832380Y-60833571D02*
X246308571Y-60833571D01*
X246213333Y-60881190D01*
X246165714Y-60976428D01*
X246165714Y-61166904D01*
X246213333Y-61262142D01*
X246784761Y-60833571D02*
X246832380Y-60928809D01*
X246832380Y-61166904D01*
X246784761Y-61262142D01*
X246689523Y-61309761D01*
X246594285Y-61309761D01*
X246499047Y-61262142D01*
X246451428Y-61166904D01*
X246451428Y-60928809D01*
X246403809Y-60833571D01*
D11*
X233045000Y-53340000D02*
X233045000Y-78740000D01*
X258445000Y-53340000D02*
X233045000Y-53340000D01*
X258445000Y-78740000D02*
X258445000Y-53340000D01*
X233045000Y-78740000D02*
X258445000Y-78740000D01*
D10*
X155321047Y-143073428D02*
X156082952Y-143073428D01*
X152654047Y-143073428D02*
X153415952Y-143073428D01*
X153035000Y-143454380D02*
X153035000Y-142692476D01*
X142033809Y-51776380D02*
X142652857Y-51776380D01*
X142319523Y-52157333D01*
X142462380Y-52157333D01*
X142557619Y-52204952D01*
X142605238Y-52252571D01*
X142652857Y-52347809D01*
X142652857Y-52585904D01*
X142605238Y-52681142D01*
X142557619Y-52728761D01*
X142462380Y-52776380D01*
X142176666Y-52776380D01*
X142081428Y-52728761D01*
X142033809Y-52681142D01*
X143081428Y-52681142D02*
X143129047Y-52728761D01*
X143081428Y-52776380D01*
X143033809Y-52728761D01*
X143081428Y-52681142D01*
X143081428Y-52776380D01*
X143462380Y-51776380D02*
X144081428Y-51776380D01*
X143748095Y-52157333D01*
X143890952Y-52157333D01*
X143986190Y-52204952D01*
X144033809Y-52252571D01*
X144081428Y-52347809D01*
X144081428Y-52585904D01*
X144033809Y-52681142D01*
X143986190Y-52728761D01*
X143890952Y-52776380D01*
X143605238Y-52776380D01*
X143510000Y-52728761D01*
X143462380Y-52681142D01*
X144367142Y-51776380D02*
X144700476Y-52776380D01*
X145033809Y-51776380D01*
X130603809Y-46442380D02*
X131222857Y-46442380D01*
X130889523Y-46823333D01*
X131032380Y-46823333D01*
X131127619Y-46870952D01*
X131175238Y-46918571D01*
X131222857Y-47013809D01*
X131222857Y-47251904D01*
X131175238Y-47347142D01*
X131127619Y-47394761D01*
X131032380Y-47442380D01*
X130746666Y-47442380D01*
X130651428Y-47394761D01*
X130603809Y-47347142D01*
X131651428Y-47347142D02*
X131699047Y-47394761D01*
X131651428Y-47442380D01*
X131603809Y-47394761D01*
X131651428Y-47347142D01*
X131651428Y-47442380D01*
X132032380Y-46442380D02*
X132651428Y-46442380D01*
X132318095Y-46823333D01*
X132460952Y-46823333D01*
X132556190Y-46870952D01*
X132603809Y-46918571D01*
X132651428Y-47013809D01*
X132651428Y-47251904D01*
X132603809Y-47347142D01*
X132556190Y-47394761D01*
X132460952Y-47442380D01*
X132175238Y-47442380D01*
X132080000Y-47394761D01*
X132032380Y-47347142D01*
X132937142Y-46442380D02*
X133270476Y-47442380D01*
X133603809Y-46442380D01*
X163369809Y-57618380D02*
X163988857Y-57618380D01*
X163655523Y-57999333D01*
X163798380Y-57999333D01*
X163893619Y-58046952D01*
X163941238Y-58094571D01*
X163988857Y-58189809D01*
X163988857Y-58427904D01*
X163941238Y-58523142D01*
X163893619Y-58570761D01*
X163798380Y-58618380D01*
X163512666Y-58618380D01*
X163417428Y-58570761D01*
X163369809Y-58523142D01*
X164417428Y-58523142D02*
X164465047Y-58570761D01*
X164417428Y-58618380D01*
X164369809Y-58570761D01*
X164417428Y-58523142D01*
X164417428Y-58618380D01*
X164798380Y-57618380D02*
X165417428Y-57618380D01*
X165084095Y-57999333D01*
X165226952Y-57999333D01*
X165322190Y-58046952D01*
X165369809Y-58094571D01*
X165417428Y-58189809D01*
X165417428Y-58427904D01*
X165369809Y-58523142D01*
X165322190Y-58570761D01*
X165226952Y-58618380D01*
X164941238Y-58618380D01*
X164846000Y-58570761D01*
X164798380Y-58523142D01*
X165703142Y-57618380D02*
X166036476Y-58618380D01*
X166369809Y-57618380D01*
X163369809Y-86066380D02*
X163988857Y-86066380D01*
X163655523Y-86447333D01*
X163798380Y-86447333D01*
X163893619Y-86494952D01*
X163941238Y-86542571D01*
X163988857Y-86637809D01*
X163988857Y-86875904D01*
X163941238Y-86971142D01*
X163893619Y-87018761D01*
X163798380Y-87066380D01*
X163512666Y-87066380D01*
X163417428Y-87018761D01*
X163369809Y-86971142D01*
X164417428Y-86971142D02*
X164465047Y-87018761D01*
X164417428Y-87066380D01*
X164369809Y-87018761D01*
X164417428Y-86971142D01*
X164417428Y-87066380D01*
X164798380Y-86066380D02*
X165417428Y-86066380D01*
X165084095Y-86447333D01*
X165226952Y-86447333D01*
X165322190Y-86494952D01*
X165369809Y-86542571D01*
X165417428Y-86637809D01*
X165417428Y-86875904D01*
X165369809Y-86971142D01*
X165322190Y-87018761D01*
X165226952Y-87066380D01*
X164941238Y-87066380D01*
X164846000Y-87018761D01*
X164798380Y-86971142D01*
X165703142Y-86066380D02*
X166036476Y-87066380D01*
X166369809Y-86066380D01*
X138517380Y-127333190D02*
X138517380Y-126714142D01*
X138898333Y-127047476D01*
X138898333Y-126904619D01*
X138945952Y-126809380D01*
X138993571Y-126761761D01*
X139088809Y-126714142D01*
X139326904Y-126714142D01*
X139422142Y-126761761D01*
X139469761Y-126809380D01*
X139517380Y-126904619D01*
X139517380Y-127190333D01*
X139469761Y-127285571D01*
X139422142Y-127333190D01*
X139422142Y-126285571D02*
X139469761Y-126237952D01*
X139517380Y-126285571D01*
X139469761Y-126333190D01*
X139422142Y-126285571D01*
X139517380Y-126285571D01*
X138517380Y-125904619D02*
X138517380Y-125285571D01*
X138898333Y-125618904D01*
X138898333Y-125476047D01*
X138945952Y-125380809D01*
X138993571Y-125333190D01*
X139088809Y-125285571D01*
X139326904Y-125285571D01*
X139422142Y-125333190D01*
X139469761Y-125380809D01*
X139517380Y-125476047D01*
X139517380Y-125761761D01*
X139469761Y-125857000D01*
X139422142Y-125904619D01*
X138517380Y-124999857D02*
X139517380Y-124666523D01*
X138517380Y-124333190D01*
X146185000Y-126618904D02*
X146137380Y-126714142D01*
X146137380Y-126857000D01*
X146185000Y-126999857D01*
X146280238Y-127095095D01*
X146375476Y-127142714D01*
X146565952Y-127190333D01*
X146708809Y-127190333D01*
X146899285Y-127142714D01*
X146994523Y-127095095D01*
X147089761Y-126999857D01*
X147137380Y-126857000D01*
X147137380Y-126761761D01*
X147089761Y-126618904D01*
X147042142Y-126571285D01*
X146708809Y-126571285D01*
X146708809Y-126761761D01*
X147137380Y-126142714D02*
X146137380Y-126142714D01*
X147137380Y-125571285D01*
X146137380Y-125571285D01*
X147137380Y-125095095D02*
X146137380Y-125095095D01*
X146137380Y-124857000D01*
X146185000Y-124714142D01*
X146280238Y-124618904D01*
X146375476Y-124571285D01*
X146565952Y-124523666D01*
X146708809Y-124523666D01*
X146899285Y-124571285D01*
X146994523Y-124618904D01*
X147089761Y-124714142D01*
X147137380Y-124857000D01*
X147137380Y-125095095D01*
X142057380Y-126658666D02*
X141581190Y-126992000D01*
X142057380Y-127230095D02*
X141057380Y-127230095D01*
X141057380Y-126849142D01*
X141105000Y-126753904D01*
X141152619Y-126706285D01*
X141247857Y-126658666D01*
X141390714Y-126658666D01*
X141485952Y-126706285D01*
X141533571Y-126753904D01*
X141581190Y-126849142D01*
X141581190Y-127230095D01*
X141057380Y-126325333D02*
X142057380Y-125658666D01*
X141057380Y-125658666D02*
X142057380Y-126325333D01*
X143597380Y-127253904D02*
X143597380Y-126682476D01*
X144597380Y-126968190D02*
X143597380Y-126968190D01*
X143597380Y-126444380D02*
X144597380Y-125777714D01*
X143597380Y-125777714D02*
X144597380Y-126444380D01*
X160274047Y-143073428D02*
X161035952Y-143073428D01*
X160655000Y-143454380D02*
X160655000Y-142692476D01*
X165354047Y-143073428D02*
X166115952Y-143073428D01*
X131223523Y-43902380D02*
X131223523Y-44711904D01*
X131271142Y-44807142D01*
X131318761Y-44854761D01*
X131414000Y-44902380D01*
X131604476Y-44902380D01*
X131699714Y-44854761D01*
X131747333Y-44807142D01*
X131794952Y-44711904D01*
X131794952Y-43902380D01*
X132223523Y-44854761D02*
X132366380Y-44902380D01*
X132604476Y-44902380D01*
X132699714Y-44854761D01*
X132747333Y-44807142D01*
X132794952Y-44711904D01*
X132794952Y-44616666D01*
X132747333Y-44521428D01*
X132699714Y-44473809D01*
X132604476Y-44426190D01*
X132414000Y-44378571D01*
X132318761Y-44330952D01*
X132271142Y-44283333D01*
X132223523Y-44188095D01*
X132223523Y-44092857D01*
X132271142Y-43997619D01*
X132318761Y-43950000D01*
X132414000Y-43902380D01*
X132652095Y-43902380D01*
X132794952Y-43950000D01*
X133556857Y-44378571D02*
X133699714Y-44426190D01*
X133747333Y-44473809D01*
X133794952Y-44569047D01*
X133794952Y-44711904D01*
X133747333Y-44807142D01*
X133699714Y-44854761D01*
X133604476Y-44902380D01*
X133223523Y-44902380D01*
X133223523Y-43902380D01*
X133556857Y-43902380D01*
X133652095Y-43950000D01*
X133699714Y-43997619D01*
X133747333Y-44092857D01*
X133747333Y-44188095D01*
X133699714Y-44283333D01*
X133652095Y-44330952D01*
X133556857Y-44378571D01*
X133223523Y-44378571D01*
X134985428Y-44902380D02*
X134985428Y-43902380D01*
X135366380Y-43902380D01*
X135461619Y-43950000D01*
X135509238Y-43997619D01*
X135556857Y-44092857D01*
X135556857Y-44235714D01*
X135509238Y-44330952D01*
X135461619Y-44378571D01*
X135366380Y-44426190D01*
X134985428Y-44426190D01*
X135985428Y-44902380D02*
X135985428Y-44235714D01*
X135985428Y-44426190D02*
X136033047Y-44330952D01*
X136080666Y-44283333D01*
X136175904Y-44235714D01*
X136271142Y-44235714D01*
X136747333Y-44902380D02*
X136652095Y-44854761D01*
X136604476Y-44807142D01*
X136556857Y-44711904D01*
X136556857Y-44426190D01*
X136604476Y-44330952D01*
X136652095Y-44283333D01*
X136747333Y-44235714D01*
X136890190Y-44235714D01*
X136985428Y-44283333D01*
X137033047Y-44330952D01*
X137080666Y-44426190D01*
X137080666Y-44711904D01*
X137033047Y-44807142D01*
X136985428Y-44854761D01*
X136890190Y-44902380D01*
X136747333Y-44902380D01*
X137937809Y-44235714D02*
X137937809Y-45045238D01*
X137890190Y-45140476D01*
X137842571Y-45188095D01*
X137747333Y-45235714D01*
X137604476Y-45235714D01*
X137509238Y-45188095D01*
X137937809Y-44854761D02*
X137842571Y-44902380D01*
X137652095Y-44902380D01*
X137556857Y-44854761D01*
X137509238Y-44807142D01*
X137461619Y-44711904D01*
X137461619Y-44426190D01*
X137509238Y-44330952D01*
X137556857Y-44283333D01*
X137652095Y-44235714D01*
X137842571Y-44235714D01*
X137937809Y-44283333D01*
X138414000Y-44902380D02*
X138414000Y-44235714D01*
X138414000Y-44426190D02*
X138461619Y-44330952D01*
X138509238Y-44283333D01*
X138604476Y-44235714D01*
X138699714Y-44235714D01*
X139461619Y-44902380D02*
X139461619Y-44378571D01*
X139414000Y-44283333D01*
X139318761Y-44235714D01*
X139128285Y-44235714D01*
X139033047Y-44283333D01*
X139461619Y-44854761D02*
X139366380Y-44902380D01*
X139128285Y-44902380D01*
X139033047Y-44854761D01*
X138985428Y-44759523D01*
X138985428Y-44664285D01*
X139033047Y-44569047D01*
X139128285Y-44521428D01*
X139366380Y-44521428D01*
X139461619Y-44473809D01*
X139937809Y-44902380D02*
X139937809Y-44235714D01*
X139937809Y-44330952D02*
X139985428Y-44283333D01*
X140080666Y-44235714D01*
X140223523Y-44235714D01*
X140318761Y-44283333D01*
X140366380Y-44378571D01*
X140366380Y-44902380D01*
X140366380Y-44378571D02*
X140414000Y-44283333D01*
X140509238Y-44235714D01*
X140652095Y-44235714D01*
X140747333Y-44283333D01*
X140794952Y-44378571D01*
X140794952Y-44902380D01*
X141271142Y-44902380D02*
X141271142Y-44235714D01*
X141271142Y-44330952D02*
X141318761Y-44283333D01*
X141414000Y-44235714D01*
X141556857Y-44235714D01*
X141652095Y-44283333D01*
X141699714Y-44378571D01*
X141699714Y-44902380D01*
X141699714Y-44378571D02*
X141747333Y-44283333D01*
X141842571Y-44235714D01*
X141985428Y-44235714D01*
X142080666Y-44283333D01*
X142128285Y-44378571D01*
X142128285Y-44902380D01*
X142985428Y-44854761D02*
X142890190Y-44902380D01*
X142699714Y-44902380D01*
X142604476Y-44854761D01*
X142556857Y-44759523D01*
X142556857Y-44378571D01*
X142604476Y-44283333D01*
X142699714Y-44235714D01*
X142890190Y-44235714D01*
X142985428Y-44283333D01*
X143033047Y-44378571D01*
X143033047Y-44473809D01*
X142556857Y-44569047D01*
X143461619Y-44902380D02*
X143461619Y-44235714D01*
X143461619Y-44426190D02*
X143509238Y-44330952D01*
X143556857Y-44283333D01*
X143652095Y-44235714D01*
X143747333Y-44235714D01*
D11*
X126492000Y-98679000D02*
X126492000Y-131699000D01*
X126492000Y-131699000D02*
X159512000Y-131699000D01*
X140462000Y-130743000D02*
X140462000Y-128083000D01*
X140462000Y-130743000D02*
X148142000Y-130743000D01*
X148142000Y-130743000D02*
X148142000Y-128083000D01*
X140462000Y-128083000D02*
X148142000Y-128083000D01*
X137862000Y-128083000D02*
X139192000Y-128083000D01*
X137862000Y-129413000D02*
X137862000Y-128083000D01*
X159512000Y-131699000D02*
X159512000Y-98679000D01*
X159512000Y-98679000D02*
X126492000Y-98679000D01*
X169732000Y-46676000D02*
X167072000Y-46676000D01*
X169732000Y-61976000D02*
X169732000Y-46676000D01*
X167072000Y-61976000D02*
X167072000Y-46676000D01*
X169732000Y-61976000D02*
X167072000Y-61976000D01*
X169732000Y-63246000D02*
X169732000Y-64576000D01*
X169732000Y-64576000D02*
X168402000Y-64576000D01*
X170180000Y-45720000D02*
X149098000Y-45720000D01*
X149098000Y-45720000D02*
X149098000Y-65786000D01*
X170180000Y-65786000D02*
X170180000Y-45720000D01*
X149098000Y-65786000D02*
X170180000Y-65786000D01*
X165426000Y-108077000D02*
G75*
G03X165426000Y-108077000I-2120000J0D01*
G01*
X163306000Y-105997000D02*
X163306000Y-110157000D01*
X163346000Y-105997000D02*
X163346000Y-110157000D01*
X163386000Y-105998000D02*
X163386000Y-110156000D01*
X163426000Y-106000000D02*
X163426000Y-110154000D01*
X163466000Y-106003000D02*
X163466000Y-110151000D01*
X163506000Y-106006000D02*
X163506000Y-107237000D01*
X163506000Y-108917000D02*
X163506000Y-110148000D01*
X163546000Y-106010000D02*
X163546000Y-107237000D01*
X163546000Y-108917000D02*
X163546000Y-110144000D01*
X163586000Y-106015000D02*
X163586000Y-107237000D01*
X163586000Y-108917000D02*
X163586000Y-110139000D01*
X163626000Y-106021000D02*
X163626000Y-107237000D01*
X163626000Y-108917000D02*
X163626000Y-110133000D01*
X163666000Y-106027000D02*
X163666000Y-107237000D01*
X163666000Y-108917000D02*
X163666000Y-110127000D01*
X163706000Y-106035000D02*
X163706000Y-107237000D01*
X163706000Y-108917000D02*
X163706000Y-110119000D01*
X163746000Y-106043000D02*
X163746000Y-107237000D01*
X163746000Y-108917000D02*
X163746000Y-110111000D01*
X163786000Y-106052000D02*
X163786000Y-107237000D01*
X163786000Y-108917000D02*
X163786000Y-110102000D01*
X163826000Y-106061000D02*
X163826000Y-107237000D01*
X163826000Y-108917000D02*
X163826000Y-110093000D01*
X163866000Y-106072000D02*
X163866000Y-107237000D01*
X163866000Y-108917000D02*
X163866000Y-110082000D01*
X163906000Y-106083000D02*
X163906000Y-107237000D01*
X163906000Y-108917000D02*
X163906000Y-110071000D01*
X163946000Y-106095000D02*
X163946000Y-107237000D01*
X163946000Y-108917000D02*
X163946000Y-110059000D01*
X163986000Y-106109000D02*
X163986000Y-107237000D01*
X163986000Y-108917000D02*
X163986000Y-110045000D01*
X164027000Y-106123000D02*
X164027000Y-107237000D01*
X164027000Y-108917000D02*
X164027000Y-110031000D01*
X164067000Y-106137000D02*
X164067000Y-107237000D01*
X164067000Y-108917000D02*
X164067000Y-110017000D01*
X164107000Y-106153000D02*
X164107000Y-107237000D01*
X164107000Y-108917000D02*
X164107000Y-110001000D01*
X164147000Y-106170000D02*
X164147000Y-107237000D01*
X164147000Y-108917000D02*
X164147000Y-109984000D01*
X164187000Y-106188000D02*
X164187000Y-107237000D01*
X164187000Y-108917000D02*
X164187000Y-109966000D01*
X164227000Y-106207000D02*
X164227000Y-107237000D01*
X164227000Y-108917000D02*
X164227000Y-109947000D01*
X164267000Y-106226000D02*
X164267000Y-107237000D01*
X164267000Y-108917000D02*
X164267000Y-109928000D01*
X164307000Y-106247000D02*
X164307000Y-107237000D01*
X164307000Y-108917000D02*
X164307000Y-109907000D01*
X164347000Y-106269000D02*
X164347000Y-107237000D01*
X164347000Y-108917000D02*
X164347000Y-109885000D01*
X164387000Y-106292000D02*
X164387000Y-107237000D01*
X164387000Y-108917000D02*
X164387000Y-109862000D01*
X164427000Y-106317000D02*
X164427000Y-107237000D01*
X164427000Y-108917000D02*
X164427000Y-109837000D01*
X164467000Y-106342000D02*
X164467000Y-107237000D01*
X164467000Y-108917000D02*
X164467000Y-109812000D01*
X164507000Y-106369000D02*
X164507000Y-107237000D01*
X164507000Y-108917000D02*
X164507000Y-109785000D01*
X164547000Y-106397000D02*
X164547000Y-107237000D01*
X164547000Y-108917000D02*
X164547000Y-109757000D01*
X164587000Y-106427000D02*
X164587000Y-107237000D01*
X164587000Y-108917000D02*
X164587000Y-109727000D01*
X164627000Y-106458000D02*
X164627000Y-107237000D01*
X164627000Y-108917000D02*
X164627000Y-109696000D01*
X164667000Y-106490000D02*
X164667000Y-107237000D01*
X164667000Y-108917000D02*
X164667000Y-109664000D01*
X164707000Y-106525000D02*
X164707000Y-107237000D01*
X164707000Y-108917000D02*
X164707000Y-109629000D01*
X164747000Y-106561000D02*
X164747000Y-107237000D01*
X164747000Y-108917000D02*
X164747000Y-109593000D01*
X164787000Y-106599000D02*
X164787000Y-107237000D01*
X164787000Y-108917000D02*
X164787000Y-109555000D01*
X164827000Y-106639000D02*
X164827000Y-107237000D01*
X164827000Y-108917000D02*
X164827000Y-109515000D01*
X164867000Y-106681000D02*
X164867000Y-107237000D01*
X164867000Y-108917000D02*
X164867000Y-109473000D01*
X164907000Y-106726000D02*
X164907000Y-107237000D01*
X164907000Y-108917000D02*
X164907000Y-109428000D01*
X164947000Y-106773000D02*
X164947000Y-107237000D01*
X164947000Y-108917000D02*
X164947000Y-109381000D01*
X164987000Y-106823000D02*
X164987000Y-107237000D01*
X164987000Y-108917000D02*
X164987000Y-109331000D01*
X165027000Y-106877000D02*
X165027000Y-107237000D01*
X165027000Y-108917000D02*
X165027000Y-109277000D01*
X165067000Y-106935000D02*
X165067000Y-107237000D01*
X165067000Y-108917000D02*
X165067000Y-109219000D01*
X165107000Y-106997000D02*
X165107000Y-107237000D01*
X165107000Y-108917000D02*
X165107000Y-109157000D01*
X165147000Y-107064000D02*
X165147000Y-109090000D01*
X165187000Y-107137000D02*
X165187000Y-109017000D01*
X165227000Y-107218000D02*
X165227000Y-108936000D01*
X165267000Y-107309000D02*
X165267000Y-108845000D01*
X165307000Y-107413000D02*
X165307000Y-108741000D01*
X165347000Y-107540000D02*
X165347000Y-108614000D01*
X165387000Y-107707000D02*
X165387000Y-108447000D01*
X161036199Y-106882000D02*
X161436199Y-106882000D01*
X161236199Y-106682000D02*
X161236199Y-107082000D01*
X158464000Y-95604000D02*
X158464000Y-95274000D01*
X151924000Y-95604000D02*
X158464000Y-95604000D01*
X151924000Y-95274000D02*
X151924000Y-95604000D01*
X158464000Y-92864000D02*
X158464000Y-93194000D01*
X151924000Y-92864000D02*
X158464000Y-92864000D01*
X151924000Y-93194000D02*
X151924000Y-92864000D01*
X158464000Y-92048000D02*
X158464000Y-91718000D01*
X151924000Y-92048000D02*
X158464000Y-92048000D01*
X151924000Y-91718000D02*
X151924000Y-92048000D01*
X158464000Y-89308000D02*
X158464000Y-89638000D01*
X151924000Y-89308000D02*
X158464000Y-89308000D01*
X151924000Y-89638000D02*
X151924000Y-89308000D01*
X166052000Y-97389000D02*
X165587000Y-97389000D01*
X168677000Y-97389000D02*
X168212000Y-97389000D01*
X166051571Y-102203479D02*
G75*
G02X166052000Y-97694316I1080429J2254479D01*
G01*
X168212429Y-102203479D02*
G75*
G03X168212000Y-97694316I-1080429J2254479D01*
G01*
X166051173Y-102736815D02*
G75*
G02X165587170Y-97389000I1080827J2787815D01*
G01*
X168212827Y-102736815D02*
G75*
G03X168676830Y-97389000I-1080827J2787815D01*
G01*
X166052000Y-90531000D02*
X165587000Y-90531000D01*
X168677000Y-90531000D02*
X168212000Y-90531000D01*
X166051571Y-95345479D02*
G75*
G02X166052000Y-90836316I1080429J2254479D01*
G01*
X168212429Y-95345479D02*
G75*
G03X168212000Y-90836316I-1080429J2254479D01*
G01*
X166051173Y-95878815D02*
G75*
G02X165587170Y-90531000I1080827J2787815D01*
G01*
X168212827Y-95878815D02*
G75*
G03X168676830Y-90531000I-1080827J2787815D01*
G01*
X159325000Y-139633000D02*
X159325000Y-138303000D01*
X160655000Y-139633000D02*
X159325000Y-139633000D01*
X164465000Y-139633000D02*
X164465000Y-136973000D01*
X164465000Y-136973000D02*
X167065000Y-136973000D01*
X164465000Y-139633000D02*
X167065000Y-139633000D01*
X167065000Y-139633000D02*
X167065000Y-136973000D01*
X151705000Y-141665000D02*
X151705000Y-140335000D01*
X153035000Y-141665000D02*
X151705000Y-141665000D01*
X154305000Y-141665000D02*
X154305000Y-139005000D01*
X154305000Y-139005000D02*
X156905000Y-139005000D01*
X154305000Y-141665000D02*
X156905000Y-141665000D01*
X156905000Y-141665000D02*
X156905000Y-139005000D01*
X171236000Y-116427000D02*
X160996000Y-116427000D01*
X171236000Y-111786000D02*
X160996000Y-111786000D01*
X171236000Y-116427000D02*
X171236000Y-111786000D01*
X160996000Y-116427000D02*
X160996000Y-111786000D01*
X171236000Y-114917000D02*
X160996000Y-114917000D01*
X167966000Y-116427000D02*
X167966000Y-114917000D01*
X164265000Y-116427000D02*
X164265000Y-114917000D01*
X170180000Y-88265000D02*
X170180000Y-66802000D01*
X149860000Y-88265000D02*
X170180000Y-88265000D01*
X149860000Y-88138000D02*
X149860000Y-88265000D01*
X149860000Y-88011000D02*
X149860000Y-88138000D01*
X149860000Y-87122000D02*
X149860000Y-88011000D01*
X149860000Y-66802000D02*
X149860000Y-87122000D01*
X170180000Y-66802000D02*
X149860000Y-66802000D01*
X168402000Y-87690000D02*
X167072000Y-87690000D01*
X167072000Y-87690000D02*
X167072000Y-86360000D01*
X167072000Y-85090000D02*
X167072000Y-67250000D01*
X169732000Y-67250000D02*
X167072000Y-67250000D01*
X169732000Y-85090000D02*
X169732000Y-67250000D01*
X169732000Y-85090000D02*
X167072000Y-85090000D01*
X130429000Y-45660000D02*
X148082000Y-45660000D01*
X130302000Y-45660000D02*
X130429000Y-45660000D01*
X127702000Y-45660000D02*
X130302000Y-45660000D01*
X127702000Y-45660000D02*
X127702000Y-96580000D01*
X148142000Y-96580000D02*
X148082000Y-45593000D01*
X127702000Y-96580000D02*
X148142000Y-96580000D01*
X145482000Y-48260000D02*
X148142000Y-48260000D01*
X145482000Y-46990000D02*
X145482000Y-45660000D01*
X145482000Y-45660000D02*
X146812000Y-45660000D01*
X145482000Y-48260000D02*
X145482000Y-96580000D01*
X145482000Y-96580000D02*
X148142000Y-96580000D01*
X148142000Y-48260000D02*
X148142000Y-96580000D01*
X127702000Y-48260000D02*
X130362000Y-48260000D01*
X127702000Y-46990000D02*
X127702000Y-45660000D01*
X127702000Y-45660000D02*
X129032000Y-45660000D01*
X127702000Y-48260000D02*
X127702000Y-96580000D01*
X127702000Y-96580000D02*
X130362000Y-96580000D01*
X130362000Y-48260000D02*
X130362000Y-96580000D01*
X170487801Y-109472000D02*
X170487801Y-109072000D01*
X170687801Y-109272000D02*
X170287801Y-109272000D01*
X166337000Y-108447000D02*
X166337000Y-107707000D01*
X166377000Y-108614000D02*
X166377000Y-107540000D01*
X166417000Y-108741000D02*
X166417000Y-107413000D01*
X166457000Y-108845000D02*
X166457000Y-107309000D01*
X166497000Y-108936000D02*
X166497000Y-107218000D01*
X166537000Y-109017000D02*
X166537000Y-107137000D01*
X166577000Y-109090000D02*
X166577000Y-107064000D01*
X166617000Y-107237000D02*
X166617000Y-106997000D01*
X166617000Y-109157000D02*
X166617000Y-108917000D01*
X166657000Y-107237000D02*
X166657000Y-106935000D01*
X166657000Y-109219000D02*
X166657000Y-108917000D01*
X166697000Y-107237000D02*
X166697000Y-106877000D01*
X166697000Y-109277000D02*
X166697000Y-108917000D01*
X166737000Y-107237000D02*
X166737000Y-106823000D01*
X166737000Y-109331000D02*
X166737000Y-108917000D01*
X166777000Y-107237000D02*
X166777000Y-106773000D01*
X166777000Y-109381000D02*
X166777000Y-108917000D01*
X166817000Y-107237000D02*
X166817000Y-106726000D01*
X166817000Y-109428000D02*
X166817000Y-108917000D01*
X166857000Y-107237000D02*
X166857000Y-106681000D01*
X166857000Y-109473000D02*
X166857000Y-108917000D01*
X166897000Y-107237000D02*
X166897000Y-106639000D01*
X166897000Y-109515000D02*
X166897000Y-108917000D01*
X166937000Y-107237000D02*
X166937000Y-106599000D01*
X166937000Y-109555000D02*
X166937000Y-108917000D01*
X166977000Y-107237000D02*
X166977000Y-106561000D01*
X166977000Y-109593000D02*
X166977000Y-108917000D01*
X167017000Y-107237000D02*
X167017000Y-106525000D01*
X167017000Y-109629000D02*
X167017000Y-108917000D01*
X167057000Y-107237000D02*
X167057000Y-106490000D01*
X167057000Y-109664000D02*
X167057000Y-108917000D01*
X167097000Y-107237000D02*
X167097000Y-106458000D01*
X167097000Y-109696000D02*
X167097000Y-108917000D01*
X167137000Y-107237000D02*
X167137000Y-106427000D01*
X167137000Y-109727000D02*
X167137000Y-108917000D01*
X167177000Y-107237000D02*
X167177000Y-106397000D01*
X167177000Y-109757000D02*
X167177000Y-108917000D01*
X167217000Y-107237000D02*
X167217000Y-106369000D01*
X167217000Y-109785000D02*
X167217000Y-108917000D01*
X167257000Y-107237000D02*
X167257000Y-106342000D01*
X167257000Y-109812000D02*
X167257000Y-108917000D01*
X167297000Y-107237000D02*
X167297000Y-106317000D01*
X167297000Y-109837000D02*
X167297000Y-108917000D01*
X167337000Y-107237000D02*
X167337000Y-106292000D01*
X167337000Y-109862000D02*
X167337000Y-108917000D01*
X167377000Y-107237000D02*
X167377000Y-106269000D01*
X167377000Y-109885000D02*
X167377000Y-108917000D01*
X167417000Y-107237000D02*
X167417000Y-106247000D01*
X167417000Y-109907000D02*
X167417000Y-108917000D01*
X167457000Y-107237000D02*
X167457000Y-106226000D01*
X167457000Y-109928000D02*
X167457000Y-108917000D01*
X167497000Y-107237000D02*
X167497000Y-106207000D01*
X167497000Y-109947000D02*
X167497000Y-108917000D01*
X167537000Y-107237000D02*
X167537000Y-106188000D01*
X167537000Y-109966000D02*
X167537000Y-108917000D01*
X167577000Y-107237000D02*
X167577000Y-106170000D01*
X167577000Y-109984000D02*
X167577000Y-108917000D01*
X167617000Y-107237000D02*
X167617000Y-106153000D01*
X167617000Y-110001000D02*
X167617000Y-108917000D01*
X167657000Y-107237000D02*
X167657000Y-106137000D01*
X167657000Y-110017000D02*
X167657000Y-108917000D01*
X167697000Y-107237000D02*
X167697000Y-106123000D01*
X167697000Y-110031000D02*
X167697000Y-108917000D01*
X167738000Y-107237000D02*
X167738000Y-106109000D01*
X167738000Y-110045000D02*
X167738000Y-108917000D01*
X167778000Y-107237000D02*
X167778000Y-106095000D01*
X167778000Y-110059000D02*
X167778000Y-108917000D01*
X167818000Y-107237000D02*
X167818000Y-106083000D01*
X167818000Y-110071000D02*
X167818000Y-108917000D01*
X167858000Y-107237000D02*
X167858000Y-106072000D01*
X167858000Y-110082000D02*
X167858000Y-108917000D01*
X167898000Y-107237000D02*
X167898000Y-106061000D01*
X167898000Y-110093000D02*
X167898000Y-108917000D01*
X167938000Y-107237000D02*
X167938000Y-106052000D01*
X167938000Y-110102000D02*
X167938000Y-108917000D01*
X167978000Y-107237000D02*
X167978000Y-106043000D01*
X167978000Y-110111000D02*
X167978000Y-108917000D01*
X168018000Y-107237000D02*
X168018000Y-106035000D01*
X168018000Y-110119000D02*
X168018000Y-108917000D01*
X168058000Y-107237000D02*
X168058000Y-106027000D01*
X168058000Y-110127000D02*
X168058000Y-108917000D01*
X168098000Y-107237000D02*
X168098000Y-106021000D01*
X168098000Y-110133000D02*
X168098000Y-108917000D01*
X168138000Y-107237000D02*
X168138000Y-106015000D01*
X168138000Y-110139000D02*
X168138000Y-108917000D01*
X168178000Y-107237000D02*
X168178000Y-106010000D01*
X168178000Y-110144000D02*
X168178000Y-108917000D01*
X168218000Y-107237000D02*
X168218000Y-106006000D01*
X168218000Y-110148000D02*
X168218000Y-108917000D01*
X168258000Y-110151000D02*
X168258000Y-106003000D01*
X168298000Y-110154000D02*
X168298000Y-106000000D01*
X168338000Y-110156000D02*
X168338000Y-105998000D01*
X168378000Y-110157000D02*
X168378000Y-105997000D01*
X168418000Y-110157000D02*
X168418000Y-105997000D01*
X170538000Y-108077000D02*
G75*
G03X170538000Y-108077000I-2120000J0D01*
G01*
D10*
X142541714Y-115324000D02*
X142446476Y-115276380D01*
X142303619Y-115276380D01*
X142160761Y-115324000D01*
X142065523Y-115419238D01*
X142017904Y-115514476D01*
X141970285Y-115704952D01*
X141970285Y-115847809D01*
X142017904Y-116038285D01*
X142065523Y-116133523D01*
X142160761Y-116228761D01*
X142303619Y-116276380D01*
X142398857Y-116276380D01*
X142541714Y-116228761D01*
X142589333Y-116181142D01*
X142589333Y-115847809D01*
X142398857Y-115847809D01*
X143017904Y-116276380D02*
X143017904Y-115276380D01*
X143398857Y-115276380D01*
X143494095Y-115324000D01*
X143541714Y-115371619D01*
X143589333Y-115466857D01*
X143589333Y-115609714D01*
X143541714Y-115704952D01*
X143494095Y-115752571D01*
X143398857Y-115800190D01*
X143017904Y-115800190D01*
X143970285Y-116228761D02*
X144113142Y-116276380D01*
X144351238Y-116276380D01*
X144446476Y-116228761D01*
X144494095Y-116181142D01*
X144541714Y-116085904D01*
X144541714Y-115990666D01*
X144494095Y-115895428D01*
X144446476Y-115847809D01*
X144351238Y-115800190D01*
X144160761Y-115752571D01*
X144065523Y-115704952D01*
X144017904Y-115657333D01*
X143970285Y-115562095D01*
X143970285Y-115466857D01*
X144017904Y-115371619D01*
X144065523Y-115324000D01*
X144160761Y-115276380D01*
X144398857Y-115276380D01*
X144541714Y-115324000D01*
X156326048Y-64539761D02*
X156468905Y-64587380D01*
X156707001Y-64587380D01*
X156802239Y-64539761D01*
X156849858Y-64492142D01*
X156897477Y-64396904D01*
X156897477Y-64301666D01*
X156849858Y-64206428D01*
X156802239Y-64158809D01*
X156707001Y-64111190D01*
X156516524Y-64063571D01*
X156421286Y-64015952D01*
X156373667Y-63968333D01*
X156326048Y-63873095D01*
X156326048Y-63777857D01*
X156373667Y-63682619D01*
X156421286Y-63635000D01*
X156516524Y-63587380D01*
X156754620Y-63587380D01*
X156897477Y-63635000D01*
X157326048Y-64587380D02*
X157326048Y-63587380D01*
X157564143Y-63587380D01*
X157707001Y-63635000D01*
X157802239Y-63730238D01*
X157849858Y-63825476D01*
X157897477Y-64015952D01*
X157897477Y-64158809D01*
X157849858Y-64349285D01*
X157802239Y-64444523D01*
X157707001Y-64539761D01*
X157564143Y-64587380D01*
X157326048Y-64587380D01*
X158087953Y-64682619D02*
X158849858Y-64682619D01*
X159659381Y-64492142D02*
X159611762Y-64539761D01*
X159468905Y-64587380D01*
X159373667Y-64587380D01*
X159230810Y-64539761D01*
X159135572Y-64444523D01*
X159087953Y-64349285D01*
X159040334Y-64158809D01*
X159040334Y-64015952D01*
X159087953Y-63825476D01*
X159135572Y-63730238D01*
X159230810Y-63635000D01*
X159373667Y-63587380D01*
X159468905Y-63587380D01*
X159611762Y-63635000D01*
X159659381Y-63682619D01*
X160516524Y-64587380D02*
X160516524Y-64063571D01*
X160468905Y-63968333D01*
X160373667Y-63920714D01*
X160183191Y-63920714D01*
X160087953Y-63968333D01*
X160516524Y-64539761D02*
X160421286Y-64587380D01*
X160183191Y-64587380D01*
X160087953Y-64539761D01*
X160040334Y-64444523D01*
X160040334Y-64349285D01*
X160087953Y-64254047D01*
X160183191Y-64206428D01*
X160421286Y-64206428D01*
X160516524Y-64158809D01*
X160992715Y-64587380D02*
X160992715Y-63920714D01*
X160992715Y-64111190D02*
X161040334Y-64015952D01*
X161087953Y-63968333D01*
X161183191Y-63920714D01*
X161278429Y-63920714D01*
X162040334Y-64587380D02*
X162040334Y-63587380D01*
X162040334Y-64539761D02*
X161945096Y-64587380D01*
X161754620Y-64587380D01*
X161659381Y-64539761D01*
X161611762Y-64492142D01*
X161564143Y-64396904D01*
X161564143Y-64111190D01*
X161611762Y-64015952D01*
X161659381Y-63968333D01*
X161754620Y-63920714D01*
X161945096Y-63920714D01*
X162040334Y-63968333D01*
X161441047Y-104449619D02*
X161488666Y-104402000D01*
X161583904Y-104354380D01*
X161822000Y-104354380D01*
X161917238Y-104402000D01*
X161964857Y-104449619D01*
X162012476Y-104544857D01*
X162012476Y-104640095D01*
X161964857Y-104782952D01*
X161393428Y-105354380D01*
X162012476Y-105354380D01*
X162441047Y-105259142D02*
X162488666Y-105306761D01*
X162441047Y-105354380D01*
X162393428Y-105306761D01*
X162441047Y-105259142D01*
X162441047Y-105354380D01*
X162869619Y-104449619D02*
X162917238Y-104402000D01*
X163012476Y-104354380D01*
X163250571Y-104354380D01*
X163345809Y-104402000D01*
X163393428Y-104449619D01*
X163441047Y-104544857D01*
X163441047Y-104640095D01*
X163393428Y-104782952D01*
X162822000Y-105354380D01*
X163441047Y-105354380D01*
X164298190Y-104687714D02*
X164298190Y-105354380D01*
X163869619Y-104687714D02*
X163869619Y-105211523D01*
X163917238Y-105306761D01*
X164012476Y-105354380D01*
X164155333Y-105354380D01*
X164250571Y-105306761D01*
X164298190Y-105259142D01*
X165107714Y-104830571D02*
X164774380Y-104830571D01*
X164774380Y-105354380D02*
X164774380Y-104354380D01*
X165250571Y-104354380D01*
X155027333Y-94686380D02*
X154694000Y-94210190D01*
X154455904Y-94686380D02*
X154455904Y-93686380D01*
X154836857Y-93686380D01*
X154932095Y-93734000D01*
X154979714Y-93781619D01*
X155027333Y-93876857D01*
X155027333Y-94019714D01*
X154979714Y-94114952D01*
X154932095Y-94162571D01*
X154836857Y-94210190D01*
X154455904Y-94210190D01*
X155408285Y-93781619D02*
X155455904Y-93734000D01*
X155551142Y-93686380D01*
X155789238Y-93686380D01*
X155884476Y-93734000D01*
X155932095Y-93781619D01*
X155979714Y-93876857D01*
X155979714Y-93972095D01*
X155932095Y-94114952D01*
X155360666Y-94686380D01*
X155979714Y-94686380D01*
X155027333Y-91130380D02*
X154694000Y-90654190D01*
X154455904Y-91130380D02*
X154455904Y-90130380D01*
X154836857Y-90130380D01*
X154932095Y-90178000D01*
X154979714Y-90225619D01*
X155027333Y-90320857D01*
X155027333Y-90463714D01*
X154979714Y-90558952D01*
X154932095Y-90606571D01*
X154836857Y-90654190D01*
X154455904Y-90654190D01*
X155979714Y-91130380D02*
X155408285Y-91130380D01*
X155694000Y-91130380D02*
X155694000Y-90130380D01*
X155598761Y-90273238D01*
X155503523Y-90368476D01*
X155408285Y-90416095D01*
X163012380Y-102599809D02*
X162012380Y-102599809D01*
X162012380Y-102361714D01*
X162060000Y-102218857D01*
X162155238Y-102123619D01*
X162250476Y-102076000D01*
X162440952Y-102028380D01*
X162583809Y-102028380D01*
X162774285Y-102076000D01*
X162869523Y-102123619D01*
X162964761Y-102218857D01*
X163012380Y-102361714D01*
X163012380Y-102599809D01*
X162964761Y-101218857D02*
X163012380Y-101314095D01*
X163012380Y-101504571D01*
X162964761Y-101599809D01*
X162869523Y-101647428D01*
X162488571Y-101647428D01*
X162393333Y-101599809D01*
X162345714Y-101504571D01*
X162345714Y-101314095D01*
X162393333Y-101218857D01*
X162488571Y-101171238D01*
X162583809Y-101171238D01*
X162679047Y-101647428D01*
X163012380Y-100742666D02*
X162012380Y-100742666D01*
X162393333Y-100742666D02*
X162345714Y-100647428D01*
X162345714Y-100456952D01*
X162393333Y-100361714D01*
X162440952Y-100314095D01*
X162536190Y-100266476D01*
X162821904Y-100266476D01*
X162917142Y-100314095D01*
X162964761Y-100361714D01*
X163012380Y-100456952D01*
X163012380Y-100647428D01*
X162964761Y-100742666D01*
X162345714Y-99409333D02*
X163012380Y-99409333D01*
X162345714Y-99837904D02*
X162869523Y-99837904D01*
X162964761Y-99790285D01*
X163012380Y-99695047D01*
X163012380Y-99552190D01*
X162964761Y-99456952D01*
X162917142Y-99409333D01*
X162345714Y-98504571D02*
X163155238Y-98504571D01*
X163250476Y-98552190D01*
X163298095Y-98599809D01*
X163345714Y-98695047D01*
X163345714Y-98837904D01*
X163298095Y-98933142D01*
X162964761Y-98504571D02*
X163012380Y-98599809D01*
X163012380Y-98790285D01*
X162964761Y-98885523D01*
X162917142Y-98933142D01*
X162821904Y-98980761D01*
X162536190Y-98980761D01*
X162440952Y-98933142D01*
X162393333Y-98885523D01*
X162345714Y-98790285D01*
X162345714Y-98599809D01*
X162393333Y-98504571D01*
X162107619Y-98076000D02*
X162060000Y-98028380D01*
X162012380Y-97933142D01*
X162012380Y-97695047D01*
X162060000Y-97599809D01*
X162107619Y-97552190D01*
X162202857Y-97504571D01*
X162298095Y-97504571D01*
X162440952Y-97552190D01*
X163012380Y-98123619D01*
X163012380Y-97504571D01*
X163012380Y-95741809D02*
X162012380Y-95741809D01*
X162012380Y-95503714D01*
X162060000Y-95360857D01*
X162155238Y-95265619D01*
X162250476Y-95218000D01*
X162440952Y-95170380D01*
X162583809Y-95170380D01*
X162774285Y-95218000D01*
X162869523Y-95265619D01*
X162964761Y-95360857D01*
X163012380Y-95503714D01*
X163012380Y-95741809D01*
X162964761Y-94360857D02*
X163012380Y-94456095D01*
X163012380Y-94646571D01*
X162964761Y-94741809D01*
X162869523Y-94789428D01*
X162488571Y-94789428D01*
X162393333Y-94741809D01*
X162345714Y-94646571D01*
X162345714Y-94456095D01*
X162393333Y-94360857D01*
X162488571Y-94313238D01*
X162583809Y-94313238D01*
X162679047Y-94789428D01*
X163012380Y-93884666D02*
X162012380Y-93884666D01*
X162393333Y-93884666D02*
X162345714Y-93789428D01*
X162345714Y-93598952D01*
X162393333Y-93503714D01*
X162440952Y-93456095D01*
X162536190Y-93408476D01*
X162821904Y-93408476D01*
X162917142Y-93456095D01*
X162964761Y-93503714D01*
X163012380Y-93598952D01*
X163012380Y-93789428D01*
X162964761Y-93884666D01*
X162345714Y-92551333D02*
X163012380Y-92551333D01*
X162345714Y-92979904D02*
X162869523Y-92979904D01*
X162964761Y-92932285D01*
X163012380Y-92837047D01*
X163012380Y-92694190D01*
X162964761Y-92598952D01*
X162917142Y-92551333D01*
X162345714Y-91646571D02*
X163155238Y-91646571D01*
X163250476Y-91694190D01*
X163298095Y-91741809D01*
X163345714Y-91837047D01*
X163345714Y-91979904D01*
X163298095Y-92075142D01*
X162964761Y-91646571D02*
X163012380Y-91741809D01*
X163012380Y-91932285D01*
X162964761Y-92027523D01*
X162917142Y-92075142D01*
X162821904Y-92122761D01*
X162536190Y-92122761D01*
X162440952Y-92075142D01*
X162393333Y-92027523D01*
X162345714Y-91932285D01*
X162345714Y-91741809D01*
X162393333Y-91646571D01*
X163012380Y-90646571D02*
X163012380Y-91218000D01*
X163012380Y-90932285D02*
X162012380Y-90932285D01*
X162155238Y-91027523D01*
X162250476Y-91122761D01*
X162298095Y-91218000D01*
X157242619Y-133881761D02*
X157385476Y-133929380D01*
X157623571Y-133929380D01*
X157718809Y-133881761D01*
X157766428Y-133834142D01*
X157814047Y-133738904D01*
X157814047Y-133643666D01*
X157766428Y-133548428D01*
X157718809Y-133500809D01*
X157623571Y-133453190D01*
X157433095Y-133405571D01*
X157337857Y-133357952D01*
X157290238Y-133310333D01*
X157242619Y-133215095D01*
X157242619Y-133119857D01*
X157290238Y-133024619D01*
X157337857Y-132977000D01*
X157433095Y-132929380D01*
X157671190Y-132929380D01*
X157814047Y-132977000D01*
X158671190Y-133881761D02*
X158575952Y-133929380D01*
X158385476Y-133929380D01*
X158290238Y-133881761D01*
X158242619Y-133834142D01*
X158195000Y-133738904D01*
X158195000Y-133453190D01*
X158242619Y-133357952D01*
X158290238Y-133310333D01*
X158385476Y-133262714D01*
X158575952Y-133262714D01*
X158671190Y-133310333D01*
X159099761Y-133929380D02*
X159099761Y-133262714D01*
X159099761Y-133453190D02*
X159147380Y-133357952D01*
X159195000Y-133310333D01*
X159290238Y-133262714D01*
X159385476Y-133262714D01*
X160099761Y-133881761D02*
X160004523Y-133929380D01*
X159814047Y-133929380D01*
X159718809Y-133881761D01*
X159671190Y-133786523D01*
X159671190Y-133405571D01*
X159718809Y-133310333D01*
X159814047Y-133262714D01*
X160004523Y-133262714D01*
X160099761Y-133310333D01*
X160147380Y-133405571D01*
X160147380Y-133500809D01*
X159671190Y-133596047D01*
X160480714Y-133262714D02*
X160671190Y-133929380D01*
X160861666Y-133453190D01*
X161052142Y-133929380D01*
X161242619Y-133262714D01*
X161385476Y-134024619D02*
X162147380Y-134024619D01*
X162242619Y-132929380D02*
X162814047Y-132929380D01*
X162528333Y-133929380D02*
X162528333Y-132929380D01*
X163528333Y-133881761D02*
X163433095Y-133929380D01*
X163242619Y-133929380D01*
X163147380Y-133881761D01*
X163099761Y-133786523D01*
X163099761Y-133405571D01*
X163147380Y-133310333D01*
X163242619Y-133262714D01*
X163433095Y-133262714D01*
X163528333Y-133310333D01*
X163575952Y-133405571D01*
X163575952Y-133500809D01*
X163099761Y-133596047D01*
X164004523Y-133929380D02*
X164004523Y-133262714D01*
X164004523Y-133453190D02*
X164052142Y-133357952D01*
X164099761Y-133310333D01*
X164195000Y-133262714D01*
X164290238Y-133262714D01*
X164623571Y-133929380D02*
X164623571Y-133262714D01*
X164623571Y-133357952D02*
X164671190Y-133310333D01*
X164766428Y-133262714D01*
X164909285Y-133262714D01*
X165004523Y-133310333D01*
X165052142Y-133405571D01*
X165052142Y-133929380D01*
X165052142Y-133405571D02*
X165099761Y-133310333D01*
X165195000Y-133262714D01*
X165337857Y-133262714D01*
X165433095Y-133310333D01*
X165480714Y-133405571D01*
X165480714Y-133929380D01*
X165956904Y-133929380D02*
X165956904Y-133262714D01*
X165956904Y-132929380D02*
X165909285Y-132977000D01*
X165956904Y-133024619D01*
X166004523Y-132977000D01*
X165956904Y-132929380D01*
X165956904Y-133024619D01*
X166433095Y-133262714D02*
X166433095Y-133929380D01*
X166433095Y-133357952D02*
X166480714Y-133310333D01*
X166575952Y-133262714D01*
X166718809Y-133262714D01*
X166814047Y-133310333D01*
X166861666Y-133405571D01*
X166861666Y-133929380D01*
X167766428Y-133929380D02*
X167766428Y-133405571D01*
X167718809Y-133310333D01*
X167623571Y-133262714D01*
X167433095Y-133262714D01*
X167337857Y-133310333D01*
X167766428Y-133881761D02*
X167671190Y-133929380D01*
X167433095Y-133929380D01*
X167337857Y-133881761D01*
X167290238Y-133786523D01*
X167290238Y-133691285D01*
X167337857Y-133596047D01*
X167433095Y-133548428D01*
X167671190Y-133548428D01*
X167766428Y-133500809D01*
X168385476Y-133929380D02*
X168290238Y-133881761D01*
X168242619Y-133786523D01*
X168242619Y-132929380D01*
X168718809Y-133881761D02*
X168814047Y-133929380D01*
X169004523Y-133929380D01*
X169099761Y-133881761D01*
X169147380Y-133786523D01*
X169147380Y-133738904D01*
X169099761Y-133643666D01*
X169004523Y-133596047D01*
X168861666Y-133596047D01*
X168766428Y-133548428D01*
X168718809Y-133453190D01*
X168718809Y-133405571D01*
X168766428Y-133310333D01*
X168861666Y-133262714D01*
X169004523Y-133262714D01*
X169099761Y-133310333D01*
X151662142Y-138247380D02*
X151185952Y-138247380D01*
X151185952Y-137247380D01*
X151995476Y-138247380D02*
X151995476Y-137247380D01*
X152471666Y-138247380D02*
X152471666Y-137247380D01*
X152852619Y-137247380D01*
X152947857Y-137295000D01*
X152995476Y-137342619D01*
X153043095Y-137437857D01*
X153043095Y-137580714D01*
X152995476Y-137675952D01*
X152947857Y-137723571D01*
X152852619Y-137771190D01*
X152471666Y-137771190D01*
X153662142Y-137247380D02*
X153852619Y-137247380D01*
X153947857Y-137295000D01*
X154043095Y-137390238D01*
X154090714Y-137580714D01*
X154090714Y-137914047D01*
X154043095Y-138104523D01*
X153947857Y-138199761D01*
X153852619Y-138247380D01*
X153662142Y-138247380D01*
X153566904Y-138199761D01*
X153471666Y-138104523D01*
X153424047Y-137914047D01*
X153424047Y-137580714D01*
X153471666Y-137390238D01*
X153566904Y-137295000D01*
X153662142Y-137247380D01*
X154281190Y-138342619D02*
X155043095Y-138342619D01*
X155614523Y-137723571D02*
X155757380Y-137771190D01*
X155805000Y-137818809D01*
X155852619Y-137914047D01*
X155852619Y-138056904D01*
X155805000Y-138152142D01*
X155757380Y-138199761D01*
X155662142Y-138247380D01*
X155281190Y-138247380D01*
X155281190Y-137247380D01*
X155614523Y-137247380D01*
X155709761Y-137295000D01*
X155757380Y-137342619D01*
X155805000Y-137437857D01*
X155805000Y-137533095D01*
X155757380Y-137628333D01*
X155709761Y-137675952D01*
X155614523Y-137723571D01*
X155281190Y-137723571D01*
X156233571Y-137961666D02*
X156709761Y-137961666D01*
X156138333Y-138247380D02*
X156471666Y-137247380D01*
X156805000Y-138247380D01*
X156995476Y-137247380D02*
X157566904Y-137247380D01*
X157281190Y-138247380D02*
X157281190Y-137247380D01*
X164401714Y-122134380D02*
X164735047Y-123134380D01*
X165068380Y-122134380D01*
X165973142Y-123134380D02*
X165639809Y-122658190D01*
X165401714Y-123134380D02*
X165401714Y-122134380D01*
X165782666Y-122134380D01*
X165877904Y-122182000D01*
X165925523Y-122229619D01*
X165973142Y-122324857D01*
X165973142Y-122467714D01*
X165925523Y-122562952D01*
X165877904Y-122610571D01*
X165782666Y-122658190D01*
X165401714Y-122658190D01*
X166782666Y-123086761D02*
X166687428Y-123134380D01*
X166496952Y-123134380D01*
X166401714Y-123086761D01*
X166354095Y-122991523D01*
X166354095Y-122610571D01*
X166401714Y-122515333D01*
X166496952Y-122467714D01*
X166687428Y-122467714D01*
X166782666Y-122515333D01*
X166830285Y-122610571D01*
X166830285Y-122705809D01*
X166354095Y-122801047D01*
X167687428Y-122467714D02*
X167687428Y-123277238D01*
X167639809Y-123372476D01*
X167592190Y-123420095D01*
X167496952Y-123467714D01*
X167354095Y-123467714D01*
X167258857Y-123420095D01*
X167687428Y-123086761D02*
X167592190Y-123134380D01*
X167401714Y-123134380D01*
X167306476Y-123086761D01*
X167258857Y-123039142D01*
X167211238Y-122943904D01*
X167211238Y-122658190D01*
X167258857Y-122562952D01*
X167306476Y-122515333D01*
X167401714Y-122467714D01*
X167592190Y-122467714D01*
X167687428Y-122515333D01*
X151876761Y-83986666D02*
X152352952Y-83986666D01*
X151781523Y-84272380D02*
X152114857Y-83272380D01*
X152448190Y-84272380D01*
X153210095Y-84224761D02*
X153114857Y-84272380D01*
X152924380Y-84272380D01*
X152829142Y-84224761D01*
X152781523Y-84177142D01*
X152733904Y-84081904D01*
X152733904Y-83796190D01*
X152781523Y-83700952D01*
X152829142Y-83653333D01*
X152924380Y-83605714D01*
X153114857Y-83605714D01*
X153210095Y-83653333D01*
X154067238Y-84224761D02*
X153972000Y-84272380D01*
X153781523Y-84272380D01*
X153686285Y-84224761D01*
X153638666Y-84177142D01*
X153591047Y-84081904D01*
X153591047Y-83796190D01*
X153638666Y-83700952D01*
X153686285Y-83653333D01*
X153781523Y-83605714D01*
X153972000Y-83605714D01*
X154067238Y-83653333D01*
X154876761Y-84224761D02*
X154781523Y-84272380D01*
X154591047Y-84272380D01*
X154495809Y-84224761D01*
X154448190Y-84129523D01*
X154448190Y-83748571D01*
X154495809Y-83653333D01*
X154591047Y-83605714D01*
X154781523Y-83605714D01*
X154876761Y-83653333D01*
X154924380Y-83748571D01*
X154924380Y-83843809D01*
X154448190Y-83939047D01*
X155495809Y-84272380D02*
X155400571Y-84224761D01*
X155352952Y-84129523D01*
X155352952Y-83272380D01*
X156257714Y-84224761D02*
X156162476Y-84272380D01*
X155972000Y-84272380D01*
X155876761Y-84224761D01*
X155829142Y-84129523D01*
X155829142Y-83748571D01*
X155876761Y-83653333D01*
X155972000Y-83605714D01*
X156162476Y-83605714D01*
X156257714Y-83653333D01*
X156305333Y-83748571D01*
X156305333Y-83843809D01*
X155829142Y-83939047D01*
X156733904Y-84272380D02*
X156733904Y-83605714D01*
X156733904Y-83796190D02*
X156781523Y-83700952D01*
X156829142Y-83653333D01*
X156924380Y-83605714D01*
X157019619Y-83605714D01*
X157495809Y-84272380D02*
X157400571Y-84224761D01*
X157352952Y-84177142D01*
X157305333Y-84081904D01*
X157305333Y-83796190D01*
X157352952Y-83700952D01*
X157400571Y-83653333D01*
X157495809Y-83605714D01*
X157638666Y-83605714D01*
X157733904Y-83653333D01*
X157781523Y-83700952D01*
X157829142Y-83796190D01*
X157829142Y-84081904D01*
X157781523Y-84177142D01*
X157733904Y-84224761D01*
X157638666Y-84272380D01*
X157495809Y-84272380D01*
X158257714Y-84272380D02*
X158257714Y-83605714D01*
X158257714Y-83700952D02*
X158305333Y-83653333D01*
X158400571Y-83605714D01*
X158543428Y-83605714D01*
X158638666Y-83653333D01*
X158686285Y-83748571D01*
X158686285Y-84272380D01*
X158686285Y-83748571D02*
X158733904Y-83653333D01*
X158829142Y-83605714D01*
X158972000Y-83605714D01*
X159067238Y-83653333D01*
X159114857Y-83748571D01*
X159114857Y-84272380D01*
X159972000Y-84224761D02*
X159876761Y-84272380D01*
X159686285Y-84272380D01*
X159591047Y-84224761D01*
X159543428Y-84129523D01*
X159543428Y-83748571D01*
X159591047Y-83653333D01*
X159686285Y-83605714D01*
X159876761Y-83605714D01*
X159972000Y-83653333D01*
X160019619Y-83748571D01*
X160019619Y-83843809D01*
X159543428Y-83939047D01*
X160305333Y-83605714D02*
X160686285Y-83605714D01*
X160448190Y-83272380D02*
X160448190Y-84129523D01*
X160495809Y-84224761D01*
X160591047Y-84272380D01*
X160686285Y-84272380D01*
X161400571Y-84224761D02*
X161305333Y-84272380D01*
X161114857Y-84272380D01*
X161019619Y-84224761D01*
X160972000Y-84129523D01*
X160972000Y-83748571D01*
X161019619Y-83653333D01*
X161114857Y-83605714D01*
X161305333Y-83605714D01*
X161400571Y-83653333D01*
X161448190Y-83748571D01*
X161448190Y-83843809D01*
X160972000Y-83939047D01*
X161876761Y-84272380D02*
X161876761Y-83605714D01*
X161876761Y-83796190D02*
X161924380Y-83700952D01*
X161972000Y-83653333D01*
X162067238Y-83605714D01*
X162162476Y-83605714D01*
X132422000Y-59618571D02*
X132755333Y-59618571D01*
X132898190Y-60142380D02*
X132422000Y-60142380D01*
X132422000Y-59142380D01*
X132898190Y-59142380D01*
X133279142Y-60094761D02*
X133422000Y-60142380D01*
X133660095Y-60142380D01*
X133755333Y-60094761D01*
X133802952Y-60047142D01*
X133850571Y-59951904D01*
X133850571Y-59856666D01*
X133802952Y-59761428D01*
X133755333Y-59713809D01*
X133660095Y-59666190D01*
X133469619Y-59618571D01*
X133374380Y-59570952D01*
X133326761Y-59523333D01*
X133279142Y-59428095D01*
X133279142Y-59332857D01*
X133326761Y-59237619D01*
X133374380Y-59190000D01*
X133469619Y-59142380D01*
X133707714Y-59142380D01*
X133850571Y-59190000D01*
X134279142Y-60142380D02*
X134279142Y-59142380D01*
X134660095Y-59142380D01*
X134755333Y-59190000D01*
X134802952Y-59237619D01*
X134850571Y-59332857D01*
X134850571Y-59475714D01*
X134802952Y-59570952D01*
X134755333Y-59618571D01*
X134660095Y-59666190D01*
X134279142Y-59666190D01*
X135183904Y-59142380D02*
X135802952Y-59142380D01*
X135469619Y-59523333D01*
X135612476Y-59523333D01*
X135707714Y-59570952D01*
X135755333Y-59618571D01*
X135802952Y-59713809D01*
X135802952Y-59951904D01*
X135755333Y-60047142D01*
X135707714Y-60094761D01*
X135612476Y-60142380D01*
X135326761Y-60142380D01*
X135231523Y-60094761D01*
X135183904Y-60047142D01*
X136183904Y-59237619D02*
X136231523Y-59190000D01*
X136326761Y-59142380D01*
X136564857Y-59142380D01*
X136660095Y-59190000D01*
X136707714Y-59237619D01*
X136755333Y-59332857D01*
X136755333Y-59428095D01*
X136707714Y-59570952D01*
X136136285Y-60142380D01*
X136755333Y-60142380D01*
X136945809Y-60237619D02*
X137707714Y-60237619D01*
X137945809Y-60142380D02*
X137945809Y-59142380D01*
X138326761Y-59142380D01*
X138422000Y-59190000D01*
X138469619Y-59237619D01*
X138517238Y-59332857D01*
X138517238Y-59475714D01*
X138469619Y-59570952D01*
X138422000Y-59618571D01*
X138326761Y-59666190D01*
X137945809Y-59666190D01*
X138945809Y-60142380D02*
X138945809Y-59475714D01*
X138945809Y-59142380D02*
X138898190Y-59190000D01*
X138945809Y-59237619D01*
X138993428Y-59190000D01*
X138945809Y-59142380D01*
X138945809Y-59237619D01*
X139850571Y-60094761D02*
X139755333Y-60142380D01*
X139564857Y-60142380D01*
X139469619Y-60094761D01*
X139422000Y-60047142D01*
X139374380Y-59951904D01*
X139374380Y-59666190D01*
X139422000Y-59570952D01*
X139469619Y-59523333D01*
X139564857Y-59475714D01*
X139755333Y-59475714D01*
X139850571Y-59523333D01*
X140422000Y-60142380D02*
X140326761Y-60094761D01*
X140279142Y-60047142D01*
X140231523Y-59951904D01*
X140231523Y-59666190D01*
X140279142Y-59570952D01*
X140326761Y-59523333D01*
X140422000Y-59475714D01*
X140564857Y-59475714D01*
X140660095Y-59523333D01*
X140707714Y-59570952D01*
X140755333Y-59666190D01*
X140755333Y-59951904D01*
X140707714Y-60047142D01*
X140660095Y-60094761D01*
X140564857Y-60142380D01*
X140422000Y-60142380D01*
X140945809Y-60237619D02*
X141707714Y-60237619D01*
X141945809Y-60142380D02*
X141945809Y-59142380D01*
X142183904Y-59142380D01*
X142326761Y-59190000D01*
X142422000Y-59285238D01*
X142469619Y-59380476D01*
X142517238Y-59570952D01*
X142517238Y-59713809D01*
X142469619Y-59904285D01*
X142422000Y-59999523D01*
X142326761Y-60094761D01*
X142183904Y-60142380D01*
X141945809Y-60142380D01*
X143374380Y-59475714D02*
X143374380Y-60142380D01*
X143136285Y-59094761D02*
X142898190Y-59809047D01*
X143517238Y-59809047D01*
X166790952Y-104354380D02*
X166886190Y-104354380D01*
X166981428Y-104402000D01*
X167029047Y-104449619D01*
X167076666Y-104544857D01*
X167124285Y-104735333D01*
X167124285Y-104973428D01*
X167076666Y-105163904D01*
X167029047Y-105259142D01*
X166981428Y-105306761D01*
X166886190Y-105354380D01*
X166790952Y-105354380D01*
X166695714Y-105306761D01*
X166648095Y-105259142D01*
X166600476Y-105163904D01*
X166552857Y-104973428D01*
X166552857Y-104735333D01*
X166600476Y-104544857D01*
X166648095Y-104449619D01*
X166695714Y-104402000D01*
X166790952Y-104354380D01*
X167552857Y-105259142D02*
X167600476Y-105306761D01*
X167552857Y-105354380D01*
X167505238Y-105306761D01*
X167552857Y-105259142D01*
X167552857Y-105354380D01*
X168457619Y-104687714D02*
X168457619Y-105354380D01*
X168219523Y-104306761D02*
X167981428Y-105021047D01*
X168600476Y-105021047D01*
X168886190Y-104354380D02*
X169552857Y-104354380D01*
X169124285Y-105354380D01*
X170362380Y-104687714D02*
X170362380Y-105354380D01*
X169933809Y-104687714D02*
X169933809Y-105211523D01*
X169981428Y-105306761D01*
X170076666Y-105354380D01*
X170219523Y-105354380D01*
X170314761Y-105306761D01*
X170362380Y-105259142D01*
X171171904Y-104830571D02*
X170838571Y-104830571D01*
X170838571Y-105354380D02*
X170838571Y-104354380D01*
X171314761Y-104354380D01*
M02*
